<svg width="348" height="492" viewBox="0 0 348 492" fill="none" xmlns="http://www.w3.org/2000/svg">
<path d="M93.0173 246.227C95.7503 245.999 98.5067 246.115 101.242 246.19C103.948 246.256 106.664 246.392 109.35 246.569C114.793 246.913 120.238 247.459 125.643 248.178C136.465 249.636 147.152 251.875 157.654 254.845C168.013 257.785 178.367 261.263 187.884 266.338C190.368 267.662 192.803 269.138 195.157 270.705C191.752 266.089 187.945 261.831 183.595 258.003C178.285 253.344 172.434 249.318 166.423 245.577C165.242 244.858 164.06 244.14 162.859 243.433C162.728 243.525 162.586 243.547 162.393 243.467C151.938 238.948 140.97 235.861 130.278 232.022C120.095 228.381 109.984 223.787 101.795 216.583C97.8227 213.096 94.3922 209.026 91.8379 204.382C89.1191 199.465 87.5202 194.052 86.2453 188.626C84.9695 183.098 84.0473 177.466 82.6805 171.959C81.3348 166.544 79.4334 161.285 76.9467 156.275C71.9943 146.347 64.8134 137.532 56.0803 130.708C55.7539 130.468 55.4276 130.228 55.1013 129.988C53.8915 129.513 52.6817 129.038 51.4621 128.594C50.8422 128.377 50.9962 127.485 51.5318 127.338C51.326 126.985 51.5535 126.386 52.0909 126.441C61.4601 127.447 70.3566 131.06 78.2732 136.089C86.4443 141.268 93.5756 147.946 99.7814 155.351C107.319 164.365 113.518 174.393 119.434 184.516C125.176 194.346 130.686 204.32 137.012 213.8C143.143 222.999 150.091 231.805 158.544 239.027C158.666 239.117 158.779 239.238 158.901 239.328C160.449 240.215 161.987 241.132 163.525 242.049C173.456 248.032 183.192 254.878 190.879 263.636C190.652 263.243 190.426 262.851 190.21 262.478C182.153 253.146 174.197 243.711 166.512 234.061C165.651 232.975 164.78 231.869 163.919 230.784C159.572 228.404 155.633 225.231 151.877 222.066C147.865 218.701 144.064 215.051 140.504 211.226C133.271 203.455 126.963 194.805 121.824 185.506C116.335 175.572 112.328 164.956 108.14 154.432C104.18 144.454 100.018 134.477 94.2423 125.376C88.9394 117 82.2852 109.315 73.8993 103.915C73.716 103.806 73.543 103.716 73.3798 103.596C73.2377 103.567 73.0957 103.538 72.9639 103.529C72.6291 103.472 72.4448 103.261 72.3919 103.008C71.8011 102.649 71.2103 102.29 70.6097 101.961C69.7647 101.503 70.309 100.08 71.1844 100.548C72.2225 101.085 73.2105 101.674 74.2087 102.282C82.8824 103.669 91.1895 107.074 98.337 112.192C102.12 114.911 105.563 118.109 108.553 121.666C112.168 125.997 115.149 130.78 118.029 135.614C120.909 140.448 123.769 145.292 126.871 150.013C130.035 154.803 133.309 159.512 136.472 164.303C138.68 167.624 140.798 171.017 142.805 174.492C139.383 166.858 136.737 158.903 134.749 150.789C134.139 148.253 133.589 145.686 133.12 143.128C132.661 140.54 132.13 137.861 132.076 135.218C132.064 134.995 132.276 134.912 132.438 134.982C132.487 134.779 132.75 134.695 132.853 134.897C132.965 134.916 133.077 134.986 133.128 135.087C134.015 136.82 134.7 138.657 135.557 140.431C136.403 142.135 137.34 143.817 138.307 145.459C140.293 148.792 142.48 152.023 144.636 155.243C148.579 161.11 152.533 167.048 155.125 173.657C155.996 175.857 156.665 178.109 157.142 180.434C157.512 176.531 158.145 172.647 159.053 168.85C160.449 163.075 162.434 157.456 164.928 152.085C164.892 151.467 165.028 150.838 165.074 150.23C165.098 149.582 165.082 148.954 165.005 148.307C164.851 146.961 164.515 145.658 163.998 144.397C163.656 143.58 163.213 142.764 162.72 141.999C161.677 140.905 160.583 139.862 159.4 138.941C157.961 137.82 156.423 136.852 154.835 135.986C151.597 134.184 148.25 132.615 145.093 130.721C138.513 126.762 132.702 121.621 127.686 115.845C117.081 103.62 110.159 88.697 105.178 73.3908C102.906 66.4142 101.079 59.3119 99.3433 52.1884C99.3021 52.1078 99.2913 52.037 99.2501 51.9564C99.2191 51.8959 99.2285 51.8148 99.2281 51.7642C99.0594 51.0366 98.8809 50.3395 98.7122 49.6119C98.046 48.7574 97.3493 47.893 96.6831 47.0384C96.3348 46.6062 96.5736 46.128 96.9361 45.8916C96.7106 45.6001 96.7768 45.083 97.1506 44.968C97.9891 44.7171 99.046 45.092 99.9084 45.2358C100.873 45.4292 101.837 45.6227 102.821 45.8565C104.76 46.3142 106.68 46.8836 108.58 47.5138C111.679 48.548 114.669 49.8668 117.55 51.4195C114.803 44.5082 113.156 37.1105 112.38 29.7248C111.959 25.769 111.71 21.7508 111.744 17.74C111.673 17.6496 111.641 17.5385 111.63 17.417C111.659 17.2244 111.667 17.042 111.686 16.8291C111.686 16.8291 111.706 16.8188 111.695 16.7987C111.674 16.7077 111.653 16.6168 111.652 16.5155C111.541 15.4532 111.532 14.3899 111.593 13.3158C111.665 12.3125 111.787 11.2581 112.062 10.253C112.317 9.40998 113.11 8.62271 113.977 9.27283C114.141 9.39282 114.112 9.63614 113.992 9.74868C115.107 12.0776 116.363 14.3343 117.801 16.4981C119.68 19.3262 121.801 21.9799 124.013 24.5618C128.487 29.7758 133.323 34.7028 137.546 40.1723C145.029 49.9254 150.128 61.4327 152.496 73.472C153.472 78.4151 153.974 83.474 153.969 88.5378C153.99 88.6287 154.001 88.6995 154.022 88.7904C154.205 88.8495 154.389 88.9592 154.502 89.1809C155.409 90.9548 156.247 92.7901 157.033 94.6258C158.115 96.5905 158.984 98.6888 159.47 100.882C159.647 101.376 159.804 101.881 159.96 102.386C160.488 103.667 161.14 105.14 161.264 106.577C162.885 112.182 163.991 117.924 164.59 123.721C165.077 125.965 165.441 128.22 165.634 130.487C165.985 134.555 165.881 138.779 164.834 142.748C164.814 142.809 164.804 142.84 164.774 142.881C164.929 143.183 165.114 143.495 165.248 143.808C165.838 145.109 166.235 146.533 166.42 147.939C166.454 148.253 166.476 148.546 166.499 148.84C167.535 146.835 168.631 144.85 169.799 142.904C174.809 134.593 180.991 127.081 187.991 120.372C188.844 119.554 189.759 118.806 190.705 118.068C190.946 117.893 191.304 118.194 191.124 118.438C191.336 118.457 191.561 118.596 191.492 118.86C191.278 119.835 191.206 120.787 191.103 121.781C191.001 122.774 190.969 123.757 191.029 124.769C191.138 126.722 191.5 128.674 191.963 130.573C192.94 134.422 194.472 138.115 195.581 141.922C196.667 145.588 197.472 149.449 197.051 153.302C196.836 155.268 196.286 157.177 195.411 158.948C194.426 160.902 193.155 162.696 192.14 164.64C191.184 166.452 190.583 168.361 190.358 170.409C190.133 172.406 190.223 174.421 190.352 176.415C190.581 180.494 190.688 184.432 189.732 188.431C187.789 196.521 183.346 203.703 181.282 211.753C179.735 217.682 179.163 223.875 179.542 229.989C179.739 231.567 179.925 233.124 180.092 234.693C180.102 234.763 180.093 234.845 180.073 234.905C180.159 235.472 180.225 236.048 180.332 236.604C180.503 237.636 180.725 238.667 180.927 239.708C180.928 239.759 180.918 239.789 180.918 239.84C181.032 240.112 181.126 240.395 181.22 240.677C182.402 243.735 183.696 246.761 185.09 249.735C185.152 249.856 185.234 249.967 185.316 250.078C185.368 250.178 185.389 250.269 185.39 250.371C188.715 257.368 192.565 264.096 197.008 270.445C197.788 271.572 198.578 272.668 199.388 273.754C199.399 273.775 199.399 273.775 199.409 273.795C200.011 274.275 200.623 274.725 201.235 275.226C205.604 278.891 209.411 283.149 212.635 287.859C219.379 297.659 223.603 308.901 227.069 320.201C227.497 321.585 227.864 322.999 228.232 324.413C228.326 324.747 228.125 325.002 227.883 325.125C229.536 327.459 231.178 329.824 232.759 332.219C238.429 340.764 243.645 349.617 248.871 358.439C254.272 367.554 259.662 376.648 265.043 385.773C275.927 404.163 286.892 422.512 297.453 441.067C298.709 443.273 299.934 445.469 301.049 447.747C301.235 448.11 300.64 448.44 300.414 448.098C297.366 443.731 294.66 439.138 291.894 434.577C289.169 430.096 286.464 425.604 283.779 421.103C278.368 412.019 272.927 402.925 267.537 393.831C256.89 375.904 246.555 357.742 235.444 340.104C231.673 334.123 227.74 328.276 223.515 322.655C223.495 322.665 223.495 322.665 223.485 322.645C223.475 322.625 223.464 322.605 223.444 322.565C223.322 322.525 223.18 322.496 223.047 322.437C222.539 322.188 222.01 321.95 221.501 321.702C220.463 321.215 219.416 320.759 218.379 320.323C216.243 319.432 214.058 318.643 211.843 317.944C207.434 316.538 202.927 315.436 198.449 314.293C193.971 313.15 189.493 311.957 185.133 310.398C180.682 308.809 176.419 306.743 172.385 304.279C164.022 299.173 156.679 292.578 149.417 286.043C145.781 282.766 142.155 279.509 138.409 276.364C134.306 272.969 130.033 269.789 125.63 266.803C116.661 260.76 107.222 255.491 97.7541 250.264C97.3265 250.025 96.8989 249.786 96.4713 249.547C96.4713 249.547 96.4511 249.557 96.4408 249.537C96.2785 249.518 96.1665 249.448 96.0746 249.368C95.2521 249.153 94.4399 248.958 93.6278 248.763C93.171 248.666 92.985 248.253 93.0019 247.888C92.0589 247.785 92.0859 246.297 93.0173 246.227ZM90.9973 198.81C93.0287 203.874 95.9774 208.444 99.7309 212.399C107.197 220.228 117.099 225.31 127.092 229.125C127.945 229.451 128.789 229.757 129.633 230.063C129.144 229.805 128.676 229.536 128.187 229.277C128.167 229.287 128.116 229.288 128.086 229.278C120.014 226.184 112.525 221.292 106.211 215.417C99.8769 209.501 94.5258 202.523 90.5559 194.813C89.6484 193.04 88.8319 191.245 88.0758 189.419C88.8846 192.591 89.7843 195.742 90.9973 198.81ZM82.7492 166.125C84.3126 170.972 85.31 175.955 86.3073 180.938C87.0952 182.926 87.5905 185.038 88.338 187.046C89.0753 189.035 89.8932 190.981 90.8119 192.877C92.6705 196.758 94.8517 200.475 97.3551 203.975C102.311 210.927 108.555 216.965 115.538 221.861C118.474 223.92 121.57 225.693 124.775 227.284C121.037 225 117.458 222.431 114.15 219.545C108.003 214.195 102.952 207.852 98.846 200.822C94.3702 193.167 90.9227 184.986 87.4857 176.826C85.8395 172.912 84.1733 169.008 82.4061 165.156C82.5205 165.479 82.6348 165.802 82.7492 166.125ZM74.9696 149.377C75.0104 149.407 75.0512 149.437 75.092 149.467C76.445 151.216 77.5161 153.161 78.5971 155.075C79.6575 156.949 80.6475 158.884 81.607 160.809C83.5575 164.771 85.3264 168.825 87.055 172.9C90.4607 180.95 93.6648 189.103 97.7462 196.832C101.632 204.178 106.435 211.03 112.484 216.786C118.032 222.061 124.433 226.416 131.232 229.907C133.206 230.931 135.23 231.854 137.274 232.716C141.969 234.282 146.673 235.817 151.318 237.536C150.766 237.004 150.224 236.442 149.692 235.9C143.085 232.236 136.507 228.53 130.179 224.367C124.451 220.582 118.964 216.421 114.078 211.596C108.865 206.429 104.527 200.586 100.903 194.2C93.6663 181.446 89.1219 167.341 81.5421 154.764C76.4821 146.365 69.9668 138.355 61.5528 133.198C66.7317 137.95 71.2788 143.406 74.9696 149.377ZM58.4544 128.883C57.4594 128.629 56.4746 128.395 55.4599 128.202C55.572 128.272 55.6638 128.352 55.7862 128.442C60.1049 129.921 64.1086 132.425 67.619 135.258C72.3644 139.112 76.4184 143.803 79.8978 148.814C88.0887 160.647 92.8523 174.335 99.2591 187.156C102.653 193.94 106.552 200.516 111.538 206.283C116.134 211.587 121.484 216.175 127.163 220.263C133.179 224.612 139.555 228.37 145.99 232.046C145.09 231.083 144.18 230.149 143.28 229.186C139.781 225.431 136.333 221.625 132.975 217.748C126.24 210.003 119.765 202.023 113.582 193.817C107.359 185.581 101.458 177.13 95.8481 168.453C90.3103 159.866 85.2344 150.84 78.4889 143.126C73.0739 136.918 66.3189 131.523 58.4544 128.883ZM148.955 231.674C145.271 227.607 141.909 223.274 138.749 218.787C132.263 209.592 126.705 199.82 121.085 190.08C115.24 179.947 109.303 169.835 102.189 160.555C96.1303 152.641 89.1662 145.395 81.0298 139.588C76.7884 136.569 72.2468 133.958 67.4471 131.938C70.7471 133.912 73.7676 136.334 76.4451 138.932C83.732 146.013 89.0381 154.744 94.5042 163.24C100.104 171.947 105.996 180.48 112.17 188.817C118.364 197.195 124.85 205.347 131.598 213.264C138.028 220.809 144.809 228.047 151.641 235.234C152.13 235.493 152.609 235.782 153.097 236.041C151.636 234.626 150.275 233.161 148.955 231.674ZM115.199 93.8246C121.967 107.402 131.583 119.981 144.442 128.256C146.602 129.643 148.862 130.827 151.122 132.011C149.592 130.911 148.052 129.791 146.553 128.651C140.963 124.389 135.734 119.74 130.997 114.558C126.24 109.337 122.085 103.604 118.646 97.4279C114.887 90.6779 111.935 83.5153 109.014 76.3625C107.366 72.2967 105.678 68.2515 104.061 64.1956C103.72 63.3785 103.398 62.551 103.067 61.7541C106.367 72.7315 110.062 83.5836 115.199 93.8246ZM146.289 58.1571C143.918 52.4778 140.891 47.1084 137.24 42.1601C133.23 36.7088 128.506 31.8517 124.103 26.7282C120.397 22.4184 116.658 17.7951 114.119 12.6338C114.24 13.615 114.4 14.5756 114.561 15.5362C115.374 16.9767 116.157 18.4074 117.011 19.8273C118.697 22.6269 120.475 25.3546 122.282 28.0923C125.887 33.4967 129.663 38.7881 133.328 44.1616C140.062 53.9927 146.364 64.1721 150.447 75.4358C150.977 76.8688 151.446 78.3329 151.884 79.7871C151.037 72.3616 149.188 65.0671 146.289 58.1571ZM152.293 84.6646C151.714 82.1889 151.013 79.7244 150.18 77.3017C148.287 71.8102 145.768 66.588 142.987 61.4999C136.982 50.5581 129.456 40.5725 122.454 30.268C120.421 27.2895 118.429 24.2903 116.557 21.2292C116.146 20.5748 115.725 19.9002 115.334 19.2355C117.194 27.7958 120.44 36.0292 125.066 43.4799C131.706 54.1726 140.32 63.4998 146.78 74.336C149.023 78.1228 150.963 82.0643 152.419 86.2028C152.363 85.697 152.328 85.1808 152.293 84.6646ZM150.248 84.7953C150.709 85.3986 151.151 86.0122 151.572 86.6361C148.073 77.2608 142.071 68.9116 136.043 61.0082C132.148 55.9306 128.192 50.8839 124.729 45.5085C121.421 40.3848 118.576 34.9732 116.458 29.2408C115.181 25.7994 114.176 22.2441 113.424 18.6357C113.418 19.1219 113.443 19.6179 113.468 20.1139C115.283 30.4267 118.616 40.472 123.29 49.8566C128.459 60.2087 135.432 69.6121 143.66 77.7378C145.94 80.0051 148.28 82.2415 150.248 84.7953ZM143.652 79.0139C139.543 75.0118 135.696 70.7742 132.231 66.1888C125.341 57.0985 119.839 46.8407 116.165 36.0289C115.28 33.4548 114.527 30.8389 113.835 28.192C114.386 34.243 115.464 40.2789 117.309 46.0746C119.186 51.9814 121.77 57.679 125.231 62.8519C126.717 64.8127 128.254 66.7225 130.033 68.4578C132.772 71.1765 135.772 73.6092 138.782 76.0114C142.262 78.7839 145.792 81.556 149.001 84.645C147.372 82.6551 145.522 80.8294 143.652 79.0139ZM158.804 103.359C158.721 103.147 158.638 102.935 158.555 102.723C157.882 101.059 157.168 99.4148 156.353 97.8223C154.743 94.5765 152.751 91.5773 150.829 88.5167C149.611 87.1812 148.354 85.917 147.016 84.6941C141.724 79.822 135.771 75.7461 130.52 70.8533C129.725 70.2937 128.95 69.7237 128.145 69.1439C127.356 68.25 126.588 67.3458 125.851 66.4008C122.581 62.1477 119.985 57.473 117.925 52.5503C114.741 51.1017 111.458 49.8565 108.105 48.7741C106.276 48.1836 104.418 47.6846 102.54 47.2466C101.586 47.0226 100.611 46.809 99.6272 46.6259C99.4345 46.5973 99.2113 46.5589 98.9881 46.5205C112.059 55.8564 124.26 66.3752 135.396 77.9472C141.256 84.0292 146.966 90.3658 151.921 97.2159C155.921 102.748 159.45 108.7 161.919 115.067C161.143 111.115 160.105 107.195 158.804 103.359ZM163.474 124.573C163.21 123.41 162.926 122.258 162.602 121.127C160.365 113.522 156.563 106.489 152.017 100.041C147.235 93.2293 141.718 86.9719 136.031 80.9288C130.477 75.0465 124.642 69.4098 118.576 64.0691C112.878 59.0489 106.94 54.3044 100.821 49.8047C109.922 61.4263 119.013 73.0783 128.093 84.7101C133.115 91.1444 138.137 97.5786 143.169 104.033C145.67 107.23 148.151 110.437 150.621 113.675C152.794 116.48 154.967 119.285 156.969 122.203C160.264 127.003 163.128 132.303 164.031 138.047C164.071 133.499 163.929 129.044 163.474 124.573ZM163.11 139.23C163.192 139.29 163.293 139.34 163.365 139.38C162.565 133.837 160.056 128.635 156.954 123.965C152.877 117.836 148.005 112.241 143.445 106.461C133.453 93.7945 123.492 81.0874 113.47 68.4111C109.791 63.7568 106.142 59.1123 102.484 54.4477C107.416 66.5743 113.558 78.1832 120.809 89.0727C124.844 95.1212 129.212 100.924 133.892 106.49C138.613 112.087 143.685 117.325 148.847 122.492C154.02 127.679 159.174 133.029 163.11 139.23ZM160.492 137.594C161.011 137.913 161.541 138.252 162.061 138.572C158.409 133.573 154.124 129.076 149.738 124.682C144.617 119.545 139.465 114.448 134.715 108.943C125.163 97.883 116.868 85.7475 109.975 72.8697C106.286 65.957 103.01 58.8076 100.148 51.5226C100.086 51.4523 100.025 51.382 99.9836 51.3013C100.088 51.6548 100.193 52.0083 100.297 52.3618C101.776 55.7 103.093 59.1208 104.461 62.4904C105.891 66.0316 107.301 69.5832 108.701 73.1146C111.54 80.2074 114.32 87.3311 117.805 94.1444C121.095 100.575 125.09 106.593 129.8 112.068C134.356 117.393 139.514 122.054 144.893 126.55C147.873 129.044 151.014 131.354 154.235 133.572C154.48 133.752 154.745 133.921 155 134.071C155.153 134.171 155.315 134.24 155.488 134.329C157.179 135.296 158.91 136.343 160.492 137.594ZM80.2665 106.762C85.0433 110.727 89.199 115.468 92.7802 120.529C98.8447 129.1 103.307 138.618 107.264 148.293C111.595 158.896 115.42 169.707 120.497 179.979C125.275 189.615 131.222 198.654 138.245 206.811C145.207 214.898 153.162 221.993 161.799 228.231C161.809 228.252 161.84 228.261 161.85 228.282C155.014 219.545 148.4 210.645 142.188 201.437C134.61 190.206 127.626 178.544 121.6 166.418C115.554 154.251 110.636 141.456 103.34 129.929C97.4504 120.556 89.8894 112.292 80.2665 106.762ZM90.2277 111.61C94.5665 115.317 98.4044 119.635 101.749 124.283C109.525 135.106 114.683 147.525 120.292 159.533C126.129 172.036 132.893 184.065 140.403 195.661C146.845 205.616 153.77 215.222 160.956 224.644C158.793 220.715 156.741 216.703 154.639 212.743C152.268 208.259 149.877 203.785 147.517 199.321C142.756 190.312 137.964 181.343 133.202 172.334C128.492 163.426 123.903 154.456 119.062 145.64C114.376 137.127 109.225 128.749 102.646 121.56C98.0008 116.459 92.5915 112.003 86.5344 108.718C87.7784 109.608 89.0434 110.588 90.2277 111.61ZM137.577 168.85C131.556 159.417 124.95 150.385 119.251 140.737C113.912 131.743 108.632 122.618 100.507 115.838C96.4654 112.463 91.9224 109.701 87.0815 107.599C88.3235 108.286 89.5661 109.024 90.7584 109.813C94.366 112.189 97.6935 114.963 100.75 118.003C107.547 124.724 112.928 132.705 117.662 140.964C122.716 149.748 127.255 158.82 131.976 167.799C136.779 176.939 141.583 186.079 146.305 195.261C151.007 204.402 155.78 213.482 160.542 222.592C160.728 222.955 160.914 223.318 161.099 223.681C160.963 223.216 160.807 222.762 160.661 222.277C159.817 219.632 158.962 216.966 158.077 214.341C156.368 209.111 154.538 203.893 152.547 198.757C148.481 188.323 143.609 178.303 137.577 168.85ZM154.277 195.176C152.973 193.274 151.699 191.331 150.517 189.368C150.095 188.693 149.704 187.978 149.303 187.293C150.315 189.521 151.278 191.751 152.21 194.02C156.458 204.462 159.858 215.236 163.056 226.062C163.265 226.769 163.454 227.487 163.632 228.184C163.858 228.475 164.093 228.787 164.319 229.079C171.945 238.911 179.812 248.57 187.709 258.187C186.102 255.245 184.576 252.262 183.191 249.206C181.85 247.629 180.619 245.97 179.388 244.31C177.768 242.138 176.148 239.966 174.598 237.732C171.519 233.305 168.611 228.765 166.066 224.039C161.986 216.462 159.056 208.296 157.692 199.812C156.433 198.346 155.355 196.735 154.277 195.176ZM133.728 142.028C134.134 144.313 134.6 146.567 135.116 148.821C136.15 153.328 137.457 157.772 138.955 162.143C141.982 170.895 145.868 179.385 150.59 187.372C151.896 189.577 153.253 191.783 154.671 193.906C155.543 195.214 156.477 196.492 157.37 197.79C157.053 196.375 156.767 194.97 156.39 193.586C155.803 191.394 155.125 189.223 154.386 187.083C152.919 182.823 151.169 178.657 149.268 174.543C145.454 166.193 141.167 158.061 137.535 149.619C135.817 145.614 134.24 141.538 132.987 137.346C132.945 137.266 132.904 137.185 132.883 137.094C133.212 138.732 133.419 140.381 133.728 142.028ZM137.75 146.558C136.896 145.138 136.073 143.677 135.3 142.216C137.645 148.392 140.404 154.382 143.315 160.319C147.34 168.535 151.516 176.699 154.724 185.307C155.493 187.407 156.191 189.517 156.818 191.638C156.669 188.662 156.693 185.674 156.899 182.694C154.485 168.974 144.804 158.158 137.75 146.558ZM178.89 215.037C179.684 210.918 180.975 206.925 182.55 203.042C184.136 199.179 185.915 195.394 187.236 191.412C188.558 187.43 189.139 183.444 188.939 179.274C188.772 175.315 188.279 171.269 189.348 167.39C190.486 163.248 193.668 160.068 194.969 155.995C196.14 152.267 195.689 148.251 194.794 144.512C192.962 136.903 188.782 129.479 189.945 121.407C189.955 121.376 189.965 121.346 189.975 121.315C189.815 121.651 189.626 121.977 189.457 122.292C188.92 124.576 188.607 126.898 188.507 129.239C188.375 132.612 188.618 135.972 188.811 139.333C189.003 142.642 189.175 145.963 188.992 149.286C188.782 152.904 188.033 156.415 186.727 159.779C185.282 163.52 183.43 167.112 181.985 170.852C180.59 174.491 179.52 178.269 178.754 182.094C177.203 189.805 176.819 197.708 177.113 205.544C177.287 210.211 177.703 214.855 178.222 219.499C178.37 217.999 178.6 216.508 178.89 215.037ZM177.828 227.432C176.91 221.213 176.266 214.93 175.895 208.685C175.428 200.709 175.568 192.676 176.874 184.785C177.507 180.9 178.445 177.063 179.688 173.325C180.96 169.545 182.67 165.975 184.288 162.324C185.857 158.825 187.222 155.227 187.735 151.404C188.191 148.068 188.14 144.686 187.978 141.336C187.747 135.96 187.086 130.143 188.111 124.736C187.892 125.153 187.653 125.58 187.434 125.998C186.269 128.247 185.175 130.536 184.143 132.844C182.078 137.462 180.257 142.208 178.68 147.034C175.535 156.654 173.437 166.629 172.424 176.685C171.384 187.085 171.52 197.596 172.86 207.974C173.905 215.985 175.658 223.888 178.048 231.593C177.924 230.206 177.85 228.82 177.828 227.432ZM172.09 212.437C170.444 201.859 170.022 191.088 170.827 180.426C171.586 170.221 173.49 160.116 176.44 150.316C179.4 140.485 183.437 131.018 188.482 122.079C188.691 121.692 188.931 121.315 189.151 120.948C189.229 120.704 189.339 120.471 189.448 120.237C186.739 123.098 183.968 125.889 181.412 128.9C178.335 132.534 175.473 136.339 172.885 140.333C167.78 148.21 163.735 156.815 161.203 165.843C158.8 174.473 157.768 183.547 158.355 192.504C158.979 202.079 161.595 211.27 165.816 219.869C169.934 228.266 175.271 235.963 180.769 243.527C176.677 233.54 173.746 223.086 172.09 212.437ZM224.94 321.112C225.072 321.172 225.204 321.231 225.337 321.291C222.528 312.071 217.316 303.674 210.729 296.667C203.415 288.887 194.536 282.722 185.291 277.482C176.473 272.481 167.276 268.132 157.872 264.372C148.6 260.672 139.09 257.551 129.404 255.131C124.094 253.803 118.705 252.72 113.297 251.799C124.757 255.448 136.079 259.575 147.162 264.129C163.593 270.881 179.592 279.025 193.86 289.656C201.142 295.086 207.943 301.17 214.092 307.867C217.96 312.094 221.535 316.547 224.94 321.112ZM120.409 256.35C128.963 260.188 137.12 264.892 144.847 270.197C153.104 275.892 160.519 282.577 168.094 289.078C171.994 292.424 175.994 295.667 180.175 298.666C184.386 301.675 188.856 304.296 193.457 306.673C202.403 311.278 211.717 315.211 220.912 319.307C214.045 310.51 206.455 302.338 197.699 295.22C183.922 284.007 168.223 275.405 151.992 268.347C141.649 263.847 131.069 259.976 120.409 256.35ZM109.241 254.713C113.885 257.424 118.469 260.216 122.953 263.162C127.478 266.137 131.882 269.276 136.116 272.628C139.973 275.691 143.68 278.958 147.337 282.275C154.599 288.861 161.741 295.66 169.875 301.163C173.88 303.87 178.085 306.221 182.559 308.052C186.87 309.814 191.36 311.129 195.888 312.322C204.712 314.649 213.947 316.486 222.05 320.836C222.091 320.866 222.152 320.885 222.193 320.915C222.029 320.694 221.855 320.503 221.691 320.282C218.09 318.716 214.5 317.119 210.89 315.533C206.16 313.451 201.411 311.379 196.761 309.154C192.142 306.939 187.613 304.551 183.273 301.837C178.933 299.124 174.883 296.032 170.954 292.778C163.186 286.349 155.85 279.42 147.702 273.441C140.105 267.892 131.968 263.127 123.453 259.116C117.013 256.078 110.365 253.528 103.549 251.445C105.473 252.52 107.378 253.606 109.241 254.713ZM104.409 249.047C111.823 250.111 119.151 251.602 126.42 253.376C136.197 255.776 145.827 258.733 155.25 262.331C164.764 265.958 174.112 270.205 183.031 275.154C192.367 280.322 201.255 286.356 208.8 293.941C216.344 301.526 222.556 310.683 225.658 320.974C225.72 321.146 225.762 321.327 225.804 321.509C225.896 321.539 225.967 321.579 226.069 321.628C224.549 317.065 223.028 312.502 221.256 308.042C219.11 302.655 216.651 297.351 213.608 292.397C210.595 287.453 207.028 282.817 202.788 278.857C198.967 275.267 194.674 272.199 190.122 269.568C180.947 264.267 170.774 260.696 160.647 257.662C150.307 254.559 139.74 252.208 129.069 250.597C119.858 249.205 110.572 248.411 101.25 248.145C102.337 248.428 103.362 248.742 104.409 249.047Z" fill="#F7F1E5"/>
<path d="M154.804 144.878C154.408 143.606 154.577 142.146 155.479 141.125C156.051 140.502 156.746 140.07 157.575 139.9C158.313 139.751 159.075 139.947 159.706 140.336C160.226 140.655 160.585 141.158 160.702 141.734C160.937 141.995 161.142 142.297 161.307 142.619C161.824 143.729 161.705 145.137 160.903 146.056C160.061 146.996 158.728 147.474 157.49 147.243C156.232 147.022 155.18 146.11 154.804 144.878Z" fill="#F7F1E5"/>
<path d="M158.291 149.656C158.27 149.615 158.239 149.555 158.219 149.515C158.208 149.444 158.177 149.383 158.166 149.313C158.145 149.222 158.164 149.11 158.194 149.019C158.203 148.938 158.233 148.897 158.273 148.825C158.323 148.724 158.383 148.642 158.484 148.591L158.504 148.58C158.524 148.57 158.544 148.56 158.544 148.56C158.574 148.519 158.595 148.508 158.625 148.468C158.735 148.386 158.876 148.313 159.018 148.292C159.149 148.25 159.291 148.229 159.433 148.258C159.565 148.266 159.697 148.326 159.809 148.396C159.941 148.455 160.044 148.556 160.126 148.666C160.208 148.777 160.28 148.918 160.301 149.06C160.343 149.191 160.365 149.332 160.336 149.474C160.306 149.566 160.297 149.647 160.267 149.738C160.198 149.901 160.078 150.064 159.937 150.187C159.856 150.228 159.775 150.27 159.685 150.341C159.513 150.404 159.321 150.426 159.139 150.417C159.047 150.388 158.966 150.379 158.875 150.349C158.742 150.29 158.63 150.22 158.528 150.119C158.426 150.019 158.344 149.908 158.292 149.757C158.301 149.676 158.291 149.656 158.291 149.656Z" fill="#F7F1E5"/>
<path d="M155.701 152.202C155.67 152.141 155.67 152.091 155.679 152.01C155.668 151.939 155.688 151.878 155.708 151.817C155.727 151.756 155.747 151.695 155.777 151.654C155.797 151.593 155.847 151.542 155.897 151.491C155.947 151.44 155.998 151.389 156.058 151.358C156.108 151.307 156.179 151.296 156.25 151.285C156.341 151.264 156.432 151.243 156.544 151.262C156.574 151.272 156.594 151.262 156.645 151.261C156.756 151.281 156.878 151.32 156.97 151.4C157.052 151.46 157.113 151.53 157.154 151.611C157.216 151.681 157.237 151.772 157.238 151.874C157.249 151.995 157.23 152.107 157.18 152.208C157.17 152.239 157.16 152.269 157.151 152.3C157.131 152.361 157.081 152.412 157.061 152.473C157.011 152.524 156.961 152.575 156.931 152.616C156.87 152.647 156.81 152.678 156.749 152.709C156.678 152.719 156.618 152.75 156.567 152.751C156.516 152.751 156.435 152.742 156.385 152.742C156.324 152.723 156.263 152.703 156.202 152.683C156.141 152.664 156.09 152.613 156.029 152.594C155.947 152.534 155.886 152.463 155.834 152.363C155.733 152.313 155.702 152.253 155.701 152.202Z" fill="#F7F1E5"/>
<path d="M103.398 38.9744C103.199 38.2876 103.183 37.6092 103.409 36.9083C103.518 36.5731 103.697 36.2777 103.907 35.9922C103.937 35.9514 103.967 35.9106 103.997 35.8698C104.058 35.7882 104.138 35.6963 104.208 35.6349C104.7 35.1543 105.335 34.804 106.043 34.6454C107.327 34.37 108.69 34.9952 109.399 36.0823C110.149 37.25 110.212 38.6672 109.433 39.8291C108.723 40.8788 107.371 41.5195 106.123 41.3185C104.876 41.1176 103.773 40.1558 103.398 38.9744Z" fill="#F7F1E5"/>
<path d="M109.743 42.8744C109.681 42.7028 109.659 42.5106 109.667 42.3282C109.697 42.2368 109.706 42.1557 109.736 42.0643C109.815 41.8711 109.925 41.7384 110.066 41.6156C110.177 41.5335 110.318 41.4613 110.459 41.4397C110.591 41.398 110.732 41.3764 110.874 41.4054C111.006 41.4143 111.138 41.4738 111.25 41.5437C111.383 41.6032 111.485 41.7035 111.567 41.8141C111.608 41.8947 111.649 41.9754 111.721 42.0658C111.784 42.2374 111.806 42.4296 111.797 42.612C111.767 42.7034 111.758 42.7845 111.729 42.876C111.659 43.0387 111.539 43.2018 111.398 43.3247C111.288 43.4067 111.146 43.479 111.005 43.5005C110.874 43.5423 110.732 43.5639 110.59 43.5348C110.458 43.5259 110.326 43.4664 110.214 43.3966C110.082 43.3371 109.979 43.2368 109.897 43.1261C109.856 43.0455 109.815 42.9649 109.743 42.8744Z" fill="#F7F1E5"/>
<path d="M107.103 29.8046C107.092 29.6832 107.091 29.5819 107.12 29.4905C107.14 29.3789 107.189 29.2772 107.249 29.1956C107.33 29.1037 107.4 29.0423 107.501 28.9907C107.521 28.9804 107.541 28.9701 107.561 28.9597C107.571 28.9293 107.591 28.9189 107.601 28.8885C107.682 28.8472 107.742 28.8163 107.823 28.775C107.863 28.7543 107.914 28.7539 107.954 28.7332C108.025 28.7224 108.106 28.7318 108.167 28.7515C108.218 28.751 108.259 28.781 108.299 28.811C108.371 28.8508 108.422 28.901 108.473 28.9512C108.493 28.9915 108.524 29.0519 108.545 29.0923C108.566 29.1326 108.556 29.1631 108.556 29.2137C108.638 29.3243 108.711 29.4654 108.712 29.6173C108.723 29.6881 108.713 29.7692 108.714 29.8198C108.685 29.9619 108.645 30.0838 108.555 30.2062L108.405 30.3595C108.294 30.4416 108.153 30.5138 108.001 30.5152C107.879 30.5265 107.778 30.5274 107.687 30.4979C107.575 30.4787 107.473 30.429 107.392 30.369C107.3 30.2889 107.238 30.2186 107.187 30.1178C107.146 30.0371 107.114 29.926 107.103 29.8046Z" fill="#F7F1E5"/>
<path d="M146.361 243.962C146.957 242.59 148.52 241.866 149.961 242.146C150.722 242.291 151.394 242.659 151.927 243.252C152.397 243.774 152.677 244.521 152.724 245.209C152.772 245.998 152.577 246.81 152.076 247.423C151.575 248.035 150.899 248.406 150.141 248.565C149.474 248.703 148.824 248.578 148.264 248.279C147.889 248.191 147.523 248.023 147.206 247.752C146.145 246.871 145.806 245.264 146.361 243.962Z" fill="#F7F1E5"/>
<path d="M143.516 247.453C143.453 247.281 143.421 247.12 143.45 246.927C143.48 246.835 143.489 246.754 143.519 246.663C143.588 246.5 143.708 246.337 143.859 246.234C143.97 246.152 144.091 246.09 144.232 246.069C144.364 246.027 144.485 246.016 144.627 246.045C144.759 246.054 144.891 246.113 145.003 246.183C145.136 246.243 145.238 246.343 145.32 246.453L145.464 246.685C145.526 246.857 145.558 247.018 145.529 247.211C145.5 247.302 145.49 247.384 145.461 247.475C145.391 247.638 145.271 247.801 145.12 247.904C145.01 247.986 144.889 248.048 144.747 248.069C144.616 248.111 144.494 248.122 144.352 248.093C144.22 248.084 144.088 248.025 143.976 247.955C143.844 247.895 143.742 247.795 143.66 247.684L143.516 247.453Z" fill="#F7F1E5"/>
<path d="M141.666 243.44C141.666 243.389 141.665 243.338 141.665 243.288C141.674 243.207 141.704 243.115 141.754 243.064C141.774 243.003 141.804 242.962 141.864 242.931C141.935 242.87 141.985 242.819 142.076 242.798C142.126 242.797 142.187 242.766 142.238 242.766C142.359 242.755 142.46 242.754 142.562 242.803C142.593 242.813 142.633 242.843 142.664 242.853C142.725 242.873 142.766 242.903 142.837 242.942C142.888 242.993 142.929 243.023 142.98 243.073C142.99 243.093 143.001 243.113 143.021 243.103C143.031 243.123 143.072 243.153 143.082 243.173C143.092 243.193 143.092 243.193 143.123 243.203C143.133 243.223 143.144 243.243 143.154 243.264C143.174 243.304 143.205 243.364 143.226 243.405C143.247 243.445 143.247 243.496 143.278 243.556C143.279 243.607 143.279 243.657 143.279 243.708C143.27 243.789 143.25 243.85 143.21 243.921C143.191 243.982 143.15 244.003 143.12 244.044C143.09 244.084 143.05 244.105 142.99 244.136C142.949 244.157 142.889 244.188 142.838 244.188C142.778 244.219 142.696 244.21 142.615 244.2C142.484 244.191 142.382 244.142 142.26 244.102C142.168 244.073 142.097 244.033 142.016 243.973C141.975 243.943 141.964 243.923 141.924 243.893C141.852 243.853 141.791 243.783 141.77 243.692C141.698 243.601 141.687 243.531 141.666 243.44Z" fill="#F7F1E5"/>
<path d="M185.136 239.182C184.876 238.425 184.908 237.544 185.256 236.831C185.644 236.048 186.398 235.383 187.309 235.323C187.36 235.323 187.39 235.333 187.431 235.312C188.027 235.134 188.705 235.118 189.305 235.294C190.716 235.717 191.429 237.259 191.25 238.648C191.06 240.068 189.916 241.314 188.427 241.339C187.06 241.351 185.624 240.534 185.136 239.182Z" fill="#F7F1E5"/>
<path d="M188.536 244.386C189.05 244.097 189.678 244.081 190.068 244.594C190.386 245.017 190.373 245.837 189.859 246.125C189.345 246.414 188.717 246.43 188.327 245.917C188.01 245.495 188.022 244.674 188.536 244.386Z" fill="#F7F1E5"/>
<path d="M193.168 242.398C193.158 242.327 193.127 242.266 193.116 242.196C193.095 242.105 193.114 241.993 193.144 241.902C193.153 241.821 193.183 241.78 193.223 241.708C193.243 241.648 193.293 241.596 193.343 241.545C193.393 241.494 193.443 241.443 193.504 241.412C193.554 241.361 193.625 241.35 193.696 241.339C193.756 241.308 193.827 241.298 193.888 241.317C193.959 241.307 194.02 241.326 194.081 241.346C194.162 241.355 194.203 241.385 194.274 241.425C194.345 241.465 194.407 241.535 194.458 241.585L194.447 241.565C194.458 241.585 194.499 241.615 194.529 241.625C194.559 241.635 194.57 241.655 194.611 241.685C194.641 241.695 194.662 241.735 194.672 241.756C194.682 241.776 194.723 241.806 194.733 241.826L194.836 241.926C194.856 241.967 194.877 242.007 194.908 242.067C194.928 242.108 194.929 242.158 194.95 242.199C194.96 242.269 194.951 242.35 194.931 242.411C194.932 242.462 194.902 242.503 194.872 242.544C194.842 242.584 194.812 242.625 194.782 242.666C194.752 242.707 194.711 242.727 194.671 242.748C194.61 242.779 194.55 242.81 194.479 242.821C194.459 242.831 194.408 242.832 194.388 242.842C194.368 242.852 194.317 242.853 194.297 242.863C194.277 242.873 194.226 242.874 194.196 242.864L194.145 242.864C194.074 242.875 194.034 242.896 193.963 242.907C193.892 242.917 193.831 242.898 193.761 242.909C193.7 242.889 193.639 242.869 193.558 242.86C193.486 242.82 193.446 242.79 193.374 242.75C193.323 242.7 193.272 242.65 193.221 242.6C193.23 242.519 193.199 242.458 193.168 242.398Z" fill="#F7F1E5"/>
<path d="M124.802 139.651C124.725 139.004 124.892 138.385 125.221 137.835C125.571 137.274 126.135 136.935 126.752 136.797C127.388 136.649 128.109 136.815 128.639 137.205C129.159 137.575 129.428 138.149 129.423 138.737C129.527 139.04 129.571 139.373 129.513 139.708C129.32 140.773 128.355 141.572 127.292 141.684C126.735 141.74 126.157 141.603 125.698 141.253C125.198 140.873 124.889 140.268 124.802 139.651Z" fill="#F7F1E5"/>
<path d="M121.703 137.523C121.641 137.352 121.619 137.16 121.627 136.977L121.696 136.713C121.775 136.52 121.885 136.387 122.046 136.254C122.157 136.172 122.298 136.1 122.44 136.078C122.571 136.037 122.713 136.015 122.855 136.044C122.987 136.053 123.119 136.112 123.231 136.182C123.363 136.242 123.465 136.342 123.547 136.453C123.589 136.533 123.64 136.634 123.702 136.704C123.764 136.876 123.786 137.068 123.777 137.251L123.709 137.515C123.63 137.708 123.519 137.84 123.358 137.974C123.248 138.056 123.107 138.128 122.965 138.149C122.834 138.191 122.692 138.213 122.55 138.184C122.418 138.175 122.286 138.115 122.174 138.045C122.042 137.986 121.939 137.886 121.857 137.775C121.806 137.674 121.765 137.594 121.703 137.523Z" fill="#F7F1E5"/>
<path d="M124.895 134.212C125.459 133.872 126.085 134.697 125.52 135.037C124.956 135.376 124.331 134.551 124.895 134.212Z" fill="#F7F1E5"/>
<path d="M195.914 166.447C196.569 164.942 198.213 164.076 199.836 164.415C200.638 164.59 201.371 164.978 201.884 165.632C202.212 166.074 202.399 166.589 202.475 167.135C203.003 168.467 202.561 169.99 201.435 170.922C200.168 171.977 198.273 171.853 197.028 170.862C195.672 169.852 195.249 167.983 195.914 166.447Z" fill="#F7F1E5"/>
<path d="M196.356 173.877C196.346 173.856 196.336 173.836 196.315 173.796C196.305 173.776 196.294 173.756 196.274 173.715C196.263 173.695 196.253 173.675 196.233 173.635C196.222 173.615 196.222 173.615 196.212 173.594L196.202 173.574C196.202 173.574 196.202 173.574 196.191 173.554C196.14 173.453 196.139 173.352 196.138 173.251C196.137 173.2 196.127 173.18 196.147 173.119C196.176 172.977 196.206 172.886 196.296 172.763C196.356 172.682 196.396 172.661 196.426 172.62C196.557 172.528 196.577 172.517 196.719 172.496C196.769 172.495 196.81 172.475 196.86 172.474C196.982 172.463 197.113 172.472 197.245 172.481C197.164 172.471 197.093 172.482 197.012 172.473C197.134 172.462 197.265 172.47 197.367 172.469C197.529 172.488 197.692 172.558 197.844 172.657C197.977 172.768 198.1 172.908 198.162 173.08C198.297 173.392 198.24 173.778 198.029 174.063C197.819 174.349 197.456 174.484 197.101 174.437C196.939 174.418 196.776 174.349 196.643 174.238C196.531 174.169 196.419 174.048 196.356 173.877Z" fill="#F7F1E5"/>
<path d="M194.175 172.348C194.164 172.277 194.174 172.196 194.193 172.135C194.203 172.054 194.223 171.993 194.293 171.931C194.353 171.85 194.423 171.788 194.534 171.757C194.615 171.716 194.716 171.715 194.818 171.714C194.929 171.733 195.001 171.773 195.082 171.833L195.194 171.903C195.276 171.963 195.347 172.053 195.399 172.154C195.409 172.174 195.409 172.174 195.42 172.194C195.44 172.235 195.43 172.265 195.451 172.305C195.452 172.356 195.452 172.407 195.432 172.468C195.422 172.498 195.413 172.528 195.383 172.569C195.363 172.63 195.333 172.671 195.272 172.702C195.252 172.712 195.252 172.712 195.232 172.723C195.141 172.794 195.061 172.836 194.939 172.847C194.889 172.847 194.838 172.848 194.818 172.858C194.717 172.859 194.635 172.85 194.544 172.82C194.453 172.791 194.371 172.731 194.299 172.64C194.217 172.53 194.176 172.449 194.175 172.348Z" fill="#F7F1E5"/>
</svg>
