<svg width="125" height="50" viewBox="0 0 125 50" fill="none" xmlns="http://www.w3.org/2000/svg">
<path d="M60.3517 48.3576V48.6302H49.4784V48.3486L49.7056 48.2577C50.8967 47.8034 51.7327 47.0847 52.1787 46.1397C52.6331 45.1848 52.8602 44.0671 52.8602 42.8305V36.0297C52.8602 35.8661 52.942 35.5654 53.3509 34.575C53.5599 34.1025 53.778 33.6201 54.0051 33.1112L54.4504 32.1018C54.8139 31.3468 55.2417 30.4654 55.6506 29.6922C56.1231 28.81 56.3602 28.4556 56.542 28.3284L56.8509 28.1285V42.8297C56.8509 44.039 57.0781 45.1567 57.5506 46.1389C58.0049 47.112 58.8326 47.8025 60.0692 48.2569L60.3509 48.3568L60.3517 48.3576Z" fill="#4E4138"/>
<path d="M82.035 48.3306V48.5759H70.8701V48.3215L71.2335 48.2034C72.4883 47.7763 73.297 47.094 73.7158 46.1126C74.152 45.1123 74.3791 43.9938 74.3791 42.7762V26.4659C74.3791 25.3383 74.261 24.2652 74.0248 23.2657C73.8067 22.2472 73.416 21.3113 72.879 20.4927C72.3247 19.6741 71.6152 19.0107 70.7792 18.5192C69.9152 18.0286 68.852 17.7741 67.6154 17.7741C65.3876 17.7741 63.4513 18.2376 61.8785 19.1652C60.3057 20.0929 58.8874 21.3295 57.669 22.8568C56.6777 24.1298 55.7418 25.6299 54.8141 27.4208C54.487 28.1849 54.1326 29.1299 53.7138 30.2211L53.4049 31.0389C51.4413 36.276 48.7501 43.4395 44.6859 46.7314C43.7583 47.5045 42.7769 48.0407 41.7766 48.3223C41.1042 48.5132 40.3855 48.5858 39.604 48.5404C38.7582 48.4768 37.9676 48.2769 37.2399 47.9316C35.7216 47.2319 34.4577 45.9317 33.6854 44.2772C33.5127 43.9228 33.3764 43.5494 33.2583 43.1314C33.1402 42.7952 33.0857 42.559 33.0857 42.559C32.8767 41.6768 32.7586 40.8408 32.704 39.9858C32.6768 39.6224 32.6586 39.2217 32.6586 38.8401V17.2372H30.0309V16.0188H32.6677C32.6768 14.8458 32.7222 8.69088 32.6041 7.72771C32.5587 7.30064 32.4496 6.86366 32.2951 6.39116C32.1498 5.955 31.9408 5.60889 31.6591 5.34538C31.3956 5.07195 31.0412 4.94557 30.586 4.94557H29.9863L36.7054 0.0545195L36.7236 16.0196H42.5241V17.238H36.7236L36.7599 40.6946C36.7599 40.7945 36.7599 40.8945 36.7781 41.0035C37.0598 43.5858 38.3509 46.377 41.1421 46.5042C41.2058 46.5042 41.2603 46.5133 41.3239 46.5133C44.2151 46.5133 46.2694 43.5585 47.7514 40.9763C49.5604 37.8216 50.8879 34.3299 52.1699 30.9662L52.3062 30.6209C52.488 30.103 52.6697 29.6024 52.8605 29.139V9.01883C52.8605 8.67354 52.8333 8.28281 52.7606 7.70954C52.7151 7.25521 52.6061 6.80914 52.4516 6.32755C52.3062 5.90957 52.0882 5.56345 51.7883 5.29086C51.4975 5.01826 51.1341 4.89105 50.6607 4.89105H50.0701L56.8437 0V22.12C58.2893 20.3473 60.0348 18.8563 62.0536 17.6924C64.2716 16.4194 66.6448 15.7743 69.0998 15.7743C70.7726 15.7743 72.2091 16.0923 73.3821 16.7292C74.5642 17.3652 75.5364 18.2384 76.2915 19.3114C77.0374 20.4208 77.5917 21.6483 77.9279 22.9659C78.2732 24.3388 78.4458 25.7844 78.4458 27.239V42.7771C78.4458 44.0046 78.673 45.123 79.1273 46.1044C79.5725 47.0866 80.4002 47.7771 81.6641 48.2042L82.0366 48.3314L82.035 48.3306Z" fill="#4E4138"/>
<path d="M28.1221 41.3396C27.6223 42.2581 26.9127 43.0487 26.0132 43.6946C25.1128 44.3489 24.1042 44.8676 23.0039 45.2493C21.9036 45.6309 20.7578 45.9126 19.5948 46.0761C18.4309 46.2488 17.3396 46.3306 16.3674 46.3306C11.9034 46.3306 8.53063 44.3216 6.34821 40.3483C7.17591 39.0481 8.28447 37.9569 9.63919 37.1209C11.0393 36.2478 12.5667 35.5209 14.1759 34.9484C15.7941 34.376 17.4487 33.8845 19.0851 33.5028C20.7306 33.1212 22.2489 32.6941 23.5854 32.239C24.931 31.7846 26.0404 31.2295 26.8855 30.6026C27.7768 29.9483 28.222 29.0752 28.222 28.0294C28.222 26.5111 27.8949 25.0201 27.2399 23.6018C26.5856 22.1925 25.7216 20.9378 24.6576 19.8746C23.5846 18.8107 22.3298 17.9475 20.9206 17.3197C19.5113 16.6828 18.0203 16.3647 16.4929 16.3647C13.9016 16.3647 11.5565 16.7827 9.5285 17.6013C7.49229 18.4282 5.74601 19.5921 4.33677 21.065C2.92752 22.5378 1.83631 24.3469 1.1003 26.4203C0.373376 28.4928 0 30.8297 0 33.3756C0 35.5936 0.399811 37.6851 1.20025 39.6123C2.0007 41.5304 3.11834 43.2486 4.52759 44.6942C5.93683 46.1488 7.62775 47.3037 9.55493 48.1215C11.4821 48.9492 13.5828 49.358 15.7825 49.358C17.0373 49.358 18.3375 49.1854 19.6377 48.8401C20.9379 48.4948 22.1745 47.9761 23.3285 47.3037C24.4742 46.6313 25.5192 45.7945 26.4287 44.8214C27.3472 43.8392 28.0287 42.7216 28.4649 41.5031L28.1196 41.3396H28.1221ZM4.31116 30.7389C4.31116 29.1297 4.58376 27.5206 5.1116 25.9296C5.63862 24.3477 6.41181 22.893 7.40224 21.611C8.3935 20.329 9.59376 19.265 10.984 18.4654C12.366 17.674 13.9388 17.2651 15.657 17.2651C16.7845 17.2651 17.8749 17.4469 18.8753 17.8012C19.8847 18.1556 20.757 18.6744 21.4848 19.3468C22.2208 20.0101 22.8122 20.8287 23.2484 21.7655C23.6845 22.7022 23.9026 23.7653 23.9026 24.9383C23.9026 26.5656 23.5937 27.8749 22.9659 28.8299C22.348 29.7848 21.5112 30.5935 20.4836 31.2213C19.4469 31.8482 18.2656 32.3852 16.9473 32.8122C15.6198 33.2393 14.2651 33.7217 12.9103 34.2306C11.5556 34.7485 10.2191 35.4036 8.94613 36.1759C7.75497 36.9037 6.69184 37.9032 5.78236 39.158C4.80927 36.503 4.30951 33.6664 4.30951 30.7389H4.31116Z" fill="#4E4138"/>
<path d="M88.3419 10.1413C89.0275 10.7856 89.5207 11.4878 89.8082 12.2287L89.9965 12.7136L90.17 12.2238C90.4178 11.5233 90.9018 10.8104 91.6073 10.1041C92.3136 9.39868 93.0265 8.91544 93.7261 8.66762L94.1697 8.5115L93.7435 8.31077C93.0322 7.97622 92.3111 7.47728 91.5999 6.82801C90.8985 6.1903 90.4178 5.49146 90.1708 4.75132L90.0081 4.26477L89.809 4.7381C89.4777 5.5245 88.9837 6.22829 88.3403 6.82966C87.691 7.43763 86.9798 7.93657 86.2264 8.31242L85.8704 8.49085L86.2305 8.66019C86.9401 8.99474 87.6497 9.49285 88.3403 10.1413H88.3419Z" fill="#4E4138"/>
<path d="M95.6446 48.3941V48.6304H84.744V48.4032L85.2256 48.2578C86.4077 47.8853 87.2073 47.2393 87.5898 46.3397C87.9805 45.403 88.1804 44.3308 88.1804 43.1578V24.2742C88.1804 23.938 88.1622 23.5465 88.1168 23.1012C88.0804 22.6651 87.9896 22.2372 87.8442 21.8283C87.6988 21.4285 87.4989 21.0915 87.2445 20.837C86.9991 20.5917 86.672 20.4736 86.2532 20.4736H85.6353L92.2446 15.846V43.1569C92.2446 44.3299 92.4536 45.3931 92.8715 46.3298C93.2713 47.2393 94.0627 47.8935 95.1994 48.257L95.6446 48.3933V48.3941Z" fill="#4E4138"/>
<path d="M124.511 45.5394C123.82 46.1119 123.011 46.3944 122.119 46.3944C121.028 46.3944 120.328 46.0219 119.974 45.2578C119.601 44.4482 119.411 43.5487 119.411 42.5937V26.4197C119.411 23.0742 118.638 20.5283 117.11 18.8464C115.574 17.1555 113.073 16.3005 109.682 16.3005C108.773 16.3005 107.637 16.4732 106.319 16.8185C105 17.1638 103.718 17.6635 102.51 18.2913C101.291 18.9191 100.236 19.6915 99.364 20.5828C98.4727 21.4923 98.0184 22.5463 98.0184 23.7102C98.0184 24.3917 98.2183 25.0195 98.5999 25.5647C98.9997 26.1289 99.6093 26.4197 100.4 26.4197C102.127 26.4197 103.046 25.5284 103.046 23.8374C103.046 23.3558 102.991 22.8916 102.882 22.4373C102.773 22.0284 102.719 21.5922 102.719 21.1371C102.719 20.4556 102.937 19.9096 103.373 19.4643C103.827 19.01 104.4 18.6283 105.064 18.3095C105.727 18.0006 106.437 17.7734 107.173 17.6553C107.909 17.528 108.555 17.4644 109.1 17.4644C110.055 17.4644 110.909 17.6553 111.655 18.0559C112.4 18.4466 113.055 18.9836 113.591 19.6469C114.136 20.3102 114.555 21.0743 114.846 21.9103C115.137 22.747 115.291 23.6103 115.291 24.4834C115.291 24.5834 115.255 24.7923 115.073 25.2202C114.928 25.5746 114.81 25.8472 114.728 26.0199C114.183 27.1838 113.364 28.1387 112.282 28.8656C111.181 29.6115 109.954 30.2748 108.636 30.8473C107.318 31.4206 105.945 31.9839 104.554 32.5201C103.145 33.0652 101.854 33.7021 100.717 34.4109C99.5622 35.1205 98.6082 36.0109 97.8622 37.0385C97.108 38.0752 96.7256 39.4209 96.7256 41.0482C96.7256 42.3211 96.9891 43.4578 97.4897 44.421C97.9985 45.3841 98.6808 46.2118 99.5441 46.876C100.399 47.5302 101.371 48.0399 102.435 48.3852C103.499 48.7305 104.635 48.9122 105.817 48.9122C107.599 48.9122 109.29 48.576 110.854 47.93C112.417 47.2758 113.79 46.2391 114.927 44.839L115.481 44.1484C115.508 44.421 115.545 44.6845 115.581 44.9389C115.69 45.6939 115.917 46.3663 116.244 46.9479C116.59 47.5302 117.072 48.0118 117.708 48.3662C118.335 48.7296 119.145 48.9114 120.118 48.9114C120.572 48.9114 121.045 48.8296 121.536 48.6751C122.018 48.5207 122.491 48.2935 122.936 48.0118C123.372 47.721 123.773 47.384 124.1 47.0115C124.709 46.3118 125 45.1388 125 45.1388L124.51 45.5386L124.511 45.5394ZM114.655 44.5664C113.691 45.285 112.61 45.8847 111.446 46.3481C110.291 46.8116 109.091 47.0387 107.882 47.0387C105.964 47.0387 104.4 46.4564 103.246 45.2933C102.082 44.1294 101.5 42.5747 101.5 40.6567C101.5 39.2383 101.773 38.0472 102.31 37.1195C102.855 36.1745 103.564 35.3468 104.419 34.6554C105.292 33.9648 106.273 33.3552 107.346 32.8463C108.428 32.3375 109.519 31.7915 110.583 31.2281C111.637 30.6738 112.637 30.0097 113.574 29.2737C114.31 28.6921 114.928 27.9916 115.419 27.1829V42.5929C115.419 43.0654 115.437 43.5206 115.474 43.9658L114.655 44.5655V44.5664Z" fill="#4E4138"/>
</svg>
