<svg width="48" height="48" viewBox="0 0 48 48" fill="none" xmlns="http://www.w3.org/2000/svg">
<path d="M12.2651 44L15.5869 41.9857H28.0304C29.6753 41.9273 31.2681 41.2359 32.4645 40.0607L43.1325 29.5823C44.2435 28.491 44.2941 26.7712 43.2454 25.7412C42.1967 24.7111 40.4459 24.7608 39.3348 25.8521C39.3348 25.8521 31.6826 33.2059 31.6853 33.1136C31.7295 31.6099 30.5242 30.4261 28.9934 30.4695H17.3801C15.1696 30.5322 13.0243 31.7844 11.4161 33.364L4 40.6484" stroke="#303C30" stroke-miterlimit="10" stroke-linecap="round" stroke-linejoin="round"/>
<path d="M32 33C31.9538 34.6103 30.62 35.9535 29.0208 36H20" stroke="#303C30" stroke-miterlimit="10" stroke-linecap="round" stroke-linejoin="round"/>
<path d="M24 14V25" stroke="#303C30" stroke-miterlimit="10" stroke-linecap="round" stroke-linejoin="round"/>
<path d="M27 17L24 20L21 17" stroke="#303C30" stroke-miterlimit="10" stroke-linecap="round" stroke-linejoin="round"/>
<path d="M26 11L24 14L22 11" stroke="#303C30" stroke-miterlimit="10" stroke-linecap="round" stroke-linejoin="round"/>
<path d="M32 15.3457V15.9259C32 19.8329 28.4183 23 24 23C19.5817 23 16 19.8329 16 15.9259V15.3457C16 9.95753 24 4 24 4C24 4 32 9.95753 32 15.3457Z" stroke="#303C30" stroke-miterlimit="10" stroke-linecap="round" stroke-linejoin="round"/>
</svg>
