<svg width="48" height="48" viewBox="0 0 48 48" fill="none" xmlns="http://www.w3.org/2000/svg">
<mask id="mask0_132_2316" style="mask-type:luminance" maskUnits="userSpaceOnUse" x="2" y="2" width="44" height="44">
<path d="M2.5 45.5001V2.5H45.5001V45.5001H2.5Z" fill="white" stroke="#303C30"/>
</mask>
<g mask="url(#mask0_132_2316)">
<mask id="mask1_132_2316" style="mask-type:luminance" maskUnits="userSpaceOnUse" x="2" y="2" width="45" height="45">
<path d="M45.5008 45.5004V2.50031H2.50073V45.5004H45.5008Z" fill="white" stroke="white"/>
</mask>
<g mask="url(#mask1_132_2316)">
<path d="M41.3748 13.9771C41.3531 13.5008 41.3409 13.0339 41.334 12.5725C41.308 10.8129 39.9237 9.37695 38.1667 9.27881C32.7931 8.97863 28.5906 7.19121 25.0409 3.73128C24.4469 3.18678 23.5559 3.18678 22.9619 3.73128C19.4122 7.19121 15.2097 8.97863 9.8361 9.27881C8.0791 9.37695 6.69482 10.8129 6.66869 12.5724C6.6619 13.0339 6.6497 13.5008 6.62804 13.9771C6.43056 24.3466 6.1345 38.5583 23.3821 44.5724C23.4645 44.6012 23.5493 44.6242 23.6349 44.6413L23.6358 44.6415C23.8772 44.6897 24.1256 44.6897 24.367 44.6415C24.4531 44.6243 24.5386 44.6011 24.6215 44.5721C41.8191 38.5579 41.5723 24.3958 41.3748 13.9771Z" stroke="#303C30" stroke-miterlimit="10"/>
<path d="M33.6607 24.0004C33.6607 29.3355 29.3357 33.6605 24.0007 33.6605C18.6656 33.6605 14.3406 29.3355 14.3406 24.0004C14.3406 18.6652 18.6656 14.3402 24.0007 14.3402C29.3357 14.3402 33.6607 18.6652 33.6607 24.0004Z" stroke="#303C30" stroke-miterlimit="10"/>
<path d="M28.0594 21.5122L22.0623 27.5093" stroke="#303C30" stroke-miterlimit="10" stroke-linecap="round"/>
<path d="M19.7703 25.2179L22.062 27.5096" stroke="#303C30" stroke-miterlimit="10" stroke-linecap="round"/>
</g>
</g>
</svg>
