<svg width="48" height="48" viewBox="0 0 48 48" fill="none" xmlns="http://www.w3.org/2000/svg">
<path d="M36.233 7.98119C41.6827 11.8269 45.2424 18.1727 45.2424 25.3503C45.2424 37.0831 35.7314 46.594 23.9986 46.594C12.2658 46.594 2.75488 37.0831 2.75488 25.3503C2.75488 18.1727 6.31457 11.8269 11.7643 7.98119" stroke="#303C30" stroke-miterlimit="10" stroke-linecap="round" stroke-linejoin="round"/>
<path d="M35.3719 33.5581C35.3719 37.8818 30.2811 41.3866 23.9998 41.3866C17.7184 41.3866 12.6259 37.8818 12.6259 33.5581C12.6259 32.3235 13.0406 31.1556 13.78 30.1175C14.2328 29.4819 14.5878 28.7807 14.7808 28.0256C14.7878 28.0023 14.7929 27.9789 14.7991 27.9555C15.373 25.585 17.231 23.6024 19.7418 22.5349C21.0198 21.9911 22.4665 21.6847 23.9998 21.6847C25.5322 21.6847 26.9798 21.9911 28.2569 22.5349C30.7669 23.6024 32.6248 25.585 33.1988 27.9555C33.2049 27.9798 33.2101 28.0032 33.2171 28.0266C33.41 28.7807 33.7642 29.4811 34.217 30.1157C34.9564 31.1546 35.3719 32.3226 35.3719 33.5581Z" stroke="#303C30" stroke-miterlimit="10" stroke-linecap="round" stroke-linejoin="round"/>
<path d="M19.7421 22.5348C17.2314 23.6023 15.3733 25.5849 14.7994 27.9554C14.7933 27.9788 14.7881 28.0022 14.7812 28.0255C13.8271 26.6455 12.9673 24.6949 12.4098 22.4551C11.2331 17.7374 11.8392 13.5236 13.7613 13.0447C15.6842 12.5651 18.1958 16.0023 19.3716 20.72C19.5249 21.3356 19.6487 21.9434 19.7421 22.5348Z" stroke="#303C30" stroke-miterlimit="10" stroke-linecap="round" stroke-linejoin="round"/>
<path d="M35.5893 22.4552C35.0309 24.695 34.172 26.6465 33.2171 28.0266C33.2101 28.0033 33.2049 27.9798 33.1989 27.9555C32.6249 25.5851 30.7669 23.6024 28.257 22.5349C28.3504 21.9435 28.4742 21.3358 28.6275 20.7201C29.8033 16.0024 32.3149 12.5653 34.2378 13.0449C36.1599 13.5237 36.766 17.7375 35.5893 22.4552Z" stroke="#303C30" stroke-miterlimit="10" stroke-linecap="round" stroke-linejoin="round"/>
<path d="M23.9998 41.3866V37.9489" stroke="#303C30" stroke-miterlimit="10" stroke-linecap="round" stroke-linejoin="round"/>
<path d="M19.8427 32.228C19.8427 33.0047 19.213 33.6342 18.4364 33.6342C17.6598 33.6342 17.0302 33.0047 17.0302 32.228C17.0302 31.4513 17.6598 30.8217 18.4364 30.8217C19.213 30.8217 19.8427 31.4513 19.8427 32.228Z" fill="#303C30"/>
<path d="M28.1573 32.2279C28.1573 33.0046 28.787 33.6342 29.5636 33.6342C30.3402 33.6342 30.9698 33.0046 30.9698 32.2279C30.9698 31.4513 30.3402 30.8217 29.5636 30.8217C28.787 30.8217 28.1573 31.4513 28.1573 32.2279Z" fill="#303C30"/>
<path d="M22.4238 36.0525C23.3927 36.9373 24.6063 36.9373 25.5753 36.0525" stroke="#303C30" stroke-miterlimit="10" stroke-linecap="round" stroke-linejoin="round"/>
<path d="M30.297 8.16278L23.9986 14.4612L17.7003 8.16287C16.1546 6.61731 16.1546 4.11128 17.7003 2.56581C19.2458 1.02024 21.7518 1.02015 23.2973 2.56581L23.9986 3.26696L24.6999 2.56571C26.2455 1.02015 28.7514 1.02015 30.297 2.56571C31.8425 4.11128 31.8425 6.61731 30.297 8.16278Z" stroke="#303C30" stroke-miterlimit="10" stroke-linecap="round" stroke-linejoin="round"/>
</svg>
