<svg width="15" height="15" viewBox="0 0 15 15" fill="none" xmlns="http://www.w3.org/2000/svg">
<g clip-path="url(#clip0_132_2023)">
<path d="M7.5 4.375H4.6875C4.2731 4.375 3.87567 4.21038 3.58265 3.91735C3.28962 3.62433 3.125 3.2269 3.125 2.8125C3.125 2.3981 3.28962 2.00067 3.58265 1.70765C3.87567 1.41462 4.2731 1.25 4.6875 1.25C6.875 1.25 7.5 4.375 7.5 4.375ZM7.5 4.375H10.3125C10.7269 4.375 11.1243 4.21038 11.4174 3.91735C11.7104 3.62433 11.875 3.2269 11.875 2.8125C11.875 2.3981 11.7104 2.00067 11.4174 1.70765C11.1243 1.41462 10.7269 1.25 10.3125 1.25C8.125 1.25 7.5 4.375 7.5 4.375ZM7.5 4.375L7.5 13.75M1.25 8.75H13.75M1.25 6.375L1.25 11.75C1.25 12.4501 1.25 12.8001 1.38624 13.0675C1.50608 13.3027 1.69731 13.4939 1.93251 13.6138C2.1999 13.75 2.54993 13.75 3.25 13.75L11.75 13.75C12.4501 13.75 12.8001 13.75 13.0675 13.6138C13.3027 13.4939 13.4939 13.3027 13.6138 13.0675C13.75 12.8001 13.75 12.4501 13.75 11.75V6.375C13.75 5.67494 13.75 5.3249 13.6138 5.05751C13.4939 4.82231 13.3027 4.63108 13.0675 4.51124C12.8001 4.375 12.4501 4.375 11.75 4.375L3.25 4.375C2.54993 4.375 2.1999 4.375 1.93251 4.51124C1.69731 4.63108 1.50608 4.82231 1.38624 5.05751C1.25 5.3249 1.25 5.67493 1.25 6.375Z" stroke="#EDE7DA" stroke-linecap="round" stroke-linejoin="round"/>
</g>
<defs>
<clipPath id="clip0_132_2023">
<rect width="15" height="15" fill="white"/>
</clipPath>
</defs>
</svg>
