<svg width="120" height="61" viewBox="0 0 120 61" fill="none" xmlns="http://www.w3.org/2000/svg">
<path d="M32.377 27.3184H19.857V31.0334H28.737C28.297 36.2334 23.964 38.4654 19.872 38.4654C18.5757 38.4711 17.2912 38.2185 16.0936 37.7223C14.8959 37.2262 13.8092 36.4964 12.8967 35.5756C11.9842 34.6548 11.2642 33.5615 10.7789 32.3594C10.2936 31.1573 10.0526 29.8706 10.07 28.5744C10.07 22.9504 14.424 18.6204 19.884 18.6204C24.096 18.6204 26.578 21.3054 26.578 21.3054L29.178 18.6114C29.178 18.6114 25.838 14.8944 19.748 14.8944C11.993 14.8944 5.99402 21.4394 5.99402 28.5084C5.99402 35.4354 11.637 42.1904 19.944 42.1904C27.251 42.1904 32.6 37.1844 32.6 29.7824C32.6 28.2204 32.373 27.3184 32.373 27.3184H32.377Z" fill="#4E4138"/>
<path d="M42.634 24.6274C37.496 24.6274 33.814 28.6444 33.814 33.3274C33.814 38.0814 37.384 42.1724 42.694 42.1724C47.5 42.1724 51.437 38.4994 51.437 33.4294C51.437 27.6294 46.857 24.6264 42.634 24.6264V24.6274ZM42.684 28.0734C45.21 28.0734 47.604 30.1164 47.604 33.4074C47.604 36.6274 45.22 38.7294 42.672 38.7294C39.872 38.7294 37.672 36.4874 37.672 33.3814C37.672 30.3414 39.852 28.0734 42.692 28.0734H42.684Z" fill="#4E4138"/>
<path d="M61.815 24.6274C56.677 24.6274 52.995 28.6444 52.995 33.3274C52.995 38.0814 56.565 42.1724 61.875 42.1724C66.681 42.1724 70.618 38.4994 70.618 33.4294C70.618 27.6294 66.038 24.6264 61.815 24.6264V24.6274ZM61.865 28.0734C64.391 28.0734 66.785 30.1164 66.785 33.4074C66.785 36.6274 64.401 38.7294 61.853 38.7294C59.053 38.7294 56.853 36.4874 56.853 33.3814C56.853 30.3414 59.033 28.0734 61.873 28.0734H61.865Z" fill="#4E4138"/>
<path d="M80.628 24.6375C75.912 24.6375 72.206 28.7674 72.206 33.4035C72.206 38.6835 76.503 42.1855 80.546 42.1855C83.046 42.1855 84.376 41.1925 85.346 40.0535V41.7835C85.346 44.8105 83.508 46.6235 80.734 46.6235C78.054 46.6235 76.71 44.6304 76.234 43.5005L72.862 44.9005C74.058 47.4305 76.466 50.0675 80.762 50.0675C85.462 50.0675 89.024 47.1145 89.024 40.9205V25.1645H85.36V26.6505C84.23 25.4305 82.682 24.6375 80.63 24.6375H80.628ZM80.968 28.0775C83.28 28.0775 85.654 30.0515 85.654 33.4225C85.654 36.8495 83.284 38.7375 80.917 38.7375C78.403 38.7375 76.064 36.6975 76.064 33.4545C76.064 30.0865 78.494 28.0775 80.968 28.0775Z" fill="#4E4138"/>
<path d="M105.4 24.6164C100.952 24.6164 97.217 28.1564 97.217 33.3764C97.217 38.9024 101.38 42.1794 105.817 42.1794C109.529 42.1794 111.817 40.1494 113.167 38.3294L110.134 36.3114C109.347 37.5314 108.031 38.7264 105.836 38.7264C103.37 38.7264 102.236 37.3764 101.533 36.0664L113.296 31.1864L112.696 29.7564C111.56 26.9564 108.908 24.6164 105.4 24.6164ZM105.553 27.9904C107.156 27.9904 108.309 28.8424 108.799 29.8644L100.943 33.1474C100.603 30.6054 103.013 27.9904 105.543 27.9904H105.553Z" fill="#4E4138"/>
<path d="M91.6 41.6594H95.464V15.8024H91.6V41.6594Z" fill="#4E4138"/>
</svg>
