<svg width="18" height="18" viewBox="0 0 18 18" fill="none" xmlns="http://www.w3.org/2000/svg">
<path fill-rule="evenodd" clip-rule="evenodd" d="M4.96724 0H13.0325C15.7717 0 18.0001 2.22841 18 4.96735V13.0327C18 15.7716 15.7717 18 13.0325 18H4.96724C2.22831 18 0 15.7717 0 13.0327V4.96735C0 2.22841 2.22831 0 4.96724 0ZM13.0323 16.4031C14.8907 16.4031 16.4027 14.8912 16.4027 13.0328H16.4026V4.96747C16.4026 3.10915 14.8906 1.59717 13.0322 1.59717H4.96688C3.10855 1.59717 1.59668 3.10915 1.59668 4.96747V13.0328C1.59668 14.8912 3.10855 16.4032 4.96688 16.4031H13.0323ZM4.28613 9.00004C4.28613 6.40048 6.40092 4.28564 9.00042 4.28564C11.5999 4.28564 13.7147 6.40048 13.7147 9.00004C13.7147 11.5995 11.5999 13.7142 9.00042 13.7142C6.40092 13.7142 4.28613 11.5995 4.28613 9.00004ZM5.90898 9C5.90898 10.7044 7.29568 12.0909 9 12.0909C10.7043 12.0909 12.091 10.7044 12.091 9C12.091 7.29553 10.7044 5.90891 9 5.90891C7.29557 5.90891 5.90898 7.29553 5.90898 9Z" fill="#4E4138"/>
</svg>
