<svg width="32" height="33" viewBox="0 0 32 33" fill="none" xmlns="http://www.w3.org/2000/svg">
<path d="M21.3328 11.1667C21.3328 12.5812 20.7709 13.9377 19.7707 14.9379C18.7705 15.9381 17.414 16.5 15.9995 16.5C14.585 16.5 13.2284 15.9381 12.2283 14.9379C11.2281 13.9377 10.6662 12.5812 10.6662 11.1667M4.84378 10.3685L3.91045 21.5685C3.70995 23.9745 3.6097 25.1776 4.0164 26.1056C4.37374 26.9209 4.99286 27.5938 5.77574 28.0176C6.66679 28.5 7.87397 28.5 10.2883 28.5H21.7106C24.125 28.5 25.3322 28.5 26.2232 28.0176C27.0061 27.5938 27.6252 26.9209 27.9826 26.1056C28.3893 25.1776 28.289 23.9745 28.0885 21.5685L27.1552 10.3685C26.9827 8.29833 26.8964 7.26325 26.438 6.47981C26.0343 5.78992 25.4332 5.2368 24.7121 4.89179C23.8933 4.5 22.8547 4.5 20.7773 4.5L11.2217 4.5C9.14432 4.5 8.10565 4.5 7.28685 4.89179C6.56582 5.2368 5.96469 5.78992 5.56099 6.47981C5.10256 7.26324 5.0163 8.29833 4.84378 10.3685Z" stroke="#151A15" stroke-linecap="round" stroke-linejoin="round"/>
</svg>
