<svg width="14" height="14" viewBox="0 0 14 14" fill="none" xmlns="http://www.w3.org/2000/svg">
<path d="M11.5868 7.46464C11.5871 7.46455 11.5874 7.46447 11.5877 7.46438L13.1563 7.01516L11.5877 6.56594C11.5874 6.56585 11.5871 6.56577 11.5868 6.56568C10.6002 6.28675 9.70153 5.75884 8.9768 5.03254C8.25207 4.30625 7.72549 3.40586 7.4473 2.41754C7.44722 2.41725 7.44714 2.41696 7.44706 2.41667L7 0.848883L6.55294 2.41667C6.55287 2.41694 6.55279 2.4172 6.55272 2.41747C6.27453 3.40582 5.74794 4.30623 5.0232 5.03254C4.29847 5.75885 3.39983 6.28676 2.41317 6.56569C2.41288 6.56577 2.41258 6.56585 2.41229 6.56594L0.84371 7.01516L2.41229 7.46438C2.41259 7.46447 2.41289 7.46455 2.41319 7.46464C3.39984 7.74357 4.29847 8.27148 5.0232 8.99777C5.74795 9.72409 6.27454 10.6245 6.55272 11.6129C6.5528 11.6131 6.55287 11.6134 6.55294 11.6136L7 13.1814L7.44706 11.6136C7.44713 11.6134 7.44721 11.6131 7.44729 11.6128C7.72547 10.6245 8.25206 9.72408 8.9768 8.99777C9.70153 8.27148 10.6002 7.74357 11.5868 7.46464Z" stroke="#4E4138"/>
</svg>
