<svg width="64" height="13" viewBox="0 0 64 13" fill="none" xmlns="http://www.w3.org/2000/svg">
<path d="M11.5302 7.06096L9.84377 7.54394C9.08431 7.75851 8.39251 8.16482 7.83456 8.72398C7.2766 9.28314 6.87117 9.97645 6.65706 10.7375L6.17513 12.4277C6.15089 12.4868 6.10966 12.5374 6.05667 12.573C6.00369 12.6086 5.94134 12.6276 5.87755 12.6276C5.81376 12.6276 5.75142 12.6086 5.69843 12.573C5.64544 12.5374 5.60421 12.4868 5.57998 12.4277L5.09804 10.7375C4.88393 9.97645 4.4785 9.28314 3.92055 8.72398C3.36259 8.16482 2.67079 7.75851 1.91133 7.54394L0.224867 7.06096C0.160112 7.04254 0.10312 7.00346 0.0625386 6.94964C0.0219566 6.89582 0 6.8302 0 6.76274C0 6.69528 0.0219566 6.62966 0.0625386 6.57585C0.10312 6.52203 0.160112 6.48294 0.224867 6.46452L1.91133 5.98154C2.67079 5.76697 3.36259 5.36066 3.92055 4.8015C4.4785 4.24234 4.88393 3.54904 5.09804 2.78793L5.57998 1.09782C5.59836 1.03292 5.63736 0.975805 5.69106 0.935136C5.74476 0.894466 5.81024 0.872462 5.87755 0.872462C5.94486 0.872462 6.01034 0.894466 6.06404 0.935136C6.11775 0.975805 6.15675 1.03292 6.17513 1.09782L6.65706 2.78793C6.87117 3.54904 7.2766 4.24234 7.83456 4.8015C8.39251 5.36066 9.08431 5.76697 9.84377 5.98154L11.5302 6.46452C11.595 6.48294 11.652 6.52203 11.6926 6.57585C11.7331 6.62966 11.7551 6.69528 11.7551 6.76274C11.7551 6.8302 11.7331 6.89582 11.6926 6.94964C11.652 7.00346 11.595 7.04254 11.5302 7.06096Z" fill="#E6954A"/>
<path d="M24.5915 7.06096L22.905 7.54394C22.1455 7.75851 21.4537 8.16482 20.8958 8.72398C20.3378 9.28314 19.9324 9.97645 19.7183 10.7375L19.2363 12.4277C19.2121 12.4868 19.1709 12.5374 19.1179 12.573C19.0649 12.6086 19.0026 12.6276 18.9388 12.6276C18.875 12.6276 18.8126 12.6086 18.7596 12.573C18.7067 12.5374 18.6654 12.4868 18.6412 12.4277L18.1593 10.7375C17.9451 9.97645 17.5397 9.28314 16.9818 8.72398C16.4238 8.16482 15.732 7.75851 14.9725 7.54394L13.2861 7.06096C13.2213 7.04254 13.1643 7.00346 13.1238 6.94964C13.0832 6.89582 13.0612 6.8302 13.0612 6.76274C13.0612 6.69528 13.0832 6.62966 13.1238 6.57585C13.1643 6.52203 13.2213 6.48294 13.2861 6.46452L14.9725 5.98154C15.732 5.76697 16.4238 5.36066 16.9818 4.8015C17.5397 4.24234 17.9451 3.54904 18.1593 2.78793L18.6412 1.09782C18.6596 1.03292 18.6986 0.975805 18.7523 0.935136C18.806 0.894466 18.8715 0.872462 18.9388 0.872462C19.0061 0.872462 19.0716 0.894466 19.1253 0.935136C19.179 0.975805 19.218 1.03292 19.2363 1.09782L19.7183 2.78793C19.9324 3.54904 20.3378 4.24234 20.8958 4.8015C21.4537 5.36066 22.1455 5.76697 22.905 5.98154L24.5915 6.46452C24.6562 6.48294 24.7132 6.52203 24.7538 6.57585C24.7944 6.62966 24.8163 6.69528 24.8163 6.76274C24.8163 6.8302 24.7944 6.89582 24.7538 6.94964C24.7132 7.00346 24.6562 7.04254 24.5915 7.06096Z" fill="#E6954A"/>
<path d="M37.6527 7.06096L35.9662 7.54394C35.2067 7.75851 34.5149 8.16482 33.957 8.72398C33.399 9.28314 32.9936 9.97645 32.7795 10.7375L32.2976 12.4277C32.2733 12.4868 32.2321 12.5374 32.1791 12.573C32.1261 12.6086 32.0638 12.6276 32 12.6276C31.9362 12.6276 31.8739 12.6086 31.8209 12.573C31.7679 12.5374 31.7267 12.4868 31.7024 12.4277L31.2205 10.7375C31.0064 9.97645 30.6009 9.28314 30.043 8.72398C29.485 8.16482 28.7932 7.75851 28.0338 7.54394L26.3473 7.06096C26.2825 7.04254 26.2256 7.00346 26.185 6.94964C26.1444 6.89582 26.1224 6.8302 26.1224 6.76274C26.1224 6.69528 26.1444 6.62966 26.185 6.57585C26.2256 6.52203 26.2825 6.48294 26.3473 6.46452L28.0338 5.98154C28.7932 5.76697 29.485 5.36066 30.043 4.8015C30.6009 4.24234 31.0064 3.54904 31.2205 2.78793L31.7024 1.09782C31.7208 1.03292 31.7598 0.975805 31.8135 0.935136C31.8672 0.894466 31.9327 0.872462 32 0.872462C32.0673 0.872462 32.1328 0.894466 32.1865 0.935136C32.2402 0.975805 32.2792 1.03292 32.2976 1.09782L32.7795 2.78793C32.9936 3.54904 33.399 4.24234 33.957 4.8015C34.5149 5.36066 35.2067 5.76697 35.9662 5.98154L37.6527 6.46452C37.7174 6.48294 37.7744 6.52203 37.815 6.57585C37.8556 6.62966 37.8775 6.69528 37.8775 6.76274C37.8775 6.8302 37.8556 6.89582 37.815 6.94964C37.7744 7.00346 37.7174 7.04254 37.6527 7.06096Z" fill="#E6954A"/>
<path d="M50.7139 7.06096L49.0274 7.54394C48.268 7.75851 47.5762 8.16482 47.0182 8.72398C46.4603 9.28314 46.0548 9.97645 45.8407 10.7375L45.3588 12.4277C45.3345 12.4868 45.2933 12.5374 45.2403 12.573C45.1873 12.6086 45.125 12.6276 45.0612 12.6276C44.9974 12.6276 44.9351 12.6086 44.8821 12.573C44.8291 12.5374 44.7879 12.4868 44.7636 12.4277L44.2817 10.7375C44.0676 9.97645 43.6622 9.28314 43.1042 8.72398C42.5462 8.16482 41.8544 7.75851 41.095 7.54394L39.4085 7.06096C39.3438 7.04254 39.2868 7.00346 39.2462 6.94964C39.2056 6.89582 39.1837 6.8302 39.1837 6.76274C39.1837 6.69528 39.2056 6.62966 39.2462 6.57585C39.2868 6.52203 39.3438 6.48294 39.4085 6.46452L41.095 5.98154C41.8544 5.76697 42.5462 5.36066 43.1042 4.8015C43.6622 4.24234 44.0676 3.54904 44.2817 2.78793L44.7636 1.09782C44.782 1.03292 44.821 0.975805 44.8747 0.935136C44.9284 0.894466 44.9939 0.872462 45.0612 0.872462C45.1285 0.872462 45.194 0.894466 45.2477 0.935136C45.3014 0.975805 45.3404 1.03292 45.3588 1.09782L45.8407 2.78793C46.0548 3.54904 46.4603 4.24234 47.0182 4.8015C47.5762 5.36066 48.268 5.76697 49.0274 5.98154L50.7139 6.46452C50.7786 6.48294 50.8356 6.52203 50.8762 6.57585C50.9168 6.62966 50.9388 6.69528 50.9388 6.76274C50.9388 6.8302 50.9168 6.89582 50.8762 6.94964C50.8356 7.00346 50.7786 7.04254 50.7139 7.06096Z" fill="#E6954A"/>
<path d="M63.7751 7.06096L62.0886 7.54394C61.3292 7.75851 60.6374 8.16482 60.0794 8.72398C59.5215 9.28314 59.116 9.97645 58.9019 10.7375L58.42 12.4277C58.3958 12.4868 58.3545 12.5374 58.3015 12.573C58.2486 12.6086 58.1862 12.6276 58.1224 12.6276C58.0586 12.6276 57.9963 12.6086 57.9433 12.573C57.8903 12.5374 57.8491 12.4868 57.8248 12.4277L57.3429 10.7375C57.1288 9.97645 56.7234 9.28314 56.1654 8.72398C55.6075 8.16482 54.9157 7.75851 54.1562 7.54394L52.4697 7.06096C52.405 7.04254 52.348 7.00346 52.3074 6.94964C52.2668 6.89582 52.2449 6.8302 52.2449 6.76274C52.2449 6.69528 52.2668 6.62966 52.3074 6.57585C52.348 6.52203 52.405 6.48294 52.4697 6.46452L54.1562 5.98154C54.9157 5.76697 55.6075 5.36066 56.1654 4.8015C56.7234 4.24234 57.1288 3.54904 57.3429 2.78793L57.8248 1.09782C57.8432 1.03292 57.8822 0.975805 57.9359 0.935136C57.9896 0.894466 58.0551 0.872462 58.1224 0.872462C58.1897 0.872462 58.2552 0.894466 58.3089 0.935136C58.3626 0.975805 58.4016 1.03292 58.42 1.09782L58.9019 2.78793C59.116 3.54904 59.5215 4.24234 60.0794 4.8015C60.6374 5.36066 61.3292 5.76697 62.0886 5.98154L63.7751 6.46452C63.8399 6.48294 63.8969 6.52203 63.9374 6.57585C63.978 6.62966 64 6.69528 64 6.76274C64 6.8302 63.978 6.89582 63.9374 6.94964C63.8969 7.00346 63.8399 7.04254 63.7751 7.06096Z" fill="#E6954A"/>
</svg>
