<?xml version="1.0" standalone="no"?>
<!DOCTYPE svg PUBLIC "-//W3C//DTD SVG 1.1//EN" "http://www.w3.org/Graphics/SVG/1.1/DTD/svg11.dtd" >
<svg xmlns="http://www.w3.org/2000/svg" xmlns:xlink="http://www.w3.org/1999/xlink" version="1.1">
<metadata>
Created by FontForge 20201107 at Mon Nov  9 20:36:09 2020
 By 
Sans &#38; Sons
</metadata>
<defs>
<font id="Branch-Regular" horiz-adv-x="153" >
  <font-face 
    font-family="Branch"
    font-weight="400"
    font-stretch="normal"
    units-per-em="1000"
    panose-1="0 0 0 0 0 0 0 0 0 0"
    ascent="700"
    descent="-300"
    x-height="350"
    cap-height="490"
    bbox="-102 -218 964 682"
    underline-thickness="50"
    underline-position="-125"
    unicode-range="U+000D-E02E"
  />
<missing-glyph horiz-adv-x="175" 
 />
    <glyph glyph-name="uniE015" unicode="ab" horiz-adv-x="701" 
d="M104 -4q-35 0 -63 19.5t-28 58.5q0 40 22 62.5t53.5 34.5t67.5 17.5t64 11.5q0 20 -0.5 44.5t-7 47t-21 37.5t-43.5 15q-9 0 -21.5 -2t-24 -7t-19 -13t-7.5 -20q0 -8 2 -15t2 -15q0 -27 -27 -27q-12 0 -18 8.5t-6 19.5q0 18 14 33t34 25.5t41 16t36 5.5q37 0 58 -11
t31 -30t12.5 -45.5t2.5 -56.5q28 9 54 20.5t50 27.5v170q0 13 -4.5 30.5t-21.5 17.5l64 50v-238q34 26 64 46t76 20q33 0 58 -14t41.5 -37.5t25 -53.5t8.5 -63q0 -37 -10 -72t-30 -62t-51 -43t-72 -16q-32 0 -63 15.5t-54 35.5l-31 -49v230q10 6 19 13t19 13v-139
q0 -22 10.5 -41.5t28 -34.5t38.5 -23.5t42 -8.5q31 0 52.5 17.5t34.5 43.5t18.5 55.5t5.5 54.5q0 26 -6 54.5t-19 52.5t-34.5 40t-53.5 16q-26 0 -49.5 -11t-46.5 -31q-34 -30 -64.5 -49t-62.5 -32t-68 -21t-81 -15q-37 -7 -60 -36.5t-23 -65.5q0 -29 18 -46.5t47 -17.5
q21 0 41.5 5.5t38.5 17.5q-22 -22 -47.5 -31t-55.5 -9zM220 173q9 2 19 4.5t19 4.5v-118q0 -16 7 -30t26 -14q16 0 27 10q-5 -14 -20 -24t-29 -10q-32 0 -40.5 20.5t-8.5 47.5v109z" />
    <glyph glyph-name="uniE016" unicode="ah" horiz-adv-x="691" 
d="M13 74q0 34 20.5 56t50.5 36t64 21.5t60 13.5q3 1 6 1t6 2q0 19 -0.5 43t-7 45t-21.5 35.5t-43 14.5q-9 0 -21.5 -2.5t-23.5 -7.5t-19 -13t-8 -19q0 -7 1 -11l2 -8q1 -4 1 -11q0 -26 -26 -26q-12 0 -18.5 8t-6.5 20q0 18 14 32.5t34 25t41.5 16t36.5 5.5q36 0 57 -10.5
t31.5 -28.5t13 -43.5t2.5 -55.5q31 8 61 18.5t59 26.5v171q0 12 -4.5 29t-20.5 17l64 47l1 -240q18 14 32 26.5t28 22.5t31.5 15.5t42.5 5.5q27 0 46 -10t31 -27t17.5 -39t5.5 -46v-169q0 -20 8 -37t29 -24h-112q21 7 28 24t7 37v178q0 36 -17 66.5t-58 30.5q-26 0 -44.5 -9
t-37.5 -25q-32 -25 -60 -41.5t-56.5 -28.5t-59.5 -20.5t-70 -17.5q-17 -4 -34 -7.5t-34 -9.5q-33 -11 -56.5 -37t-23.5 -63q0 -29 18.5 -45.5t47.5 -16.5q21 0 41.5 5t37.5 17q-21 -22 -47 -30.5t-56 -8.5q-35 0 -63 18.5t-28 57.5zM343 0q21 8 28.5 24.5t7.5 36.5v162
q10 7 20 13t20 14v-189q0 -21 7 -37t29 -24h-112zM220 179q10 3 19.5 5t19.5 4v-123q0 -16 6.5 -30t25.5 -14q15 0 28 10q-5 -14 -20.5 -23.5t-29.5 -9.5q-32 0 -40.5 20.5t-8.5 46.5v114z" />
    <glyph glyph-name="uniE017" unicode="am" horiz-adv-x="920" 
d="M105 -1q-35 0 -63.5 18.5t-28.5 56.5q0 35 21 57t52 35.5t65 21t60 12.5q6 0 9 2v42q0 17 -3.5 34t-12 31.5t-22.5 23.5t-34 9q-9 0 -21 -2.5t-23 -7.5t-19 -13t-8 -19q0 -8 2 -15t2 -15q0 -26 -27 -26q-12 0 -18.5 8.5t-6.5 19.5q0 18 14 32.5t34 25t41.5 16t36.5 5.5
q37 0 57.5 -10.5t31 -29.5t13 -45t2.5 -56q34 8 67 19t63 28q0 12 -4.5 29t-20.5 17l64 46v-67q18 12 32 24.5t28.5 22t32 16t42.5 6.5q26 0 45 -10t31 -27t17.5 -38.5t5.5 -45.5v-169q0 -20 8 -37t29 -24h-112q21 7 28 24t7 37v178q0 36 -16.5 66t-58.5 30q-26 0 -44 -8
t-38 -25q-31 -26 -60 -43.5t-58.5 -29.5t-62 -20t-71.5 -16q-18 -4 -37 -8t-36 -10q-32 -11 -55 -36.5t-23 -60.5q0 -29 18.5 -46t47.5 -17q21 0 41.5 5.5t37.5 17.5q-21 -21 -47 -30t-55 -9zM672 295q20 25 49.5 40.5t61.5 15.5q27 0 46 -10t31 -27t17.5 -39t5.5 -46v-168
q0 -20 7.5 -37t28.5 -24h-112q21 7 28.5 24t7.5 37v176q0 37 -17 66.5t-59 29.5q-26 0 -50.5 -11t-44.5 -27zM354 0q21 8 28 24.5t7 36.5v173q10 5 20.5 10.5t18.5 13.5l1 -197q0 -20 7.5 -36.5t28.5 -24.5h-111zM269 -1q-32 0 -40.5 20t-8.5 46v114q9 3 19 5t20 5v-124
q0 -16 6.5 -29.5t25.5 -13.5q16 0 28 9q-5 -14 -20.5 -23t-29.5 -9z" />
    <glyph glyph-name="uniE018" unicode="an" horiz-adv-x="698" 
d="M104 -1q-35 0 -63 18.5t-28 56.5q0 26 11 44t28.5 30t38.5 19.5t42 13.5q22 6 43 11.5t44 8.5v43q0 17 -3.5 34t-12 31.5t-22.5 23.5t-34 9q-9 0 -21 -2.5t-23.5 -7.5t-19 -13t-7.5 -20q0 -8 2 -15t2 -15q0 -25 -27 -25q-12 0 -18.5 8t-6.5 19q0 18 14 32.5t34 25t41 16
t36 5.5q37 0 58 -10.5t31 -29t12.5 -44.5t2.5 -57q34 8 66.5 19t63.5 28q0 12 -4.5 29t-20.5 17l63 47l1 -68q18 12 32 24.5t28.5 22.5t32 16.5t42.5 6.5q26 0 44.5 -10.5t30.5 -27.5t17.5 -38.5t5.5 -44.5v-168q0 -21 8 -38t29 -24h-112q21 7 28.5 24t7.5 38v176
q0 36 -17 66.5t-59 30.5q-25 0 -43 -8.5t-37 -24.5q-31 -26 -59.5 -43t-58.5 -29t-63 -20.5t-71 -16.5q-18 -4 -37.5 -8t-36.5 -10q-32 -11 -54.5 -36.5t-22.5 -60.5q0 -29 18.5 -46t47.5 -17q21 0 41.5 5.5t37.5 17.5q-22 -22 -47.5 -30.5t-55.5 -8.5zM353 0q21 8 28 24.5
t7 37.5v172q9 4 20 10t19 13l1 -195q0 -21 7 -37.5t28 -24.5h-110zM220 179q9 3 19 5t19 5v-124q0 -15 6.5 -29t25.5 -14q16 0 28 9q-5 -14 -20.5 -23t-29.5 -9q-32 0 -40 20t-8 46v114z" />
    <glyph glyph-name="uniE019" unicode="ap" horiz-adv-x="697" 
d="M104 -1q-34 0 -62.5 18t-28.5 57q0 40 22 62t53.5 33.5t67.5 17t63 11.5q0 20 -0.5 45t-6.5 46.5t-20.5 36.5t-43.5 15q-9 0 -21 -2t-23.5 -7t-19 -13t-7.5 -20q0 -8 2 -15t2 -14q0 -26 -27 -26q-12 0 -18.5 8t-6.5 19q0 18 14 32.5t34 25t41.5 16t36.5 5.5
q37 0 57.5 -11t30.5 -29.5t12.5 -44.5t2.5 -56q29 9 56 21t51 28q0 14 -4 27.5t-21 14.5l65 49v-61q29 23 55.5 43t67.5 20q35 0 61.5 -13t45.5 -34.5t28.5 -51t9.5 -62.5q0 -39 -10 -74t-30.5 -61.5t-52 -42.5t-73.5 -16q-34 0 -55.5 11t-46.5 32v-152q0 -20 6 -35.5
t27 -22.5h-107q20 7 27 23t7 35v336q10 7 19.5 14.5t20.5 13.5v-150q0 -20 9.5 -37.5t25 -31t34.5 -21t38 -7.5q33 0 55 16.5t36 42t20 55.5t6 57t-6 55t-19.5 51.5t-35.5 38t-54 14.5q-34 0 -50.5 -10t-40.5 -30q-36 -30 -66.5 -49t-62 -31t-67 -20t-81.5 -15
q-37 -6 -60.5 -36t-23.5 -66q0 -29 18.5 -46t47.5 -17q42 0 79 23q-22 -21 -47.5 -29.5t-55.5 -8.5zM269 -1q-32 0 -41 19.5t-9 45.5v108q10 3 20 4.5t19 5.5v-118q0 -16 6.5 -29t26.5 -13q15 0 27 9q-5 -14 -20 -23t-29 -9z" />
    <glyph glyph-name="uniE01A" unicode="ar" horiz-adv-x="566" 
d="M111 -1q-40 0 -69 21.5t-29 64.5q0 30 23 51.5t55.5 36t67.5 22.5t58 12v37q0 17 -3.5 34t-11.5 31.5t-21.5 23.5t-34.5 9q-9 0 -21.5 -2.5t-23.5 -7.5t-18.5 -13t-7.5 -20v-7l3 -15q0 -14 -4.5 -23.5t-21.5 -9.5q-12 0 -18.5 8.5t-6.5 19.5q0 18 14 32t34 24.5t41.5 16
t36.5 5.5q35 0 55.5 -9.5t31 -27.5t13.5 -42.5t3 -54.5q32 8 62.5 18t58.5 27q0 11 -3.5 27.5t-19.5 16.5l63 44v-63q12 9 24 20t25.5 20.5t27.5 16.5t30 7q11 0 19.5 -5t8.5 -17q0 -25 -26 -25q-11 0 -18.5 6.5t-23.5 6.5q-10 0 -20.5 -5t-18.5 -11q-54 -47 -114 -68
t-128 -36q-22 -5 -47 -12t-46 -19.5t-34.5 -31.5t-13.5 -48q0 -32 20 -51t52 -19q21 0 39.5 8t35.5 19q-18 -23 -44 -33t-54 -10zM344 0q20 8 26.5 22.5t6.5 34.5v179q8 4 21 12.5t19 14.5v-206q0 -20 6.5 -34t26.5 -23h-106zM217 184q10 3 19.5 5t19.5 4v-127
q0 -17 7 -30.5t26 -13.5q17 0 27 9q-4 -13 -20 -22.5t-29 -9.5q-32 0 -41 20t-9 47v118z" />
    <glyph glyph-name="uniE01B" unicode="ch" horiz-adv-x="701" 
d="M24 166q0 40 12.5 73.5t35.5 58t55.5 38t73.5 13.5q17 0 38 -4.5t39 -14t30.5 -24.5t12.5 -36q0 -11 -5.5 -20t-17.5 -9t-18.5 9.5t-6.5 20.5q0 32 -26 51.5t-55 19.5t-52 -13.5t-39.5 -35t-25.5 -48t-9 -52.5q0 -33 7.5 -64.5t24 -56t43 -40t63.5 -15.5q41 0 70 19
t50 47.5t36 62.5t30 65v217q0 13 -4.5 30t-21.5 17l65 47v-243q24 32 59.5 52.5t75.5 20.5q27 0 46 -10t31 -27t17.5 -39t5.5 -46v-169q0 -20 7.5 -37t28.5 -24h-112q21 7 28.5 24t7.5 37v177q0 36 -17 66.5t-59 30.5q-56 0 -88.5 -33.5t-56 -80t-46.5 -96t-59 -81.5
q-25 -22 -52 -36t-62 -14q-36 0 -65.5 14t-50.5 37.5t-32.5 55t-11.5 65.5zM354 -1q21 8 28.5 24.5t7.5 36.5v94q0 3 5 15.5t12 26.5l13 26t9 14v-176q0 -20 8 -36.5t28 -24.5h-111z" />
    <glyph glyph-name="uniE01C" unicode="cr" horiz-adv-x="594" 
d="M25 166q0 40 12.5 73.5t35 57.5t55.5 37.5t73 13.5q17 0 38 -4.5t39 -14t30.5 -24.5t12.5 -36q0 -11 -6 -19.5t-17 -8.5q-13 0 -19 9.5t-6 20.5q0 32 -25.5 51.5t-54.5 19.5t-52 -13.5t-39.5 -35t-25.5 -48t-9 -52.5q0 -33 7.5 -64.5t24 -56t42.5 -40t63 -15.5
q41 0 71 19t51.5 48t37.5 64t29 66v48q0 11 -3.5 27t-19.5 16l63 44v-68q9 11 21 23.5t26.5 22.5t29.5 16.5t30 6.5q11 0 20 -6t9 -17t-7.5 -17.5t-18.5 -6.5q-9 0 -19 6t-24 6q-29 0 -49.5 -23.5t-39 -59.5t-37 -77t-44 -77t-60.5 -59.5t-85 -23.5q-36 0 -65.5 14
t-50.5 37.5t-32.5 54.5t-11.5 65zM360 0q20 6 26.5 22t6.5 35v108q12 20 22 41.5t18 41.5v-191q0 -19 7 -35t27 -22h-107z" />
    <glyph glyph-name="uniE01D" unicode="eb" horiz-adv-x="736" 
d="M24 167q0 82 46 132t130 50q32 0 56 -13t39.5 -35t23.5 -49.5t8 -56.5h-261q-1 -4 -1 -8v-8q0 -69 35 -115t109 -46q42 0 71 16.5t50 43t36 59t30 65.5v223q0 13 -4.5 30t-21.5 17l65 49v-249q22 32 56 56t75 24q35 0 61.5 -13.5t44 -36.5t26.5 -53t9 -62q0 -37 -10 -72
t-30.5 -61t-51 -42t-71.5 -16q-32 0 -62.5 15t-53.5 35l-32 -48v143q18 45 39 87v-115q0 -22 10.5 -41.5t28 -34t38.5 -23t42 -8.5q31 0 52 17t34 42.5t18.5 55t5.5 54.5q0 26 -6 54.5t-19.5 52t-34.5 39t-52 15.5h-11.5t-11.5 -2q-45 -12 -72 -46t-48 -76t-40.5 -84.5
t-48.5 -72.5q-26 -27 -57.5 -43t-69.5 -16q-36 0 -67 13t-53.5 36.5t-35.5 54.5t-13 67zM190 343q-25 0 -47.5 -12.5t-39.5 -32t-26.5 -44t-9.5 -48.5h181q22 0 33.5 14.5t11.5 34.5q0 21 -9 37.5t-23.5 28t-33 17t-37.5 5.5z" />
    <glyph glyph-name="uniE01E" unicode="eh" horiz-adv-x="711" 
d="M193 -6q-36 0 -67 13.5t-53.5 37t-35.5 54.5t-13 67q0 82 46 132t130 50q32 0 56 -13t40 -35t24 -49.5t8 -56.5h-262q-1 -6 -1 -17q0 -69 35 -115.5t110 -46.5q41 0 71 18t52.5 46.5t38.5 63t28 67.5v217q0 6 -1 14t-3.5 15.5t-7.5 12.5t-13 5l65 46v-242q26 31 59 52
t75 21q27 0 45.5 -10t30.5 -27t17.5 -39t5.5 -46v-169q0 -20 8.5 -37t29.5 -24h-113q22 7 29 24t7 37v178q0 36 -17 66t-58 30q-47 0 -78 -25t-52.5 -61.5t-38.5 -77.5t-36 -73l3 5q-26 -46 -68 -77t-96 -31zM191 342q-26 0 -48.5 -12.5t-39.5 -32t-26.5 -44t-9.5 -49.5h181
q23 0 34 15t11 36t-9 37t-23.5 27t-32.5 17t-37 6zM365 -1q21 8 28 24.5t7 36.5v93q0 3 5.5 15.5t12 26.5t13 26t9.5 14v-175q0 -20 7.5 -36.5t28.5 -24.5h-111z" />
    <glyph glyph-name="uniE01F" unicode="em" horiz-adv-x="929" 
d="M193 -6q-37 0 -68 13.5t-53.5 37t-35 55t-12.5 67.5q0 82 46 132t130 50q32 0 56 -13t40 -35t24 -49.5t8 -56.5h-263q-2 -28 3 -58.5t19.5 -56t40 -43.5t64.5 -21q26 -2 53.5 3t52.5 23q7 5 13.5 12t14.5 15q20 23 34 52t27 58l3 6l4 11l3 6v55q0 12 -4 29t-21 17l65 48
v-77q21 29 49 47q19 14 41 22.5t45 8.5q27 0 46 -10t31 -27t17.5 -39t5.5 -46v-169q0 -21 7.5 -37.5t28.5 -24.5h-112q21 8 28 25t7 37v177q0 38 -16.5 67.5t-58.5 29.5q-26 0 -53 -12q-43 -23 -66.5 -62.5t-43.5 -84.5q-15 -35 -32 -68t-45 -59q-24 -25 -55 -40t-68 -15z
M777 335q-27 0 -52 -11.5t-45 -28.5q21 26 50.5 41.5t61.5 15.5q27 0 46 -10t31 -27t18 -39t6 -46v-169q0 -21 7.5 -37.5t27.5 -24.5h-111q21 8 28 25t7 37v177q0 38 -16.5 67.5t-58.5 29.5zM248 205q23 0 34 15t11 35q0 21 -9 37.5t-23 28t-32.5 17t-37.5 5.5
q-26 0 -48.5 -12.5t-39.5 -32t-27 -44t-10 -49.5h182zM362 -1q21 8 28 24.5t7 37.5v94q2 6 7.5 18.5t11.5 26t12 24t10 12.5v-175q0 -21 7 -37.5t28 -24.5h-111z" />
    <glyph glyph-name="uniE020" unicode="en" horiz-adv-x="708" 
d="M24 167q0 81 46.5 131.5t129.5 50.5q32 0 55.5 -13t39 -35t23.5 -49.5t8 -56.5h-260q-1 -4 -1 -8v-8q0 -34 8.5 -64t26.5 -52t45 -34.5t64 -12.5q45 0 74.5 18.5t49.5 47t35 63t31 67.5v45q0 12 -4 29.5t-21 17.5l64 46v-71q23 30 59.5 51.5t74.5 21.5q27 0 45.5 -10
t30.5 -27t17.5 -39t5.5 -46v-168q0 -21 7.5 -38t28.5 -24h-111q21 7 28 24.5t7 37.5v177q0 36 -16.5 66t-58.5 30q-23 0 -46.5 -9.5t-40.5 -23.5q-23 -18 -40 -48t-32.5 -64t-31.5 -67.5t-37 -58.5q-26 -31 -60.5 -50t-75.5 -19q-36 0 -67 13.5t-53.5 37t-35 54.5t-12.5 67z
M190 343q-26 0 -48.5 -12.5t-39 -32t-26 -44t-9.5 -49.5h181q22 0 33 15t11 35q0 21 -9 37.5t-23 27.5t-32.5 17t-37.5 6zM363 0q21 8 28.5 24.5t7.5 37.5v93q0 3 5 15.5t12 27t13 26t9 13.5v-175q0 -21 7.5 -37.5t28.5 -24.5h-111z" />
    <glyph glyph-name="uniE021" unicode="ep" horiz-adv-x="739" 
d="M25 166q0 82 46 132t129 50q32 0 56 -13t40 -34.5t23.5 -49t7.5 -56.5h-260q-2 -28 3 -58.5t19.5 -56t39.5 -43t64 -20.5q23 -2 47.5 1.5t46.5 17.5q38 26 59 63t39 79q5 11 9 20.5t9 19.5v45q0 14 -4.5 25t-20.5 12l64 49v-66q23 28 50 43q33 25 73 25q35 0 61.5 -12.5
t45.5 -34.5t28.5 -51t9.5 -62q0 -39 -10 -74t-30.5 -62t-51.5 -43t-73 -16q-34 0 -55.5 11t-47.5 32v-152q0 -20 6.5 -35.5t27.5 -22.5h-106q20 7 26.5 22.5t6.5 35.5v271q1 2 6.5 15t12.5 28t13 27.5t7 14.5v-142q0 -20 10 -37.5t25.5 -31t34.5 -21t38 -7.5q32 0 54.5 16.5
t36 42t19.5 55.5t6 57t-6 55t-19.5 51.5t-35 38t-53.5 14.5q-33 0 -58 -15t-44 -38t-33 -51.5t-26 -54.5q-14 -33 -31.5 -65t-41 -57.5t-54 -41.5t-71.5 -16q-36 0 -66.5 13t-53 36.5t-35.5 54.5t-13 67zM192 342q-26 0 -49 -12.5t-39.5 -32t-26 -44t-9.5 -49.5h180
q23 0 34 15t11 36t-8.5 37t-23 27.5t-32.5 17t-37 5.5z" />
    <glyph glyph-name="uniE022" unicode="er" horiz-adv-x="582" 
d="M393 178q-9 -20 -18.5 -40.5t-20.5 -39.5q0 -1 -1 -2q-26 -43 -66 -72t-94 -29q-36 0 -67 13.5t-53.5 36.5t-35.5 54.5t-13 67.5q0 82 46 132t130 50q32 0 56 -13t40 -35t24 -49.5t8 -56.5h-262q-2 -28 3 -58.5t19.5 -56t40 -43t64.5 -20.5q16 -2 32 -0.5t33 6.5
q26 10 45.5 27t34.5 38t27 45t22 48q4 8 7.5 16.5t8.5 16.5v49q0 11 -4 27t-20 16l63 43v-68q16 22 42 41q14 12 29.5 20.5t35.5 8.5q11 0 20 -6t9 -17q0 -12 -7.5 -18t-18.5 -6q-9 0 -19 6t-25 6q-13 0 -31 -9q-29 -23 -47.5 -57.5t-36.5 -71.5zM191 343q-26 0 -48.5 -12.5
t-39.5 -32t-26.5 -44t-9.5 -49.5h181q23 0 34 15t11 35q0 21 -9 37.5t-23 28t-32.5 17t-37.5 5.5zM369 0q20 6 27 21.5t7 35.5v108q2 4 8 16.5t13 26.5t12 25.5t6 14.5v-191q0 -20 7 -35.5t26 -21.5h-106z" />
    <glyph glyph-name="uniE023" unicode="ga" horiz-adv-x="697" 
d="M25 217q0 31 13.5 57.5t35 45.5t49.5 30t58 11q17 0 37 -5q8 46 42.5 78.5t82.5 32.5q63 0 94 -40t31 -97q0 -11 -2 -25.5t-7.5 -28t-14.5 -23t-24 -9.5q-11 0 -18 8.5t-7 19.5q0 15 10.5 19t22.5 7.5t22.5 11.5t10.5 32q0 48 -32 83t-86 35q-39 0 -74 -27.5t-44 -77.5
q51 -24 81.5 -61.5t30.5 -75.5q0 -31 -13.5 -58t-35.5 -46t-50.5 -30t-58.5 -11t-58 11t-49 30.5t-34 45.5t-13 57zM169 353q-24 0 -42.5 -11.5t-30.5 -29.5t-18.5 -40.5t-6.5 -43.5q0 -25 8 -51t23.5 -47.5t37.5 -35t50 -13.5q24 0 42.5 11.5t31.5 29.5t19.5 40.5t6.5 44.5
q0 25 -8.5 51t-24 47t-38 34.5t-50.5 13.5zM389 81q0 39 25.5 58.5t58.5 33.5t66 28.5t48 44.5q2 4 4.5 9.5t2.5 8.5q0 45 -27 62t-67 17q15 8 37 8q54 0 76 -29.5t22 -79.5v-178q0 -16 6 -30t26 -14q17 0 27 9q-4 -14 -19.5 -23.5t-29.5 -9.5q-32 0 -41 21t-9 47v178
q-13 -27 -39 -41t-52.5 -27.5t-46 -32.5t-19.5 -56q0 -32 20 -52t52 -20q21 0 40 8t36 20q-19 -23 -44.5 -34t-54.5 -11q-38 0 -68 22t-30 63zM24 14q0 20 12.5 38t29.5 28q-12 -10 -19.5 -25.5t-7.5 -30.5q0 -18 11 -26t28 -8q24 0 48 4t47.5 9.5t47.5 9.5t49 4
q44 0 71.5 -19t27.5 -67q0 -30 -14 -53.5t-35.5 -40t-48.5 -25.5t-54 -9q-14 0 -29 2.5t-27.5 9t-20.5 18t-8 28.5q0 16 7 32t23 22q-4 -7 -4 -18q0 -35 27.5 -52t58.5 -17q20 0 40 6t36 17.5t25.5 28.5t9.5 40q0 32 -17.5 45t-46.5 13q-24 0 -47 -5t-46 -10.5t-45.5 -10.5
t-46.5 -5q-30 0 -56 16.5t-26 50.5z" />
    <glyph glyph-name="uniE024" unicode="gi" horiz-adv-x="522" 
d="M179 73q-30 0 -57.5 11t-48.5 30t-33.5 45t-12.5 56t13 56t34.5 45t49 29.5t56.5 10.5h18q8 56 50 93t99 37q22 0 43 -5t38 -14.5t27.5 -22.5t10.5 -29q0 -27 -27 -27q-17 0 -23 9.5t-6 24.5l2 13q0 30 -20 36.5t-45 6.5q-54 0 -94.5 -35t-47.5 -89q53 -7 91.5 -44.5
t38.5 -93.5q0 -31 -13.5 -57.5t-35 -45.5t-49.5 -29.5t-58 -10.5zM388 0q20 6 26.5 22t6.5 35v206q0 11 -3.5 27.5t-19.5 16.5l63 43v-293q0 -18 6.5 -34.5t26.5 -22.5h-106zM169 349q-24 0 -42 -11.5t-30 -29.5t-18.5 -40t-6.5 -43q0 -24 8 -49.5t23 -46.5t36.5 -34.5
t49.5 -13.5q24 0 42.5 11.5t31 29t19 39.5t6.5 43q0 25 -8.5 50.5t-24 46.5t-37.5 34.5t-49 13.5zM24 -110q0 22 10.5 43t27.5 34q-11 -22 -11 -46q0 -28 13 -51.5t34 -41t47 -27t52 -9.5q19 0 41.5 6.5t41.5 19t31.5 30t12.5 39.5q0 25 -20.5 36.5t-51.5 16.5t-66.5 7
t-66.5 7.5t-51.5 18.5t-20.5 39q0 24 20.5 40.5t41.5 20.5q-10 -7 -21.5 -18.5t-11.5 -25.5q0 -18 19.5 -25t48.5 -10t62.5 -5.5t62.5 -11t48.5 -27t19.5 -52.5q0 -32 -14.5 -54.5t-37.5 -36t-51 -19.5t-55 -6q-25 0 -52.5 5.5t-50 18t-37.5 33t-15 51.5z" />
    <glyph glyph-name="uniE025" unicode="ra" horiz-adv-x="486" 
d="M174 81q0 39 25 58.5t58 33t66 28.5t49 45q2 4 4 9t2 9q0 45 -27 62t-67 17q8 5 18 6.5t19 1.5q53 0 75.5 -29.5t22.5 -79.5v-178q0 -16 6.5 -30t25.5 -14q16 0 28 9q-5 -14 -20 -23.5t-30 -9.5q-32 0 -41 21t-9 47v178q-13 -27 -39 -41t-52.5 -27.5t-46 -32.5t-19.5 -56
q0 -32 20 -52t53 -20q20 0 39.5 8t35.5 20q-18 -23 -44 -34t-54 -11q-38 0 -68 22t-30 63zM7 0q20 6 27 21.5t7 35.5v206q0 11 -3.5 26.5t-19.5 15.5l62 45v-293q0 -18 7 -34t26 -23h-106zM175 323q-15 0 -34 -6t-31 -15q8 8 21.5 15t29 12.5t31 9t25.5 3.5q16 0 33.5 -7.5
t17.5 -27.5q0 -10 -6 -19t-17 -9q-12 0 -17.5 7t-11 15t-14 15t-27.5 7z" />
    <glyph glyph-name="uniE026" unicode="ri" horiz-adv-x="354" 
d="M110 291q30 38 72 56.5t74 18.5q14 0 30 -7t16 -24q0 -14 -9 -20t-21 -6t-19 4.5t-13 9.5t-14 9.5t-23 4.5q-9 0 -21.5 -4t-25.5 -11t-25.5 -15t-20.5 -16zM19 0q20 6 27 22t7 35v206q0 11 -4 27t-19 16l62 44v-293q0 -26 7 -35t28 -22h-108zM221 0q20 7 26 22t6 35v136
q0 11 -3.5 27t-18.5 16l62 44v-223q0 -19 7.5 -35t27.5 -22h-107z" />
    <glyph glyph-name="uniE028" unicode="co" horiz-adv-x="741" 
d="M418 191q0 -30 9.5 -62t28 -58t45 -42.5t60.5 -16.5q30 0 53 13.5t38.5 35.5t23 49t7.5 54q0 30 -9.5 62t-28 57.5t-45 42t-60.5 16.5q-39 0 -66.5 -23t-41.5 -55q-10 -8 -18.5 -16t-17.5 -19q-18 -28 -35 -66.5t-40.5 -74.5t-57.5 -62t-86 -28q-35 -1 -64.5 12.5
t-50.5 37t-32.5 55t-11.5 65.5q0 40 12.5 73.5t35 57.5t55.5 37.5t73 13.5q17 0 38 -4.5t39 -14t30 -24.5t12 -36q0 -10 -5.5 -19t-16.5 -9q-12 0 -18.5 9.5t-6.5 20.5q0 31 -26 51t-55 20q-28 0 -51.5 -13.5t-39.5 -35t-25 -48t-9 -52.5q0 -32 7.5 -63.5t24 -56t42.5 -40
t63 -15.5q51 0 84 33.5t56.5 77t41 87t38.5 64.5q25 31 60 51t74 20q36 0 68 -14t56 -38t37.5 -56t13.5 -68t-13.5 -67.5t-37 -55.5t-55.5 -38t-68 -14q-34 0 -66 13t-56 36t-38.5 53.5t-14.5 66.5q11 20 21.5 36.5t25.5 33.5q-3 -8 -4.5 -24t-1.5 -26z" />
    <glyph glyph-name="uniE029" unicode="sh" horiz-adv-x="653" 
d="M152 -5q-30 0 -66 6t-65 15v84q15 -41 48 -67.5t78 -26.5q47 0 78 19t52 48.5t36 65.5t31 70v219q0 12 -4 29.5t-21 17.5l64 47l1 -243q23 32 55 52.5t80 20.5q27 0 46 -10.5t31 -27.5t17.5 -39t5.5 -46v-169q0 -21 7.5 -37.5t28.5 -23.5h-112q21 7 28.5 24t7.5 37v177
q0 37 -17 67t-59 30q-48 0 -78 -25t-52 -63t-39.5 -81.5t-41 -81.5t-56 -63t-84.5 -25zM277 103q-3 -9 -12 -20t-14 -16q0 23 -16.5 37t-41.5 25.5t-54.5 21.5t-54.5 23.5t-41.5 32.5t-16.5 49q0 24 9.5 42.5t25.5 30.5t37 18.5t43 6.5q10 0 26.5 -2t34 -6t33.5 -8t25 -9
v-66q-12 38 -47.5 61.5t-74.5 23.5q-13 0 -28.5 -4t-28.5 -12t-21.5 -19.5t-8.5 -27.5q0 -25 16 -41t39.5 -27.5t52 -21t53.5 -21.5t43.5 -28.5t21.5 -42.5zM309 -2q20 8 28 24.5t8 36.5v94q0 3 5 15.5t12 26.5l13 26t9 14v-176q0 -20 8 -36.5t29 -24.5h-112z" />
    <glyph glyph-name="uniE02A" unicode="ow" horiz-adv-x="904" 
d="M23 175q0 36 14 68t38 56t56 38t68 14q35 0 65.5 -12.5t54 -34.5t38 -51.5t17.5 -63.5q-11 -23 -22.5 -42t-27.5 -39q3 11 5 26.5t2 26.5q0 31 -9.5 63t-28 58t-45 42.5t-61.5 16.5q-30 0 -53 -14t-38.5 -35.5t-23.5 -49t-8 -54.5q0 -30 9.5 -61.5t28 -58t45 -43.5
t60.5 -17q42 1 73.5 26t56.5 62.5t47.5 81.5t47 81.5t54 63.5t68.5 27h85q-21 -9 -21 -33q0 -8 15 -44t34.5 -78t37 -80t23.5 -50l89 222q4 12 4 18q0 16 -8.5 29.5t-25.5 15.5h107q-20 -4 -36 -17.5t-24 -32.5l-123 -301l-94 211l-86 -211l-105 238q-22 -38 -43.5 -80
t-47 -77t-58 -58t-77.5 -23q-37 0 -69 14t-56 38t-38 56t-14 68zM401 293q-8 20 -18.5 34.5t-30.5 22.5h107q-21 -9 -21 -33q0 -2 2 -7t4 -12q-6 -6 -13.5 -15.5t-15.5 -21.5zM612 223l-31 70q-8 17 -18 32t-27 14q-26 -5 -46.5 -21.5t-38.5 -41.5q11 -25 26 -57.5t29 -63.5
t26 -56t16 -34z" />
    <glyph glyph-name="uniE02B" unicode="om" horiz-adv-x="988" 
d="M812 335q-26 0 -51 -11.5t-45 -27.5q20 25 50 40.5t62 15.5q26 0 45 -10t31 -27t17.5 -39t5.5 -46v-169q0 -21 8 -37.5t29 -23.5h-112q21 7 28 24t7 37v178q0 37 -16.5 66.5t-58.5 29.5zM667 239q0 49 -24 73.5t-57 24.5q-30 0 -61 -20q-30 -22 -55.5 -59.5t-52 -79
t-55 -80.5t-64.5 -65q-21 -16 -45 -25t-53 -9q-36 0 -68.5 13.5t-56.5 37.5t-38 56t-14 69q0 36 14 68t38 56t56 38t68 14t68 -14t56 -38t38 -56t14 -68q0 -8 -0.5 -15.5t-1.5 -15.5q-13 -20 -32 -42t-37 -39q27 44 27 98q0 31 -9.5 63t-28 58t-45 42.5t-61.5 16.5
q-30 0 -53 -14t-38.5 -35.5t-23.5 -49t-8 -54.5q0 -29 9 -60t26 -56.5t42 -42.5t56 -20q42 -2 75.5 16.5t61.5 48.5t52 67.5t47 74.5v41q0 12 -4 29t-21 17l64 47v-78q23 31 49.5 51.5t58.5 25.5q14 3 27 3q53 0 76.5 -37t23.5 -85v-169q0 -21 7.5 -37.5t28.5 -23.5h-112
q21 7 28.5 24t7.5 37v178zM398 0q21 8 28 24t7 37v118l39 58l1 -176q0 -21 7.5 -37t28.5 -24h-111z" />
    <glyph glyph-name="uniE02C" unicode="on" horiz-adv-x="762" 
d="M667 239q0 49 -24 73.5t-57 24.5q-30 0 -61 -20q-30 -22 -55.5 -59.5t-52 -79t-55 -80.5t-64.5 -65q-21 -16 -45 -25t-53 -9q-36 0 -68.5 13.5t-56.5 37.5t-38 56t-14 69q0 36 14 68t38 56t56 38t68 14t68 -14t56 -38t38 -56t14 -68q0 -8 -0.5 -15.5t-1.5 -15.5
q-13 -20 -32 -42t-37 -39q27 44 27 98q0 31 -9.5 63t-28 58t-45 42.5t-61.5 16.5q-30 0 -53 -14t-38.5 -35.5t-23.5 -49t-8 -54.5q0 -29 9 -60t26 -56.5t42 -42.5t56 -20q42 -2 75.5 16.5t61.5 48.5t52 67.5t47 74.5v41q0 12 -4 29t-21 17l64 47v-78q23 31 49.5 51.5
t58.5 25.5q14 3 27 3q53 0 76.5 -37t23.5 -85v-169q0 -21 7.5 -37.5t28.5 -23.5h-112q21 7 28.5 24t7.5 37v178zM398 0q21 8 28 24t7 37v118l39 58l1 -176q0 -21 7.5 -37t28.5 -24h-111z" />
    <glyph glyph-name="uniE02D" unicode="ur" horiz-adv-x="616" 
d="M78 350v-239q0 -48 26 -72t68 -24q39 0 71.5 22t62 55.5t56.5 73.5t54 77v20q0 11 -4 27t-19 16l63 44v-58q24 26 50.5 42t56.5 16q11 0 20 -6t9 -17t-7.5 -17.5t-18.5 -6.5q-9 0 -19 6t-24 6q-28 0 -53.5 -22t-50 -54.5t-50 -71.5t-54.5 -74q0 -12 4.5 -29t20.5 -17
l-64 -47v51q-26 -23 -55 -37.5t-64 -15.5q-54 0 -86 31.5t-32 90.5v144q0 13 -5 24t-20 12zM315 350v-227q-8 -11 -19 -22.5t-20 -19.5v183q0 13 -5 24t-20 12zM382 0q20 6 27 21.5t7 35.5v150q9 14 19 27t21 25v-202q0 -20 6.5 -35.5t26.5 -21.5h-107z" />
    <glyph glyph-name="uniE02E" unicode="sa" horiz-adv-x="644" 
d="M277 111q-4 -12 -11 -23.5t-13 -18.5q0 22 -16.5 36.5t-41.5 25.5t-54 20.5t-54 23t-41.5 33t-16.5 48.5q0 24 9.5 42.5t25.5 31t37 18.5t43 6q10 0 26.5 -2t33.5 -5.5t33 -8t25 -8.5v-66q-12 38 -47.5 61t-73.5 23q-13 0 -28.5 -4t-28.5 -11.5t-21.5 -19t-8.5 -27.5
q0 -24 15 -40t38 -27.5t51 -21t52.5 -20.5t43 -26.5t23.5 -39.5zM331 74q0 42 28 64t64 33t69.5 17t45.5 17v32q0 37 -17.5 67t-59.5 30q-48 0 -74.5 -25t-43.5 -63t-28.5 -81.5t-29.5 -81.5t-47.5 -63t-81.5 -25q-30 0 -66 6t-65 15v84q15 -41 48 -67.5t78 -26.5
q53 0 83 25.5t48 64t30.5 83.5t31.5 83.5t49 64t84 25.5q27 0 46 -10.5t31 -27.5t17.5 -39t5.5 -46v-164q0 -16 6.5 -29.5t25.5 -13.5q16 0 28 9q-5 -14 -20.5 -23t-29.5 -9q-32 0 -40.5 20t-8.5 46v128q-23 -7 -50.5 -14t-51.5 -19t-40 -31.5t-16 -50.5q0 -29 18.5 -46
t47.5 -17q21 0 41.5 5.5t37.5 17.5q-21 -22 -46.5 -30.5t-56.5 -8.5q-35 0 -63 18.5t-28 56.5z" />
    <glyph glyph-name=".notdef" horiz-adv-x="175" 
 />
    <glyph glyph-name="uni0000" horiz-adv-x="0" 
 />
    <glyph glyph-name="uni0000" horiz-adv-x="0" 
 />
    <glyph glyph-name="uni000D" unicode="&#xd;" horiz-adv-x="175" 
 />
    <glyph glyph-name="space" unicode=" " horiz-adv-x="175" 
 />
    <glyph glyph-name="exclam" unicode="!" horiz-adv-x="164" 
d="M55 459q0 15 8 24.5t22 9.5t21 -10t7 -24q0 -8 -2.5 -50.5t-6 -97.5t-7.5 -112t-7 -95h-10q-3 33 -7 89.5l-8 113t-7 100.5t-3 52zM53 29q0 13 9 22t23 9q12 0 21.5 -9t9.5 -22t-9 -23t-22 -10q-16 0 -24 10.5t-8 22.5z" />
    <glyph glyph-name="quotedbl" unicode="&#x22;" horiz-adv-x="245" 
d="M166 430q-13 0 -22 8.5t-9 22.5q0 13 9 22.5t22 9.5q15 0 24.5 -9.5t9.5 -27.5q0 -17 -8 -35.5t-22 -29.5l-5 5q9 12 10 23t-9 11zM47 461q0 13 9 22.5t22 9.5q15 0 24.5 -9.5t9.5 -27.5q0 -17 -8.5 -35.5t-21.5 -29.5l-5 5q9 12 9.5 23t-8.5 11q-13 0 -22 8.5t-9 22.5z
" />
    <glyph glyph-name="numbersign" unicode="#" horiz-adv-x="473" 
d="M57 195h78l28 101h-78l6 25h78l47 169h26l-46 -169h120l46 169h27l-47 -169h86l-7 -25h-85l-28 -101h87l-7 -25h-86l-47 -170h-25l45 170h-120l-46 -170h-26l46 170h-79zM162 195h119l28 101h-119z" />
    <glyph glyph-name="dollar" unicode="$" horiz-adv-x="393" 
d="M34 144q18 -57 56.5 -95t92.5 -45v219q-27 12 -52 26t-44.5 32t-31.5 41t-12 53q0 31 11.5 54.5t30.5 39t44.5 23.5t53.5 8v48h19v-50q30 -2 62.5 -11.5t81.5 -23.5q0 -1 -0.5 -12.5t-1.5 -25.5q-1 -17 -2 -37q-14 45 -53 71.5t-87 31.5v-211q28 -14 56 -29t50 -33.5
t36 -43t14 -56.5q0 -31 -13.5 -54t-35.5 -39t-50 -24t-57 -9v-51h-19v53q-19 2 -40.5 9t-41.5 14.5t-36 13t-24 5.5q-5 0 -6 -2zM183 492q-43 -1 -76 -22.5t-33 -66.5q0 -41 32 -66t77 -47v202zM202 3q22 0 44 5t40 16t29.5 28.5t12.5 42.5q0 23 -10 40t-27.5 30.5t-40 25
t-48.5 23.5v-211z" />
    <glyph glyph-name="percent" unicode="%" horiz-adv-x="442" 
d="M119 0l179 491h28q-12 -33 -29 -79.5t-36 -97.5t-37.5 -102.5t-34.5 -95t-27.5 -74.5t-15.5 -42h-27zM127 303q-33 0 -56.5 27.5t-23.5 65.5q0 39 23.5 66.5t56.5 27.5q32 0 55.5 -27.5t23.5 -66.5q0 -38 -23.5 -65.5t-55.5 -27.5zM127 484q-17 0 -28 -25.5t-11 -62.5
q0 -35 11 -61t28 -26q16 0 27.5 26t11.5 61q0 37 -11.5 62.5t-27.5 25.5zM321 -4q-33 0 -56.5 28t-23.5 66t23.5 65.5t56.5 27.5t56 -27.5t23 -65.5t-23 -66t-56 -28zM321 177q-16 0 -27 -25.5t-11 -61.5t11 -62t27 -26q17 0 28.5 26t11.5 62t-11.5 61.5t-28.5 25.5z" />
    <glyph glyph-name="ampersand" unicode="&#x26;" horiz-adv-x="481" 
d="M197 -4q-75 0 -119.5 41t-49.5 111q0 51 27.5 93.5t76.5 63.5q-11 17 -20.5 39.5t-9.5 46.5q0 44 32.5 73t79.5 29q18 0 35.5 -6.5t30.5 -17.5t20.5 -25.5t7.5 -30.5q0 -27 -25 -48q4 18 2 39t-10.5 38.5t-23.5 29.5t-37 12q-35 0 -58.5 -21t-23.5 -58q0 -24 19.5 -56.5
t52.5 -69.5t76.5 -77t91.5 -79q8 15 17 37t9 47q0 24 -17 36t-34 20l117 -5q-12 -6 -22 -23.5t-19 -39.5t-18 -44.5t-21 -37.5q20 -15 40 -32t41 -33t43.5 -29t46.5 -21h-62q-11 0 -21.5 2.5t-21.5 10.5l-90 68q-38 -46 -76.5 -64.5t-86.5 -18.5zM73 165q0 -31 11 -59
t30.5 -48.5t45 -32.5t55.5 -12q39 0 72.5 20t61.5 55q-48 40 -82 71.5t-58 56.5t-40.5 44t-28.5 35q-32 -24 -49.5 -59.5t-17.5 -70.5z" />
    <glyph glyph-name="quotesingle" unicode="'" horiz-adv-x="158" 
d="M47 461q0 13 9 22.5t22 9.5q15 0 24.5 -9.5t9.5 -27.5q0 -17 -8.5 -35.5t-21.5 -29.5l-5 5q9 12 9.5 23t-8.5 11q-13 0 -22 8.5t-9 22.5z" />
    <glyph glyph-name="parenleft" unicode="(" horiz-adv-x="203" 
d="M172 -15q-23 12 -48.5 36t-47 58t-35.5 76.5t-14 90.5q0 47 11.5 89t31 76.5t46.5 60.5t57 42v-8q-27 -16 -46 -44.5t-31 -63.5t-18 -74.5t-6 -77.5t7.5 -77.5t20.5 -74t31.5 -61.5t40.5 -41v-7z" />
    <glyph glyph-name="parenright" unicode=")" horiz-adv-x="200" 
d="M27 -15q27 16 46 44.5t31 63.5t18 75t6 78t-7.5 77t-20.5 73.5t-31 61.5t-40 41v7q23 -12 48 -36t46.5 -58t35.5 -76t14 -90q0 -96 -42.5 -166t-103.5 -102v7z" />
    <glyph glyph-name="asterisk" unicode="*" horiz-adv-x="166" 
d="M40 402q-11 0 -11 10q0 5 6 9l42 20l-42 19q-6 5 -6 8q0 4 3 7.5t8 3.5q1 0 7 -2l33 -27l-5 39q0 12 12 12q11 0 11 -11l-8 -41l35 27q4 2 7 2q5 0 7.5 -3.5t2.5 -7.5q0 -5 -5 -9l-42 -18l41 -19q6 -3 6 -9q0 -9 -10 -9q-5 0 -7 2l-35 26l7 -42q-2 -11 -12 -11q-3 0 -7 3
t-3 8l6 43l-33 -27q-3 -3 -8 -3z" />
    <glyph glyph-name="plus" unicode="+" horiz-adv-x="243" 
d="M71 210v8h44v55h27v-55h43v-8h-43v-50h-27v50h-44z" />
    <glyph glyph-name="comma" unicode="," 
d="M43 31q0 13 9 22.5t22 9.5q15 0 24.5 -9.5t9.5 -26.5q0 -18 -8.5 -37t-21.5 -30l-5 5q9 12 9.5 23t-8.5 11q-13 0 -22 9t-9 23z" />
    <glyph glyph-name="hyphen" unicode="-" horiz-adv-x="278" 
d="M72 202v27h137v-27h-137z" />
    <glyph glyph-name="period" unicode="." horiz-adv-x="152" 
d="M43 31q0 14 9 22.5t23 8.5q13 0 22.5 -8.5t9.5 -22.5q0 -12 -9 -22t-23 -10q-15 0 -23.5 10.5t-8.5 21.5z" />
    <glyph glyph-name="slash" unicode="/" horiz-adv-x="300" 
d="M76 0h-28l173 490h27z" />
    <glyph glyph-name="zero" unicode="0" horiz-adv-x="399" 
d="M28 246q0 51 13.5 96t37 78.5t54.5 53t67 19.5q35 0 66 -19.5t54 -53t36.5 -78.5t13.5 -96t-13.5 -96t-36.5 -78.5t-54 -53t-66 -19.5q-36 0 -67 19.5t-54.5 53t-37 78.5t-13.5 96zM83 246q0 -50 9 -93.5t25 -76t37.5 -51.5t45.5 -19t45.5 19t37 51.5t25 76t9.5 93.5
t-9.5 93.5t-25 76t-37 51.5t-45.5 19t-45.5 -19t-37.5 -51.5t-25 -76t-9 -93.5z" />
    <glyph glyph-name="one" unicode="1" horiz-adv-x="176" 
d="M36 446q-5 0 -7 -1l86 46v-435q0 -28 10.5 -39.5t22.5 -16.5h-114q13 5 23 16.5t10 40.5v357q0 32 -31 32z" />
    <glyph glyph-name="two" unicode="2" horiz-adv-x="385" 
d="M35 0q12 5 36.5 29.5t51 53.5t49.5 56t32 37q27 36 44 65t26 52.5t12 42.5t3 36q0 91 -92 91q-31 0 -64.5 -20.5t-56.5 -67.5l-5 2q23 46 63 80t91 34q54 0 85 -31.5t31 -86.5q0 -40 -27 -86t-64.5 -91t-78 -85t-67.5 -68h150q45 0 65.5 10.5t31.5 27.5l-20 -81h-296z
" />
    <glyph glyph-name="three" unicode="3" horiz-adv-x="385" 
d="M53 55q21 -21 48.5 -33.5t56.5 -12.5q42 0 70.5 14.5t46 36t25.5 47.5t9 49q2 52 -28.5 76.5t-83.5 24.5q-6 0 -12 -0.5t-13 -1.5q19 12 39 27.5t36 33.5t26.5 37.5t10.5 39.5q0 40 -29.5 57.5t-62.5 17.5q-40 0 -70 -26t-51 -58l-5 2q25 45 62.5 77.5t93.5 32.5
q48 0 75 -25t27 -58q-1 -26 -12 -47t-28 -38.5t-38.5 -32.5t-43.5 -30q6 2 12 2h13q25 0 49 -8.5t43 -24.5t30 -37.5t11 -48.5q-1 -33 -16.5 -61.5t-40 -48.5t-56.5 -31.5t-67 -11.5q-38 0 -71.5 14t-63.5 39z" />
    <glyph glyph-name="four" unicode="4" horiz-adv-x="404" 
d="M37 128l269 367v-327h4q23 0 43 10.5t29 26.5l-18 -77h-58v-72q1 -28 11 -39.5t23 -16.5h-115q14 5 24 16.5t10 40.5v71h-222zM259 168v246l-176 -246h176z" />
    <glyph glyph-name="five" unicode="5" horiz-adv-x="362" 
d="M155 -2q-39 0 -65 12.5t-49 25.5l7 10q21 -16 45.5 -26.5t54.5 -10.5q29 0 53 12t42 32.5t28 48t10 59.5q-2 75 -49 123.5t-144 50.5l23 155h114q27 0 49 5t31 21l-24 -70h-167l-17 -104q41 0 82 -7.5t74 -26.5t54 -51.5t21 -81.5q0 -47 -17 -80.5t-42.5 -55t-56 -31.5
t-57.5 -10z" />
    <glyph glyph-name="six" unicode="6" horiz-adv-x="379" 
d="M31 211q0 60 20.5 108t54.5 83.5t78 58t90 32.5l3 -10q-49 -7 -84 -30.5t-57.5 -56.5t-34.5 -72t-15 -78q14 26 45 47t66 21q74 0 113.5 -40.5t39.5 -102.5q0 -24 -8.5 -53.5t-27 -56t-48.5 -44t-73 -17.5q-40 0 -70 18.5t-50.5 48.5t-31 68t-10.5 76zM85 189
q0 -29 6 -60.5t19.5 -58t34 -43.5t48.5 -17q35 0 56 16t31.5 38.5t13.5 46.5t3 41q0 28 -5 56t-16.5 50t-30.5 35.5t-46 13.5q-19 0 -39.5 -8t-37 -23.5t-27 -37.5t-10.5 -49z" />
    <glyph glyph-name="seven" unicode="7" horiz-adv-x="389" 
d="M67 490h280l-213 -490h-13l194 445h-169q-48 0 -71.5 -12t-32.5 -29z" />
    <glyph glyph-name="eight" unicode="8" horiz-adv-x="358" 
d="M28 130q0 49 33.5 80.5t81.5 57.5q-29 23 -54.5 52.5t-25.5 69.5q0 25 10.5 44t28 32t40 20t46.5 7q18 0 39 -5.5t38.5 -17.5t29.5 -30t12 -44q0 -38 -28 -64t-73 -49q21 -11 43 -27.5t40 -36.5t29 -43t11 -48q0 -24 -10 -47t-29.5 -41.5t-46.5 -29.5t-62 -11
q-29 0 -56.5 9t-49 26t-34.5 41.5t-13 54.5zM190 484q-40 0 -64.5 -23.5t-24.5 -55.5q0 -38 28.5 -66t66.5 -50q31 19 53.5 45t22.5 68q0 36 -22.5 59t-59.5 23zM66 128q0 -24 8.5 -45.5t24 -38t36 -26.5t44.5 -10q22 0 42 8t35.5 21.5t25 32t9.5 40.5q0 27 -13 48t-33.5 38
t-45.5 32.5t-48 33.5q-51 -29 -68 -60.5t-17 -73.5z" />
    <glyph glyph-name="nine" unicode="9" horiz-adv-x="382" 
d="M31 321q0 24 8.5 53.5t27.5 56t49 44t73 17.5q40 0 70 -18.5t50.5 -48.5t30.5 -67.5t10 -76.5q0 -60 -20.5 -108t-54.5 -83.5t-78 -58t-90 -32.5l-2 10q49 8 83.5 31t57 55.5t34.5 72t15 78.5q-14 -26 -44.5 -46.5t-65.5 -20.5q-74 0 -114 40t-40 102zM189 482
q-35 0 -56 -16t-31.5 -38.5t-13.5 -46.5t-3 -41q0 -28 5 -56t16.5 -50t30.5 -35.5t46 -13.5q19 0 39 8t36.5 23.5t27 37.5t10.5 49q0 29 -6 61t-19 58t-33 43t-49 17z" />
    <glyph glyph-name="colon" unicode=":" horiz-adv-x="145" 
d="M75 260q-15 0 -23.5 10.5t-8.5 22.5q0 13 9 21.5t23 8.5q13 0 22.5 -8.5t9.5 -21.5t-9 -23t-23 -10zM43 176q0 13 9 22t23 9q13 0 22.5 -9t9.5 -22q0 -14 -9 -23.5t-23 -9.5q-15 0 -23.5 10.5t-8.5 22.5z" />
    <glyph glyph-name="semicolon" unicode=";" horiz-adv-x="148" 
d="M75 323q12 0 22 -8.5t10 -21.5t-9 -23t-23 -10q-15 0 -23.5 10.5t-8.5 22.5q0 13 9 21.5t23 8.5zM43 175q0 13 9 22.5t22 9.5q15 0 24.5 -10t9.5 -27q0 -18 -8 -36.5t-22 -29.5l-4 5q8 12 8.5 23t-8.5 11q-13 0 -22 9t-9 23z" />
    <glyph glyph-name="less" unicode="&#x3c;" horiz-adv-x="179" 
d="M36 242l99 133l9 -35l-72 -98l72 -101l-9 -39z" />
    <glyph glyph-name="equal" unicode="=" horiz-adv-x="275" 
d="M72 260v28h137v-28h-137zM72 220h137v-28h-137v28z" />
    <glyph glyph-name="greater" unicode="&#x3e;" horiz-adv-x="202" 
d="M155 242l-99 -132l-8 34l71 98l-71 102l8 38z" />
    <glyph glyph-name="question" unicode="?" horiz-adv-x="589" 
d="M65 377q11 22 26.5 42.5t35 36.5t42.5 25.5t50 9.5q53 0 84.5 -30t31.5 -82q0 -49 -23.5 -85t-52 -69t-52 -66.5t-23.5 -76.5h-8q0 44 16.5 80t36.5 70t36.5 68.5t16.5 76.5q0 35 -24.5 59.5t-66.5 24.5q-30 0 -63.5 -20.5t-56.5 -65.5zM179 57q12 0 22 -9t10 -21
q0 -14 -9 -23.5t-23 -9.5q-15 0 -23.5 10.5t-8.5 22.5t9 21t23 9z" />
    <glyph glyph-name="at" unicode="@" horiz-adv-x="582" 
d="M300 -1q-49 0 -95 16.5t-80.5 46.5t-55.5 72.5t-21 94.5q0 56 20.5 103.5t57.5 82t88 54.5t112 20q59 0 102 -18.5t70.5 -48.5t40.5 -67.5t13 -75.5q0 -33 -9.5 -64.5t-27.5 -55.5t-44.5 -38.5t-59.5 -14.5q-29 0 -48 16.5t-19 42.5q-9 -21 -31 -40t-50 -19
q-50 0 -73.5 32.5t-23.5 74.5q0 27 9.5 55.5t28.5 51t47 37t65 14.5q23 0 40.5 -14t20.5 -32l12 37h48q-17 -66 -35 -120.5t-18 -86.5q0 -18 9 -28.5t31 -10.5q21 0 38 13t29 34.5t18.5 49.5t6.5 59q0 38 -10.5 75.5t-32.5 67.5t-57 48.5t-84 18.5t-92.5 -20.5t-75.5 -55
t-50.5 -80.5t-18.5 -97q0 -46 15.5 -86t44 -69.5t68.5 -46.5t88 -17q44 0 89 18.5t75 44.5l17 -1q-37 -29 -86.5 -51t-105.5 -22zM212 199q0 -34 14 -57.5t43 -23.5q20 0 37.5 17.5t31 44t21.5 57t8 56.5q0 28 -10 46.5t-33 18.5q-26 0 -46.5 -15t-35 -38.5t-22.5 -51.5
t-8 -54z" />
    <glyph glyph-name="A" unicode="A" horiz-adv-x="493" 
d="M36 0q16 6 30.5 21.5t21.5 31.5l169 443l167 -441q7 -17 18 -33t30 -22h-123q12 5 20 16.5t8 24.5q0 8 -7 28.5t-16.5 44.5t-18.5 46.5l-13 32.5h-171l-46 -119l-4 -14t-2 -15q0 -19 11 -29.5t28 -15.5h-102zM318 200l-82 219l-83 -219h165z" />
    <glyph glyph-name="B" unicode="B" horiz-adv-x="398" 
d="M11 0q20 6 26.5 22.5t6.5 34.5v377q0 18 -6.5 34t-26.5 22h158q28 0 55.5 -6.5t49 -20.5t35 -36.5t13.5 -54.5q0 -41 -25 -68.5t-63 -38.5q28 -3 53 -12t44 -25.5t30 -39.5t11 -54q0 -36 -14.5 -61t-38.5 -41.5t-54 -24t-61 -7.5h-193zM91 266h71q51 0 80.5 27t29.5 79
q0 51 -28 80.5t-79 29.5h-74v-216zM195 8q58 0 90.5 34t32.5 92q0 60 -34.5 92t-93.5 32h-99v-250h104z" />
    <glyph glyph-name="C" unicode="C" horiz-adv-x="488" 
d="M284 -2q-52 0 -97 19t-79 52.5t-53.5 78.5t-19.5 97t19.5 97t53.5 78.5t79 52.5t97 19q40 0 84.5 -10.5t76.5 -36.5v-70q-29 43 -75 75.5t-100 32.5q-45 0 -78 -19.5t-55.5 -50.5t-33.5 -70.5t-11 -79.5q0 -43 12 -88.5t37 -82.5t62 -61t86 -24q54 0 96.5 33t70.5 77
l9 -46q-35 -29 -85 -51t-96 -22z" />
    <glyph glyph-name="D" unicode="D" horiz-adv-x="495" 
d="M35 0q20 6 27 22t7 35v376q0 19 -7 35t-27 22h181q50 0 95 -19.5t79 -52.5t53.5 -77.5t19.5 -95.5q0 -50 -18 -94.5t-50.5 -78t-76 -53t-94.5 -19.5h-189zM116 482v-473h58q108 0 172 64t64 172q0 109 -63.5 173t-172.5 64h-58z" />
    <glyph glyph-name="E" unicode="E" horiz-adv-x="389" 
d="M35 0q20 6 27 22t7 35v377q0 19 -7 34.5t-27 21.5h305l19 -83q-40 75 -122 75h-121v-229h83q23 0 40.5 9.5t25.5 32.5v-91q-8 23 -25.5 32t-40.5 9h-83v-237h120q42 0 75 19t53 56l-20 -83h-309z" />
    <glyph glyph-name="F" unicode="F" horiz-adv-x="363" 
d="M35 0q20 6 27 22t7 35v377q0 19 -7 34.5t-27 21.5h305l19 -83q-40 75 -122 75h-121v-229h83q22 0 40 9.5t26 32.5v-91q-7 23 -26 32t-40 9h-83v-188q0 -19 7.5 -35t26.5 -22h-115z" />
    <glyph glyph-name="G" unicode="G" horiz-adv-x="510" 
d="M274 -2q-52 0 -97 19t-79 52.5t-53.5 78.5t-19.5 97t19.5 97t53 78.5t79 52.5t97.5 19q39 0 84 -10.5t76 -36.5v-70q-29 43 -74.5 75.5t-99.5 32.5q-43 0 -77 -21t-57 -54t-35 -73.5t-12 -79.5q0 -42 14.5 -86t40.5 -79.5t64 -58.5t84 -23q19 0 41.5 6.5t42 18.5
t32.5 29.5t13 39.5q0 8 0.5 16t0.5 16q0 20 -5.5 39t-27.5 26h108q-17 -5 -24.5 -20t-7.5 -32v-151q-7 11 -18 26t-26 15q-6 0 -14 -4q-30 -15 -59.5 -25t-63.5 -10z" />
    <glyph glyph-name="H" unicode="H" horiz-adv-x="485" 
d="M35 0q20 6 27 21t7 35v378q0 19 -7 34.5t-27 21.5h115q-20 -6 -27 -21.5t-7 -34.5v-179h247v179q0 19 -6.5 34.5t-26.5 21.5h115q-20 -6 -27 -21.5t-7 -34.5v-377q0 -19 7 -35t27 -22h-115q20 6 26.5 22t6.5 35v190h-247v-191q0 -19 7.5 -34.5t26.5 -21.5h-115z" />
    <glyph glyph-name="I" unicode="I" horiz-adv-x="202" 
d="M35 0q20 6 27 22t7 35v377q0 19 -7 34.5t-27 21.5h115q-20 -6 -27 -21.5t-7 -34.5v-377q0 -19 7 -35t27 -22h-115z" />
    <glyph glyph-name="J" unicode="J" horiz-adv-x="291" 
d="M130 -4q-15 0 -31.5 3.5t-31 11.5t-23.5 20.5t-9 30.5q0 11 6 18.5t17 7.5q12 0 17 -11q8 -7 8.5 -19.5t3.5 -23.5t13 -19.5t35 -8.5q22 0 34.5 10.5t19 26.5t8 35t1.5 35v321q0 19 -6.5 34.5t-26.5 21.5h114q-20 -6 -26.5 -21.5t-6.5 -34.5v-300q0 -30 -5.5 -55.5
t-18.5 -43.5t-35.5 -28.5t-56.5 -10.5z" />
    <glyph glyph-name="K" unicode="K" horiz-adv-x="433" 
d="M68 434q0 17 -8.5 34t-25.5 22h115q-20 -6 -27 -21.5t-7 -34.5v-218l205 219q9 9 9 21q0 11 -8.5 21t-19.5 13h102q-20 -6 -37.5 -22t-31.5 -31l-116 -124q-5 -5 -5 -12q0 -5 3 -10l168 -243q9 -13 27 -28t32 -20h-75q-8 0 -17 9l-162 237q-5 9 -17 9q-7 0 -15 -6
t-16 -14t-14.5 -16.5t-11.5 -13.5v-148q0 -20 7 -35t27 -22h-115q20 6 27 22t7 35v377z" />
    <glyph glyph-name="L" unicode="L" horiz-adv-x="367" 
d="M35 0q20 6 27 22t7 35v377q0 19 -7 34.5t-27 21.5h115q-20 -6 -27 -21.5t-7 -34.5v-426h126q42 0 70.5 21.5t48.5 56.5l-19 -86h-307z" />
    <glyph glyph-name="M" unicode="M" horiz-adv-x="635" 
d="M86 431q0 23 -15 38t-35 21h94l206 -421l179 421h77q-20 -6 -27 -21.5t-7 -34.5v-377q0 -20 7 -35.5t27 -21.5h-115q20 6 27 21.5t7 35.5v403l-195 -459l-222 456v-395q0 -25 14 -39.5t37 -22.5h-109q23 8 36.5 22.5t13.5 39.5v369z" />
    <glyph glyph-name="N" unicode="N" horiz-adv-x="480" 
d="M36 0q22 7 35.5 22.5t13.5 39.5v364q0 48 -49 64h89l281 -395v333q0 24 -13.5 39.5t-35.5 22.5h105q-22 -7 -35 -22.5t-13 -39.5v-428l-322 453v-391q0 -25 14 -40t36 -22h-106z" />
    <glyph glyph-name="O" unicode="O" horiz-adv-x="547" 
d="M36 245q0 51 19.5 96t53 78.5t78.5 53t96 19.5t96 -19.5t78.5 -53t53 -78.5t19.5 -96t-19.5 -96t-53 -78.5t-78.5 -53t-96 -19.5t-96 19.5t-78.5 53t-53 78.5t-19.5 96zM91 257q0 -42 14.5 -87t41 -81.5t64.5 -60t85 -23.5q44 0 77.5 21t56.5 54t35 73.5t12 79.5
q0 43 -14 87.5t-40.5 81t-64.5 59.5t-86 23q-43 0 -77 -21t-57 -54t-35 -73t-12 -79z" />
    <glyph glyph-name="P" unicode="P" horiz-adv-x="424" 
d="M35 0q20 6 27 22.5t7 34.5v376q0 19 -7 35t-27 22h171q36 0 69.5 -8t59 -26t40.5 -46t15 -69q0 -39 -16.5 -67.5t-43 -46.5t-60 -26.5t-68.5 -8.5h-86v-136q0 -18 7.5 -34t26.5 -22h-115zM197 200q66 0 103.5 38t37.5 103q0 66 -37.5 103.5t-103.5 37.5h-81v-282h81z" />
    <glyph glyph-name="Q" unicode="Q" horiz-adv-x="547" 
d="M38 245q0 51 19.5 96t53 78.5t79 53t96.5 19.5t96 -19.5t78 -53t52.5 -78.5t19.5 -96q0 -49 -18 -92.5t-49 -77t-73.5 -54t-91.5 -23.5q17 -7 35 -18.5t36.5 -23t37.5 -19.5t37 -8q16 0 31 4t29 11q-9 -20 -28 -32t-40 -12q-28 0 -49.5 13.5t-41.5 30t-40.5 30
t-46.5 13.5q-46 0 -86 -26q15 15 33.5 25.5t39.5 14.5q-45 7 -83.5 28.5t-66 54.5t-43.5 74t-16 87zM93 258q0 -44 14.5 -89t41.5 -81.5t65.5 -59.5t87.5 -23q43 0 76 21.5t55 54.5t33 73.5t11 77.5q0 44 -14.5 89t-41.5 81t-66 59t-88 23q-42 0 -74.5 -21t-54.5 -54
t-33.5 -73t-11.5 -78z" />
    <glyph glyph-name="R" unicode="R" horiz-adv-x="435" 
d="M202 490q35 0 69 -8t60.5 -26t43 -46t16.5 -69q0 -59 -37 -96.5t-92 -48.5l99 -155q9 -14 23 -24.5t29 -16.5h-78l-124 193h-94v-137q0 -19 7 -34.5t27 -21.5h-115q20 6 26.5 22t6.5 35v377q0 18 -6.5 34t-26.5 22h166zM117 482v-282h82q64 0 102.5 38t38.5 103
q0 66 -37.5 103.5t-103.5 37.5h-82z" />
    <glyph glyph-name="S" unicode="S" horiz-adv-x="384" 
d="M34 144q9 -27 24.5 -52t36.5 -44.5t47 -31.5t56 -12q22 0 45 4.5t41.5 15.5t30.5 29t12 44q0 32 -21 53.5t-52 39t-67.5 33t-67.5 36t-52 48t-21 68.5q0 31 12 54.5t32.5 39t47 23.5t55.5 8q20 0 38.5 -6t34.5 -12.5t28.5 -12.5t19.5 -6q12 0 20 9t12 20
q-1 -29 -2.5 -57.5t-1.5 -57.5q-14 50 -57 83t-95 33q-21 0 -41 -5.5t-35.5 -16.5t-25.5 -28t-10 -40q0 -32 21 -54.5t52 -40t68 -34t68 -37.5t52 -49.5t21 -70.5q0 -32 -14.5 -55t-37.5 -38t-51.5 -22.5t-56.5 -7.5q-18 0 -34.5 4.5t-33 10.5t-32 10.5t-31.5 4.5
q-11 0 -20.5 -6t-14.5 -14v140z" />
    <glyph glyph-name="T" unicode="T" horiz-adv-x="451" 
d="M53 490h354l19 -80q-17 32 -46 51t-66 19h-61v-423q0 -18 7 -34.5t27 -22.5h-115q20 6 27 22t7 35l1 423h-60q-38 0 -66 -19t-45 -51z" />
    <glyph glyph-name="U" unicode="U" horiz-adv-x="476" 
d="M144 490q-20 -6 -27 -22t-7 -34v-261q0 -32 8 -61.5t25 -51.5t43 -35t61 -13q75 0 107 43.5t32 112.5v260q0 25 -13.5 40t-35.5 22h107q-23 -7 -36.5 -22.5t-13.5 -39.5v-261q0 -79 -37 -125.5t-120 -46.5q-85 0 -130 44.5t-45 129.5v265q0 18 -6.5 34t-26.5 22h115z" />
    <glyph glyph-name="V" unicode="V" horiz-adv-x="505" 
d="M70 433q-7 17 -17 33t-28 24h119q-13 -4 -19.5 -16t-6.5 -24q0 -6 4 -18l146 -358l150 361q3 8 3 16q0 16 -11.5 26t-25.5 13h100q-23 -7 -36.5 -20.5t-21.5 -34.5l-179 -435z" />
    <glyph glyph-name="W" unicode="W" horiz-adv-x="662" 
d="M138 490q-13 -5 -19 -17t-6 -25q0 -6 2 -16l110 -341l95 312q-10 24 -20.5 50t-36.5 37h118q-13 -5 -19 -17t-6 -24q0 -11 2 -17l110 -341l105 344q2 5 2 14q0 16 -10.5 27t-24.5 14h98q-45 -11 -57 -55l-132 -434l-125 389l-117 -389l-142 432q-6 17 -17 33t-28 24h118z
" />
    <glyph glyph-name="X" unicode="X" horiz-adv-x="441" 
d="M145 490q-10 -3 -14 -11.5t-4 -17.5q0 -15 10 -30l99 -153l93 140q5 8 8.5 16.5t3.5 16.5q0 14 -9 24t-23 15h101q-18 -6 -35 -25.5t-28 -35.5l-106 -159l142 -218q9 -14 22 -30.5t30 -21.5h-124q9 3 14 12t5 18q0 16 -11 32l-108 166l-102 -153q-5 -8 -8.5 -16.5
t-3.5 -19.5q0 -14 8.5 -24t21.5 -15h-101q17 5 35 25.5t29 35.5l117 176l-126 193q-9 14 -25.5 34.5t-33.5 25.5h123z" />
    <glyph glyph-name="Y" unicode="Y" horiz-adv-x="418" 
d="M69 435q-8 15 -22 32.5t-31 22.5h116q-9 -4 -13 -12.5t-4 -17.5q0 -11 7 -27l105 -201l96 185q4 7 7 15t3 16q0 14 -8 25.5t-22 16.5h100q-19 -6 -37.5 -26t-26.5 -37l-105 -202v-169q0 -19 7 -34.5t27 -21.5h-115q20 6 27 22t7 35v157z" />
    <glyph glyph-name="Z" unicode="Z" horiz-adv-x="400" 
d="M19 0l297 482h-146q-41 0 -73 -21.5t-51 -56.5l21 86h308l-297 -482h154q38 0 73 22t53 55l-22 -85h-317z" />
    <glyph glyph-name="bracketleft" unicode="[" horiz-adv-x="204" 
d="M67 -61v614h83v-28h-44v-559h44v-27h-83z" />
    <glyph glyph-name="backslash" unicode="\" horiz-adv-x="342" 
d="M300 0h-28l-230 490h28z" />
    <glyph glyph-name="bracketright" unicode="]" horiz-adv-x="185" 
d="M99 -33v559h-44v27h84v-614h-84v28h44z" />
    <glyph glyph-name="asciicircum" unicode="^" horiz-adv-x="252" 
d="M115 587h24l44 -56h-22l-34 38l-32 -38h-24z" />
    <glyph glyph-name="underscore" unicode="_" horiz-adv-x="333" 
d="M62 -30v22h207v-22h-207z" />
    <glyph glyph-name="a" unicode="a" horiz-adv-x="326" 
d="M13 74q0 42 28 64t64 33t69.5 17t45.5 17v39q0 17 -3.5 34.5t-12 31.5t-22.5 23t-34 9q-9 0 -21 -2.5t-23.5 -7.5t-19 -13t-7.5 -19q0 -7 1 -11l2 -8q1 -4 1 -11q0 -26 -27 -26q-12 0 -18.5 8.5t-6.5 19.5q0 18 14 32.5t34 25t41.5 16t36.5 5.5q55 0 79.5 -27.5
t24.5 -81.5v-177q0 -16 6.5 -29.5t25.5 -13.5q16 0 28 9q-5 -14 -20.5 -23t-29.5 -9q-32 0 -40.5 20t-8.5 46v128q-23 -7 -50.5 -14t-51.5 -19t-40 -31.5t-16 -50.5q0 -29 18.5 -46t47.5 -17q21 0 41.5 5.5t37.5 17.5q-21 -22 -46.5 -30.5t-56.5 -8.5q-35 0 -63 18.5
t-28 56.5z" />
    <glyph glyph-name="b" unicode="b" horiz-adv-x="378" 
d="M76 522v-409q0 -22 10.5 -41.5t28 -34t38.5 -23t42 -8.5q31 0 52 17t34 42.5t19 55t6 53.5q0 26 -6 54.5t-19 52.5t-34.5 39.5t-53.5 15.5q-30 0 -51.5 -12t-42.5 -32q17 28 46.5 44t61.5 16q36 0 62.5 -13.5t44 -36.5t26.5 -53t9 -63q0 -38 -10 -72.5t-30.5 -61t-51 -42
t-71.5 -15.5q-32 0 -63 15.5t-54 35.5l-32 -49v429q0 12 -4.5 29t-21.5 17z" />
    <glyph glyph-name="c" unicode="c" horiz-adv-x="336" 
d="M184 -5q-36 0 -65.5 14t-50.5 37.5t-32.5 55t-11.5 65.5q0 40 12.5 73.5t35.5 57.5t56 37.5t73 13.5q17 0 38 -4.5t39 -14t30.5 -24.5t12.5 -36q0 -11 -6 -19.5t-17 -8.5q-13 0 -19 9.5t-6 20.5q0 32 -26 51.5t-55 19.5t-52 -13.5t-39.5 -35t-25.5 -48.5t-9 -53
q0 -33 8 -63.5t24.5 -54.5t42.5 -38.5t63 -14.5q35 0 68.5 15.5t56.5 41.5q-23 -42 -60.5 -63t-84.5 -21z" />
    <glyph glyph-name="d" unicode="d" horiz-adv-x="384" 
d="M168 -1q-34 0 -61.5 14t-46.5 37.5t-29.5 54t-10.5 62.5q0 37 11.5 70.5t33.5 58.5t53 40t70 15q35 0 56.5 -10t46.5 -32v113q0 13 -4.5 30t-21.5 17l65 50v-431q0 -14 5 -25t21 -13l-65 -49v246q0 20 -9.5 37.5t-25 31t-35 21t-38.5 7.5q-30 0 -52.5 -15.5t-37 -39.5
t-22 -52.5t-7.5 -54.5q0 -25 7 -54.5t21 -54t36.5 -41t52.5 -16.5t50 10.5t41 30.5q-17 -26 -45 -42t-59 -16z" />
    <glyph glyph-name="e" unicode="e" horiz-adv-x="360" 
d="M24 167q0 82 46 132t130 50q32 0 56 -13t40 -35t24 -49.5t8 -56.5h-262q0 -31 7 -62t23 -55t41 -39t62 -15q16 0 35 3t37.5 9.5t33.5 17t23 25.5q-16 -40 -54.5 -62t-80.5 -22q-36 0 -67 13.5t-53.5 36.5t-35.5 54.5t-13 67.5zM191 343q-26 0 -48.5 -12.5t-39.5 -32
t-26.5 -44t-9.5 -49.5h181q23 0 34 15t11 35q0 21 -9 37.5t-23 28t-32.5 17t-37.5 5.5z" />
    <glyph glyph-name="f" unicode="f" horiz-adv-x="172" 
d="M11 340v10h44q0 26 3 56t13 56t30 43t54 17q9 0 22 -2.5t25 -8t21 -13.5t9 -19q0 -10 -5.5 -17.5t-16.5 -7.5q-14 0 -19 9t-9 20.5t-11 20.5t-25 9q-23 0 -34 -20t-15 -47t-3.5 -54t0.5 -42h62v-10h-62v-282q0 -19 7 -35.5t27 -22.5h-107q20 6 27 22.5t7 35.5v282h-44z
" />
    <glyph glyph-name="g" unicode="g" horiz-adv-x="382" 
d="M300 357q-9 0 -17 -3q9 15 24.5 26.5t33.5 11.5q11 0 21 -5.5t10 -18.5q0 -12 -8 -18.5t-19 -6.5q-12 0 -22.5 7t-22.5 7zM179 74q-30 0 -57.5 10.5t-48.5 29.5t-33.5 45t-12.5 57q0 30 13 56t34.5 45t49 29.5t56.5 10.5q30 0 58 -10t49.5 -29t34.5 -44.5t13 -57.5
q0 -31 -13.5 -57t-35 -45t-49.5 -29.5t-58 -10.5zM72 226q0 -25 8 -50.5t23 -46.5t36.5 -34t49.5 -13q24 0 42.5 11t31 29t19 40t6.5 43q0 25 -8.5 50.5t-24 46.5t-37.5 34t-49 13q-24 0 -42 -11.5t-30 -29t-18.5 -39.5t-6.5 -43zM62 -32q-11 -22 -11 -46q0 -28 13 -51.5
t34 -41t47 -27t52 -9.5q19 0 41.5 6.5t41.5 18.5t31.5 29.5t12.5 39.5q0 25 -20.5 36.5t-51.5 17t-66.5 7.5t-66.5 7.5t-51.5 18.5t-20.5 39q0 23 20.5 40t41.5 21q-10 -7 -21.5 -18.5t-11.5 -25.5q0 -18 19.5 -25t48.5 -10.5t63 -6t63 -11t48.5 -27t19.5 -52.5
q0 -32 -14.5 -54t-38 -36t-51.5 -20t-55 -6q-25 0 -52.5 5.5t-50 18t-37.5 33.5t-15 52q0 22 10.5 42.5t27.5 34.5z" />
    <glyph glyph-name="h" unicode="h" horiz-adv-x="365" 
d="M18 0q21 8 28 24t7 37v367q0 13 -4 30t-21 17l64 47l1 -461q0 -21 7.5 -37t28.5 -24h-111zM211 335q-26 0 -51 -11.5t-45 -27.5q21 25 50.5 40.5t61.5 15.5q53 0 76.5 -37t23.5 -85v-169q0 -21 7.5 -37.5t28.5 -23.5h-112q21 7 28.5 24t7.5 37v178q0 37 -17 66.5
t-59 29.5z" />
    <glyph glyph-name="i" unicode="i" 
d="M71 406q-13 0 -21 7.5t-8 20.5t8 20.5t21 7.5q28 0 28 -28t-28 -28zM20 0q20 6 26.5 21.5t6.5 35.5v206q0 11 -4 27t-19 16l63 44v-293q0 -20 7 -35.5t27 -21.5h-107z" />
    <glyph glyph-name="j" unicode="j" horiz-adv-x="108" 
d="M27 434q0 13 8 20.5t21 7.5q28 0 28 -28t-28 -28q-13 0 -21 7.5t-8 20.5zM-102 -129q0 10 5 17.5t16 7.5q15 0 20 -9t9 -20.5t11 -20.5t25 -9q21 0 32 17.5t15.5 41.5t4.5 49v39v279q0 11 -4 27t-19 16l63 44v-350q0 -26 -3 -56t-13.5 -56t-30.5 -43t-54 -17
q-9 0 -22 2.5t-25 8t-21 13.5t-9 19z" />
    <glyph glyph-name="k" unicode="k" horiz-adv-x="374" 
d="M18 0q21 8 28 24t7 37v367q0 13 -4 30t-21 17l64 47l1 -461q0 -21 7.5 -37t28.5 -24h-111zM224 293q5 5 10 15t5 17q0 10 -6.5 16t-14.5 9h89q-27 -10 -46 -27l-121 -112l153 -175q12 -14 26 -22t31 -14h-78l-164 189z" />
    <glyph glyph-name="l" unicode="l" 
d="M18 0q21 8 28 24t7 37v367q0 13 -4 30t-21 17l64 47l1 -461q0 -21 7.5 -37t28.5 -24h-111z" />
    <glyph glyph-name="m" unicode="m" horiz-adv-x="608" 
d="M432 335q-26 0 -51 -11.5t-45 -27.5q20 25 50 40.5t62 15.5q26 0 45 -10t31 -27t17.5 -39t5.5 -46v-169q0 -21 8 -37.5t29 -23.5h-112q21 7 28 24t7 37v178q0 37 -16.5 66.5t-58.5 29.5zM211 335q-26 0 -51 -11.5t-45 -27.5q21 25 50.5 40.5t61.5 15.5q53 0 76.5 -37
t23.5 -85v-169q0 -21 7.5 -37.5t28.5 -23.5h-112q21 7 28.5 24t7.5 37v178q0 37 -17 66.5t-59 29.5zM18 0q21 8 28 24t7 37v196q0 12 -4 29t-21 17l64 47l1 -289q0 -21 7.5 -37t28.5 -24h-111z" />
    <glyph glyph-name="n" unicode="n" horiz-adv-x="382" 
d="M211 335q-26 0 -51 -11.5t-45 -27.5q21 25 50.5 40.5t61.5 15.5q53 0 76.5 -37t23.5 -85v-169q0 -21 7.5 -37.5t28.5 -23.5h-112q21 7 28.5 24t7.5 37v178q0 37 -17 66.5t-59 29.5zM18 0q21 8 28 24t7 37v196q0 12 -4 29t-21 17l64 47l1 -289q0 -21 7.5 -37t28.5 -24
h-111z" />
    <glyph glyph-name="o" unicode="o" horiz-adv-x="405" 
d="M23 175q0 36 14 68t38 56t56 38t68 14t68 -14t56 -38t38 -56t14 -68t-13.5 -68t-37.5 -56t-56 -38t-68 -14q-37 0 -69 14t-56 38t-38 56t-14 68zM187 341q-30 0 -53 -14t-38.5 -35.5t-23.5 -49t-8 -54.5q0 -30 9.5 -62t28.5 -58.5t46 -43t61 -16.5q30 0 53 14t38.5 35.5
t23 49t7.5 54.5q0 31 -9.5 63t-28 58t-45 42.5t-61.5 16.5z" />
    <glyph glyph-name="p" unicode="p" horiz-adv-x="365" 
d="M6 -171q20 7 27.5 22.5t7.5 35.5v377q0 13 -5 24.5t-21 12.5l65 49v-248q0 -20 9.5 -38t25 -31.5t35 -21t38.5 -7.5q32 0 54.5 17t36.5 42.5t20 55.5t6 57t-6 55t-19.5 51.5t-35.5 38t-54 14.5q-29 0 -49.5 -10.5t-41.5 -30.5q17 26 45 41.5t59 15.5q35 0 62 -12.5
t45.5 -34.5t28.5 -51t10 -62q0 -39 -10 -74t-31 -61.5t-52 -42.5t-73 -16q-35 0 -56.5 10.5t-46.5 31.5v-152q0 -20 6 -35.5t27 -22.5h-107z" />
    <glyph glyph-name="q" unicode="q" horiz-adv-x="372" 
d="M15 170q0 82 48 132.5t131 50.5q31 0 55.5 -15.5t46.5 -35.5l32 49v-469q0 -20 6.5 -35t26.5 -22h-106q22 6 27.5 21.5t5.5 35.5v353q0 43 -30.5 75t-73.5 32q-31 0 -54 -15t-39 -38.5t-24 -51.5t-8 -55q0 -26 6 -55.5t19 -55t35 -42.5t53 -17q30 0 51.5 12t42.5 32
q-17 -28 -46.5 -44t-61.5 -16q-38 0 -65 14.5t-44.5 39t-25.5 56t-8 64.5z" />
    <glyph glyph-name="r" unicode="r" horiz-adv-x="241" 
d="M98 298q19 19 40 36t50 17q11 0 19.5 -6t8.5 -17q0 -12 -7.5 -18t-18.5 -6q-9 0 -19 6t-24 6q-13 0 -25.5 -5.5t-23.5 -12.5zM7 0q20 6 27 21.5t7 35.5v206q0 11 -4 27t-19 16l63 44v-293q0 -20 6.5 -35.5t26.5 -21.5h-107z" />
    <glyph glyph-name="s" unicode="s" horiz-adv-x="303" 
d="M24 101q15 -40 47.5 -67t77.5 -27q15 0 33 2t34 9t26.5 19t10.5 32q0 22 -16.5 36.5t-41.5 25.5t-54 20.5t-54 23t-41.5 33t-16.5 48.5q0 24 9.5 42.5t25.5 31t37 18.5t43 6q10 0 26.5 -2t33.5 -5.5t33 -8t25 -8.5v-66q-12 38 -47.5 61t-73.5 23q-13 0 -28.5 -4
t-28.5 -11.5t-21.5 -19t-8.5 -27.5q0 -26 16.5 -42t41.5 -28t54.5 -22t54.5 -22.5t41.5 -30.5t16.5 -47q0 -27 -10.5 -45.5t-28 -30.5t-40 -17t-45.5 -5q-31 0 -66.5 6.5t-64.5 15.5v83z" />
    <glyph glyph-name="t" unicode="t" horiz-adv-x="240" 
d="M29 350h28v76q0 21 9.5 38.5t30.5 25.5v-140h63v-9h-63v-251q0 -29 17.5 -51t48.5 -22q17 0 35.5 8.5t29.5 22.5q-11 -24 -36 -36t-49 -12q-46 0 -66 31.5t-20 72.5v237h-28v9z" />
    <glyph glyph-name="u" unicode="u" horiz-adv-x="355" 
d="M78 350v-239q0 -37 17 -66.5t59 -29.5q26 0 51 11.5t45 27.5q-20 -25 -49.5 -40.5t-61.5 -15.5q-27 0 -46 10t-31 27t-17.5 39t-5.5 46v144q0 13 -5 24t-20 12zM315 350v-257q0 -12 4.5 -29t20.5 -17l-64 -47v264q0 13 -5 24t-20 12z" />
    <glyph glyph-name="v" unicode="v" horiz-adv-x="389" 
d="M58 293q-8 20 -18.5 34.5t-31.5 22.5h107q-20 -8 -20 -32q0 -8 3 -16l108 -240l99 225q3 9 3 18q0 16 -8.5 29.5t-25.5 15.5h108q-20 -4 -36 -17.5t-24 -32.5l-134 -301z" />
    <glyph glyph-name="w" unicode="w" horiz-adv-x="569" 
d="M66 293q-8 20 -18.5 34.5t-30.5 22.5h107q-21 -9 -21 -33q0 -8 15 -44t34.5 -78t37 -80t23.5 -50l64 158l-31 70q-9 20 -19 34.5t-30 22.5h107q-21 -9 -21 -33q0 -8 15 -44t34.5 -78t37 -80t23.5 -50l89 222q4 12 4 18q0 16 -8.5 29.5t-25.5 15.5h107q-20 -4 -36 -17.5
t-24 -32.5l-123 -301l-94 211l-86 -211z" />
    <glyph glyph-name="x" unicode="x" horiz-adv-x="373" 
d="M124 350q-19 -5 -19 -26q0 -10 7 -21l83 -108l38 53l12.5 15t15 19.5t13 20.5t5.5 19q0 12 -8.5 19t-19.5 9h107q-26 -5 -47.5 -23.5t-36.5 -38.5l-74 -100q3 -4 22.5 -31t45 -60t51 -61.5t39.5 -35.5h-112q19 6 19 26q0 4 -1.5 10t-3.5 9l-84 110l-74 -101
q-10 -13 -10 -26q0 -12 8.5 -19t19.5 -9h-107q25 5 47.5 24.5t36.5 39.5l73 98l-106 140q-12 15 -23 27t-28 21h111z" />
    <glyph glyph-name="y" unicode="y" horiz-adv-x="387" 
d="M58 293q-8 20 -18.5 34.5t-31.5 22.5h107q-20 -8 -20 -32q0 -8 15 -44.5t34.5 -79t37.5 -81t24 -51.5q6 13 22.5 49.5t34 76.5t31.5 74t14 43q0 16 -8.5 29.5t-25.5 15.5h108q-20 -4 -36 -17.5t-24 -32.5q-48 -106 -94 -211t-94 -211q-8 -18 -22.5 -35.5t-36.5 -17.5
q-10 0 -18.5 7t-8.5 17q0 12 7.5 17.5t18.5 5.5q14 0 30 -0.5t24 15.5l55 124z" />
    <glyph glyph-name="z" unicode="z" horiz-adv-x="326" 
d="M246 343h-132q-26 0 -52 -18t-42 -38l26 63h251l-234 -344h158q28 0 53 23.5t38 45.5l-22 -75h-277z" />
    <glyph glyph-name="braceleft" unicode="{" horiz-adv-x="204" 
d="M175 -12q-46 24 -70 48.5t-35 48.5t-13 47t-3.5 44t-6 38.5t-20.5 30.5v12q15 11 19.5 27t6 35.5t4 42.5t14 47.5t35.5 51t69 53.5v-11q-42 -27 -54 -62.5t-17.5 -71.5t-16 -67.5t-48.5 -49.5v-2q26 -13 39 -32t19 -41.5t9 -47.5t9 -48.5t19.5 -44.5t40.5 -37v-11z" />
    <glyph glyph-name="bar" unicode="|" horiz-adv-x="211" 
d="M134 554v-615h-39v615h39z" />
    <glyph glyph-name="braceright" unicode="}" horiz-adv-x="200" 
d="M29 -3q28 19 42 41t20.5 46t9 48t8.5 46t18 40t38 30v3q-26 13 -39 32t-19 41.5t-9 47t-9 48t-19.5 45t-40.5 37.5v10q46 -23 70.5 -47.5t35 -48.5t12.5 -47.5t3 -44t5.5 -38.5t20.5 -31v-11q-15 -11 -19 -27t-5.5 -35.5t-4 -42.5t-14 -47.5t-36 -51t-68.5 -53.5v10z" />
    <glyph glyph-name="cent" unicode="&#xa2;" horiz-adv-x="488" 
d="M289 554v-62q39 -1 82 -11.5t74 -35.5v-70q-27 39 -67.5 70t-88.5 37v-475q54 0 96.5 33t70.5 77l9 -46q-34 -29 -82.5 -50t-93.5 -23v-59h-39v61q-46 6 -85 27t-68 53.5t-45.5 74.5t-16.5 90t16.5 90t45.5 74.5t68 53.5t85 27v64h39zM250 482q-40 -4 -69.5 -25
t-49 -51.5t-29.5 -67.5t-10 -75q0 -39 10 -79.5t29.5 -75.5t49 -61.5t69.5 -35.5v471z" />
    <glyph glyph-name="sterling" unicode="&#xa3;" horiz-adv-x="410" 
d="M239 8q51 0 84.5 25t58.5 67l-22 -100h-315v8q32 0 54 25.5t22 55.5q0 66 -29 127h-67v9h62l-28 62q-14 33 -14 66q0 69 39.5 108t108.5 39q20 0 39 -6t35 -17.5t25.5 -28t9.5 -38.5q0 -18 -11 -39t-31 -21q8 9 11 20.5t3 22.5q0 42 -21.5 71t-66.5 29q-48 0 -73 -28
t-25 -74q0 -28 4 -48.5t10.5 -38.5t15 -36t17.5 -43h156v-9h-153q12 -37 12 -77q0 -37 -15.5 -76t-51.5 -55h156z" />
    <glyph glyph-name="yen" unicode="&#xa5;" horiz-adv-x="456" 
d="M254 56q0 -20 7 -34.5t27 -21.5h-115q20 7 27 22t7 35v70h-88v9h88v48h-88v9h88v21l-119 221q-8 15 -21.5 32t-30.5 23h116q-9 -4 -13.5 -12.5t-4.5 -18.5q0 -13 7 -26l106 -201l96 185q4 8 6.5 15.5t2.5 15.5q0 14 -8 25.5t-21 16.5h99q-18 -6 -37 -26t-27 -37
l-104 -202v-32h94v-9h-94v-48h94v-9h-94v-71z" />
    <glyph glyph-name="section" unicode="&#xa7;" horiz-adv-x="284" 
d="M239 71q0 -20 -9.5 -34.5t-24 -24t-32.5 -14t-35 -4.5q-22 0 -41 9.5t-41 9.5q-15 0 -22 -13v88q11 -33 38 -60.5t65 -27.5q14 0 28 3t26 10t19.5 18.5t7.5 27.5q0 20 -13 33.5t-32.5 24t-42.5 20.5t-42.5 22.5t-32.5 30t-13 44.5q0 22 8.5 37t22.5 24t32 13t37 4
q-16 8 -34 16.5t-32.5 20t-24 27.5t-9.5 38q0 39 28.5 58.5t63.5 19.5q24 0 45 -12t31 -12q8 0 13 6t7 13q-1 -18 -2 -36.5t-1 -36.5q-9 31 -36 52t-59 21q-26 0 -48 -13.5t-22 -42.5q0 -30 27.5 -47.5t61 -33.5t61 -38t27.5 -61q0 -19 -9 -33.5t-23 -24t-31 -14.5t-34 -5
q17 -8 34 -17t31 -21t23 -28t9 -37zM63 242q6 -14 12 -23t13.5 -15.5t17.5 -11.5t23 -12q14 0 30 2.5t29 9t21.5 18t8.5 29.5q0 15 -8.5 27.5t-21 21.5t-27.5 14t-29 5q-28 0 -49 -13.5t-21 -44.5v-2l1 -3v-2z" />
    <glyph glyph-name="dieresis" unicode="&#xa8;" horiz-adv-x="209" 
d="M93 548q0 -19 -19 -19q-20 0 -20 19q0 20 20 20q19 0 19 -20zM158 548q0 -19 -20 -19t-20 19q0 20 20 20t20 -20z" />
    <glyph glyph-name="copyright" unicode="&#xa9;" horiz-adv-x="662" 
d="M627 304q0 -61 -23.5 -115t-64 -94t-94.5 -63.5t-115 -23.5t-115 23.5t-94 63.5t-63.5 94t-23.5 115t23.5 115t63.5 94t94 63.5t115 23.5q62 0 116 -23t94 -63.5t63.5 -94t23.5 -115.5zM52 304q0 -57 22 -108t59.5 -88.5t88.5 -59.5t108 -22q58 0 108.5 22t88.5 59.5
t60 88t22 108.5t-22 108.5t-60 88.5t-88.5 60t-108.5 22q-57 0 -108 -22t-88.5 -60t-59.5 -89t-22 -108zM447 191q-23 -20 -55.5 -34t-64.5 -14q-34 0 -64.5 12.5t-53 35t-35.5 52.5t-13 64q0 35 13 65t35.5 52t53 34.5t64.5 12.5q27 0 56 -7t51 -24v-46q-20 29 -50.5 50
t-66.5 21q-30 0 -52 -13t-36.5 -34t-22 -47t-7.5 -52q0 -28 8 -58.5t24.5 -55t41 -40.5t57.5 -16q36 0 64.5 22t46.5 51z" />
    <glyph glyph-name="guillemotleft" unicode="&#xab;" horiz-adv-x="278" 
d="M144 141l-9 -39l-99 140l99 133l9 -35l-72 -98zM243 141l-9 -39l-99 140l99 133l9 -35l-72 -98z" />
    <glyph glyph-name="registered" unicode="&#xae;" horiz-adv-x="662" 
d="M627 304q0 -61 -23.5 -115t-64 -94t-94.5 -63.5t-115 -23.5t-115 23.5t-94 63.5t-63.5 94t-23.5 115t23.5 115t63.5 94t94 63.5t115 23.5q62 0 116 -23t94 -63.5t63.5 -94t23.5 -115.5zM52 304q0 -57 22 -108t59.5 -88.5t88.5 -59.5t108 -22q58 0 108.5 22t88.5 59.5
t60 88t22 108.5t-22 108.5t-60 88.5t-88.5 60t-108.5 22q-57 0 -108 -22t-88.5 -60t-59.5 -89t-22 -108zM263 182q0 -12 5 -22t17 -14h-76q13 5 17.5 14.5t4.5 22.5v248q0 12 -4.5 22t-17.5 14h109q23 0 45.5 -5t40 -16.5t28.5 -30t11 -45.5q0 -38 -24.5 -63t-60.5 -33
l65 -101q6 -9 14.5 -16.5t19.5 -10.5h-51l-82 126h-61v-90zM263 277h53q43 0 68 25t25 68q0 45 -25 68.5t-68 23.5h-53v-185z" />
    <glyph glyph-name="macron" unicode="&#xaf;" horiz-adv-x="300" 
d="M245 539v-27h-183v27h183z" />
    <glyph glyph-name="degree" unicode="&#xb0;" horiz-adv-x="201" 
d="M134 551q0 -14 -9 -23.5t-23 -9.5t-23 9.5t-9 23.5t9 23.5t23 9.5t23 -9.5t9 -23.5zM86 551q0 -7 3.5 -17t12.5 -10q8 0 11.5 10.5t3.5 16.5t-3.5 16.5t-11.5 10.5q-9 0 -12.5 -10t-3.5 -17z" />
    <glyph glyph-name="twosuperior" unicode="&#xb2;" horiz-adv-x="230" 
d="M141 441q14 0 29 3.5t23 17.5l-11 -44h-159q8 4 21 16.5t26.5 27.5t25.5 29t18 22q17 23 31.5 49t14.5 56q0 49 -50 49q-22 0 -38.5 -15t-26.5 -33l-2 2q11 23 32.5 42t49.5 19q29 0 46 -17.5t17 -46.5q0 -22 -14.5 -46.5t-35 -48.5t-42.5 -45.5t-36 -36.5h81z" />
    <glyph glyph-name="threesuperior" unicode="&#xb3;" horiz-adv-x="255" 
d="M211 498q0 -18 -8.5 -33t-22 -25.5t-30.5 -16.5t-34 -6q-20 0 -38 7.5t-33 20.5l4 4q24 -24 56 -24q35 0 57.5 22.5t22.5 57.5q0 28 -17.5 39.5t-42.5 11.5h-3l-7 -1h-3q18 12 38.5 30.5t20.5 42.5q0 20 -15 29.5t-33 9.5q-21 0 -37 -13.5t-27 -30.5l-3 1q14 24 34 41
t49 17q19 0 36 -11.5t17 -32.5q0 -29 -22 -46.5t-42 -31.5q15 3 29.5 -0.5t26.5 -12t19.5 -21.5t7.5 -28z" />
    <glyph glyph-name="periodcentered" unicode="&#xb7;" horiz-adv-x="152" 
d="M107 198q0 -13 -9.5 -22.5t-22.5 -9.5t-22.5 9.5t-9.5 22.5q0 14 9 22.5t23 8.5q13 0 22.5 -8.5t9.5 -22.5z" />
    <glyph glyph-name="onesuperior" unicode="&#xb9;" horiz-adv-x="119" 
d="M69 448q0 -10 4 -18t14 -12h-62q11 4 14.5 12t3.5 19v192q0 17 -17 17l-2 -1h-1l46 25v-234z" />
    <glyph glyph-name="guillemotright" unicode="&#xbb;" horiz-adv-x="278" 
d="M243 242l-99 -140l-9 39l72 101l-72 98l9 35zM144 242l-99 -140l-9 39l72 101l-72 98l9 35z" />
    <glyph glyph-name="questiondown" unicode="&#xbf;" horiz-adv-x="420" 
d="M189 458q0 14 9 23.5t23 9.5t23 -9.5t9 -23.5q0 -13 -10 -21.5t-22 -8.5t-22 9t-10 21zM65 106q0 49 23.5 85t52 69t52 66.5t23.5 76.5h8q0 -43 -16.5 -79t-36.5 -70.5t-36.5 -69.5t-16.5 -76q0 -39 26.5 -61.5t64.5 -22.5q40 0 71.5 26t48.5 60l6 -2
q-11 -22 -26.5 -42.5t-35 -36.5t-42.5 -25.5t-50 -9.5q-52 0 -84 29t-32 83z" />
    <glyph glyph-name="Agrave" unicode="&#xc0;" horiz-adv-x="493" 
d="M203 603h41l22 -60h-13zM36 0q16 6 30.5 21.5t21.5 31.5l169 443l167 -441q7 -17 18 -33t30 -22h-123q12 5 20 16.5t8 24.5q0 8 -7 28.5t-16.5 44.5t-18.5 46.5l-13 32.5h-171l-46 -119l-4 -14t-2 -15q0 -19 11 -29.5t28 -15.5h-102zM318 200l-82 219l-83 -219h165z" />
    <glyph glyph-name="Aacute" unicode="&#xc1;" horiz-adv-x="493" 
d="M257 543l20 60h39l-47 -60h-12zM36 0q16 6 30.5 21.5t21.5 31.5l169 443l167 -441q7 -17 18 -33t30 -22h-123q12 5 20 16.5t8 24.5q0 8 -7 28.5t-16.5 44.5t-18.5 46.5l-13 32.5h-171l-46 -119l-4 -14t-2 -15q0 -19 11 -29.5t28 -15.5h-102zM318 200l-82 219l-83 -219
h165z" />
    <glyph glyph-name="Acircumflex" unicode="&#xc2;" horiz-adv-x="493" 
d="M197 543l44 56h24l44 -56h-9l-47 38l-44 -38h-12zM36 0q16 6 30.5 21.5t21.5 31.5l169 443l167 -441q7 -17 18 -33t30 -22h-123q12 5 20 16.5t8 24.5q0 8 -7 28.5t-16.5 44.5t-18.5 46.5l-13 32.5h-171l-46 -119l-4 -14t-2 -15q0 -19 11 -29.5t28 -15.5h-102zM153 200
h165l-82 219z" />
    <glyph glyph-name="Atilde" unicode="&#xc3;" horiz-adv-x="493" 
d="M195 538q7 12 20.5 19t27.5 7q19 0 29.5 -4.5t24.5 -4.5q12 0 30 7q-13 -25 -47 -25q-18 0 -29.5 5t-25.5 5q-15 0 -30 -9zM36 0q16 6 30.5 21.5t21.5 31.5l169 443l167 -441q7 -17 18 -33t30 -22h-123q12 5 20 16.5t8 24.5q0 8 -7 28.5t-16.5 44.5t-18.5 46.5l-13 32.5
h-171l-46 -119l-4 -14t-2 -15q0 -19 11 -29.5t28 -15.5h-102zM318 200l-82 219l-83 -219h165z" />
    <glyph glyph-name="Adieresis" unicode="&#xc4;" horiz-adv-x="493" 
d="M208 548q0 20 19 20q20 0 20 -20q0 -19 -20 -19q-19 0 -19 19zM272 548q0 20 20 20t20 -20q0 -19 -20 -19t-20 19zM36 0q16 6 30.5 21.5t21.5 31.5l169 443l167 -441q7 -17 18 -33t30 -22h-123q12 5 20 16.5t8 24.5q0 8 -7 28.5t-16.5 44.5t-18.5 46.5l-13 32.5h-171
l-46 -119l-4 -14t-2 -15q0 -19 11 -29.5t28 -15.5h-102zM318 200l-82 219l-83 -219h165z" />
    <glyph glyph-name="Aring" unicode="&#xc5;" horiz-adv-x="493" 
d="M227 551q0 14 9 23.5t23 9.5t23 -9.5t9 -23.5t-9 -23.5t-23 -9.5t-23 9.5t-9 23.5zM244 551q0 -11 4.5 -19t10.5 -8t10.5 8t4.5 19t-4.5 19t-10.5 8t-10.5 -8t-4.5 -19zM36 0q16 6 30.5 21.5t21.5 31.5l169 443l167 -441q7 -17 18 -33t30 -22h-123q12 5 20 16.5t8 24.5
q0 8 -7 28.5t-16.5 44.5t-18.5 46.5l-13 32.5h-171l-46 -119l-4 -14t-2 -15q0 -19 11 -29.5t28 -15.5h-102zM318 200l-82 219l-83 -219h165z" />
    <glyph glyph-name="AE" unicode="&#xc6;" horiz-adv-x="719" 
d="M130 45q0 -14 10 -27t24 -18h-102q17 7 32.5 21.5t24.5 31.5l230 419q-9 14 -25 18h305l19 -83q-37 75 -122 75h-121v-229h83q23 0 41 9.5t25 32.5v-91q-7 23 -25.5 32t-40.5 9h-83v-237h120q42 0 75.5 19t52.5 56l-20 -83h-309q20 7 27 22t7 35v188h-123
q-5 -9 -22 -38.5t-35.5 -63.5t-33 -62.5t-14.5 -35.5zM353 464q-28 -54 -56.5 -105.5t-57.5 -105.5h119v181q0 16 -5 30z" />
    <glyph glyph-name="Ccedilla" unicode="&#xc7;" horiz-adv-x="500" 
d="M35 245q0 52 19.5 97t53 78.5t79 52.5t97.5 19q46 0 90 -12t71 -35v-70q-31 44 -76 75.5t-95 31.5q-45 0 -79.5 -20t-58 -52.5t-35.5 -72.5t-12 -80q0 -51 16.5 -96.5t44.5 -80t66 -54.5t80 -19q24 1 47 10.5t43.5 25t38.5 35t31 39.5l9 -46q-16 -14 -38 -27t-46 -23.5
t-49 -16.5t-48 -6q-5 0 -9.5 0.5t-9.5 0.5v-17q26 -14 26 -38q0 -17 -12 -25.5t-28 -8.5q-15 0 -29 8h3q13 0 24.5 6t17 15t3.5 19t-15 18v24q-47 5 -87 25.5t-69.5 53.5t-46.5 75.5t-17 90.5z" />
    <glyph glyph-name="Egrave" unicode="&#xc8;" horiz-adv-x="389" 
d="M162 603h41l22 -60h-13zM69 434q0 19 -7 34.5t-27 21.5h305l19 -83q-40 75 -122 75h-121v-229h83q23 0 40.5 9.5t25.5 32.5v-91q-8 23 -25.5 32t-40.5 9h-83v-237h120q42 0 75 19t53 56l-20 -83h-309q20 6 27 22t7 35v377z" />
    <glyph glyph-name="Eacute" unicode="&#xc9;" horiz-adv-x="389" 
d="M200 543l19 60h40l-48 -60h-11zM69 434q0 19 -7 34.5t-27 21.5h305l19 -83q-40 75 -122 75h-121v-229h83q23 0 40.5 9.5t25.5 32.5v-91q-8 23 -25.5 32t-40.5 9h-83v-237h120q42 0 75 19t53 56l-20 -83h-309q20 6 27 22t7 35v377z" />
    <glyph glyph-name="Ecircumflex" unicode="&#xca;" horiz-adv-x="389" 
d="M203 601h24l45 -56h-10l-46 38l-45 -38h-11zM69 434q0 19 -7 34.5t-27 21.5h305l19 -83q-40 75 -122 75h-121v-229h83q23 0 40.5 9.5t25.5 32.5v-91q-8 23 -25.5 32t-40.5 9h-83v-237h120q42 0 75 19t53 56l-20 -83h-309q20 6 27 22t7 35v377z" />
    <glyph glyph-name="Edieresis" unicode="&#xcb;" horiz-adv-x="389" 
d="M177 529q-19 0 -19 19q0 20 19 20q20 0 20 -20q0 -19 -20 -19zM241 529q-19 0 -19 19q0 20 19 20q20 0 20 -20q0 -19 -20 -19zM35 0q20 6 27 22t7 35v377q0 19 -7 34.5t-27 21.5h305l19 -83q-40 75 -122 75h-121v-229h83q23 0 40.5 9.5t25.5 32.5v-91q-8 23 -25.5 32
t-40.5 9h-83v-237h120q42 0 75 19t53 56l-20 -83h-309z" />
    <glyph glyph-name="Igrave" unicode="&#xcc;" horiz-adv-x="202" 
d="M45 603h41l22 -60h-13zM150 490q-20 -6 -27 -21.5t-7 -34.5v-377q0 -19 7 -35t27 -22h-115q20 6 27 22t7 35v377q0 19 -7 34.5t-27 21.5h115z" />
    <glyph glyph-name="Iacute" unicode="&#xcd;" horiz-adv-x="202" 
d="M95 543l19 60h40l-48 -60h-11zM150 490q-20 -6 -27 -21.5t-7 -34.5v-377q0 -19 7 -35t27 -22h-115q20 6 27 22t7 35v377q0 19 -7 34.5t-27 21.5h115z" />
    <glyph glyph-name="Icircumflex" unicode="&#xce;" horiz-adv-x="202" 
d="M38 543l43 56h25l44 -56h-10l-46 38l-45 -38h-11zM150 490q-20 -6 -27 -21.5t-7 -34.5v-377q0 -19 7 -35t27 -22h-115q20 6 27 22t7 35v377q0 19 -7 34.5t-27 21.5h115z" />
    <glyph glyph-name="Idieresis" unicode="&#xcf;" horiz-adv-x="202" 
d="M63 529q-20 0 -20 19q0 20 20 20t20 -20q0 -19 -20 -19zM127 529q-19 0 -19 19q0 20 19 20q20 0 20 -20q0 -19 -20 -19zM35 0q20 6 27 22t7 35v377q0 19 -7 34.5t-27 21.5h115q-20 -6 -27 -21.5t-7 -34.5v-377q0 -19 7 -35t27 -22h-115z" />
    <glyph glyph-name="Eth" unicode="&#xd0;" horiz-adv-x="498" 
d="M463 245q0 -50 -18 -94.5t-50.5 -78t-76 -53t-94.5 -19.5h-189q20 6 27 22t7 35v174h-69v17h69v185q0 18 -7.5 34.5t-26.5 22.5h181q51 0 95.5 -19.5t78.5 -52.5t53.5 -77.5t19.5 -95.5zM116 9h58q108 0 172 64t64 172q0 54 -17 97.5t-47.5 74.5t-74 48t-97.5 17h-58
v-234h57v-17h-57v-222z" />
    <glyph glyph-name="Ntilde" unicode="&#xd1;" horiz-adv-x="480" 
d="M195 538q7 12 20.5 19t27.5 7q19 0 29.5 -4.5t24.5 -4.5q12 0 30 7q-13 -25 -47 -25q-18 0 -29.5 5t-25.5 5q-15 0 -30 -9zM36 0q22 7 35.5 22.5t13.5 39.5v364q0 48 -49 64h89l281 -395v333q0 24 -13.5 39.5t-35.5 22.5h105q-22 -7 -35 -22.5t-13 -39.5v-428l-322 453
v-391q0 -25 14 -40t36 -22h-106z" />
    <glyph glyph-name="Ograve" unicode="&#xd2;" horiz-adv-x="547" 
d="M225 603h42l21 -60h-12zM36 245q0 51 19.5 96t53 78.5t78.5 53t96 19.5t96 -19.5t78.5 -53t53 -78.5t19.5 -96t-19.5 -96t-53 -78.5t-78.5 -53t-96 -19.5t-96 19.5t-78.5 53t-53 78.5t-19.5 96zM91 257q0 -42 14.5 -87t41 -81.5t64.5 -60t85 -23.5q44 0 77.5 21t56.5 54
t35 73.5t12 79.5q0 43 -14 87.5t-40.5 81t-64.5 59.5t-86 23q-43 0 -77 -21t-57 -54t-35 -73t-12 -79z" />
    <glyph glyph-name="Oacute" unicode="&#xd3;" horiz-adv-x="547" 
d="M273 543l20 60h40l-48 -60h-12zM36 245q0 51 19.5 96t53 78.5t78.5 53t96 19.5t96 -19.5t78.5 -53t53 -78.5t19.5 -96t-19.5 -96t-53 -78.5t-78.5 -53t-96 -19.5t-96 19.5t-78.5 53t-53 78.5t-19.5 96zM272 484q-43 0 -77 -21t-57 -54t-35 -73t-12 -79q0 -42 14.5 -87
t41 -81.5t64.5 -60t85 -23.5q44 0 77.5 21t56.5 54t35 73.5t12 79.5q0 43 -14 87.5t-40.5 81t-64.5 59.5t-86 23z" />
    <glyph glyph-name="Ocircumflex" unicode="&#xd4;" horiz-adv-x="547" 
d="M266 601h25l44 -56h-10l-46 38l-45 -38h-11zM36 245q0 51 19.5 96t53 78.5t78.5 53t96 19.5t96 -19.5t78.5 -53t53 -78.5t19.5 -96t-19.5 -96t-53 -78.5t-78.5 -53t-96 -19.5t-96 19.5t-78.5 53t-53 78.5t-19.5 96zM272 484q-43 0 -77 -21t-57 -54t-35 -73t-12 -79
q0 -42 14.5 -87t41 -81.5t64.5 -60t85 -23.5q44 0 77.5 21t56.5 54t35 73.5t12 79.5q0 43 -14 87.5t-40.5 81t-64.5 59.5t-86 23z" />
    <glyph glyph-name="Otilde" unicode="&#xd5;" horiz-adv-x="547" 
d="M218 538q7 12 20.5 19t27.5 7q19 0 29.5 -4.5t24.5 -4.5q12 0 30 7q-13 -25 -47 -25q-18 0 -29.5 5t-25.5 5q-15 0 -30 -9zM36 245q0 51 19.5 96t53 78.5t78.5 53t96 19.5t96 -19.5t78.5 -53t53 -78.5t19.5 -96t-19.5 -96t-53 -78.5t-78.5 -53t-96 -19.5t-96 19.5
t-78.5 53t-53 78.5t-19.5 96zM272 484q-43 0 -77 -21t-57 -54t-35 -73t-12 -79q0 -42 14.5 -87t41 -81.5t64.5 -60t85 -23.5q44 0 77.5 21t56.5 54t35 73.5t12 79.5q0 43 -14 87.5t-40.5 81t-64.5 59.5t-86 23z" />
    <glyph glyph-name="Odieresis" unicode="&#xd6;" horiz-adv-x="547" 
d="M250 529q-20 0 -20 19q0 20 20 20t20 -20q0 -19 -20 -19zM314 529q-19 0 -19 19q0 20 19 20q20 0 20 -20q0 -19 -20 -19zM36 245q0 51 19.5 96t53 78.5t78.5 53t96 19.5t96 -19.5t78.5 -53t53 -78.5t19.5 -96t-19.5 -96t-53 -78.5t-78.5 -53t-96 -19.5t-96 19.5t-78.5 53
t-53 78.5t-19.5 96zM272 484q-43 0 -77 -21t-57 -54t-35 -73t-12 -79q0 -42 14.5 -87t41 -81.5t64.5 -60t85 -23.5q44 0 77.5 21t56.5 54t35 73.5t12 79.5q0 43 -14 87.5t-40.5 81t-64.5 59.5t-86 23z" />
    <glyph glyph-name="multiply" unicode="&#xd7;" horiz-adv-x="291" 
d="M142 232l-76 -126h-31l91 152l-91 151h31l76 -126l75 126h31l-90 -151l90 -152h-31z" />
    <glyph glyph-name="Oslash" unicode="&#xd8;" horiz-adv-x="547" 
d="M36 245q0 51 19.5 96t53 78.5t78.5 53t96 19.5q71 0 129 -36l57 85h20l-63 -94q48 -34 76 -86.5t28 -115.5q0 -51 -19.5 -96t-53 -78.5t-78.5 -53t-96 -19.5q-37 0 -69.5 10t-61.5 28l-56 -84h-20l62 93q-47 34 -74.5 86t-27.5 114zM244 482q-40 -7 -71 -32.5t-51 -62.5
t-27.5 -82.5t0.5 -93.5q14 -79 64 -134l235 351q-26 26 -58 41t-66 15h-13.5t-12.5 -2zM170 64q27 -28 60 -44t68 -16q7 0 13.5 1t12.5 2q40 7 71.5 32.5t51 63t26.5 83t-1 93.5q-14 83 -67 138z" />
    <glyph glyph-name="Ugrave" unicode="&#xd9;" horiz-adv-x="476" 
d="M199 594h40l22 -61h-13zM144 490q-20 -6 -27 -22t-7 -34v-261q0 -32 8 -61.5t25 -51.5t43 -35t61 -13q75 0 107 43.5t32 112.5v260q0 25 -13.5 40t-35.5 22h107q-23 -7 -36.5 -22.5t-13.5 -39.5v-261q0 -79 -37 -125.5t-120 -46.5q-85 0 -130 44.5t-45 129.5v265
q0 18 -6.5 34t-26.5 22h115z" />
    <glyph glyph-name="Uacute" unicode="&#xda;" horiz-adv-x="476" 
d="M227 533l20 61h41l-48 -61h-13zM144 490q-20 -6 -27 -22t-7 -34v-261q0 -32 8 -61.5t25 -51.5t43 -35t61 -13q75 0 107 43.5t32 112.5v260q0 25 -13.5 40t-35.5 22h107q-23 -7 -36.5 -22.5t-13.5 -39.5v-261q0 -79 -37 -125.5t-120 -46.5q-85 0 -130 44.5t-45 129.5v265
q0 18 -6.5 34t-26.5 22h115z" />
    <glyph glyph-name="Ucircumflex" unicode="&#xdb;" horiz-adv-x="476" 
d="M186 531l43 56h24l45 -56h-10l-47 39l-44 -39h-11zM144 490q-20 -6 -27 -22t-7 -34v-261q0 -32 8 -61.5t25 -51.5t43 -35t61 -13q75 0 107 43.5t32 112.5v260q0 25 -13.5 40t-35.5 22h107q-23 -7 -36.5 -22.5t-13.5 -39.5v-261q0 -79 -37 -125.5t-120 -46.5
q-85 0 -130 44.5t-45 129.5v265q0 18 -6.5 34t-26.5 22h115z" />
    <glyph glyph-name="Udieresis" unicode="&#xdc;" horiz-adv-x="476" 
d="M270 552q0 7 5.5 13t12.5 6q9 0 15 -6t6 -13q0 -9 -6 -14.5t-14 -5.5t-13.5 5.5t-5.5 14.5zM209 532q-9 0 -15 6t-6 14t6 13.5t15 5.5q7 0 12.5 -5.5t5.5 -13.5t-5.5 -14t-12.5 -6zM144 490q-20 -6 -27 -22t-7 -34v-261q0 -32 8 -61.5t25 -51.5t43 -35t61 -13
q75 0 107 43.5t32 112.5v260q0 25 -13.5 40t-35.5 22h107q-23 -7 -36.5 -22.5t-13.5 -39.5v-261q0 -79 -37 -125.5t-120 -46.5q-85 0 -130 44.5t-45 129.5v265q0 18 -6.5 34t-26.5 22h115z" />
    <glyph glyph-name="Yacute" unicode="&#xdd;" horiz-adv-x="418" 
d="M217 543l20 60h40l-48 -60h-12zM69 435q-8 15 -22 32.5t-31 22.5h116q-9 -4 -13 -12.5t-4 -17.5q0 -11 7 -27l105 -201l96 185q4 7 7 15t3 16q0 14 -8 25.5t-22 16.5h100q-19 -6 -37.5 -26t-26.5 -37l-105 -202v-169q0 -19 7 -34.5t27 -21.5h-115q20 6 27 22t7 35v157z
" />
    <glyph glyph-name="germandbls" unicode="&#xdf;" horiz-adv-x="442" 
d="M116 64q0 -20 7 -38.5t29 -25.5h-120q22 7 29.5 25.5t7.5 38.5v298q0 60 34 99.5t97 39.5q23 0 46 -4.5t41.5 -16t30 -29.5t11.5 -45q0 -30 -13.5 -51t-30 -38t-30 -32.5t-13.5 -35.5q0 -12 11.5 -19.5t29.5 -14t38 -14t38 -19t29.5 -29t11.5 -44.5q0 -51 -36.5 -80
t-84.5 -29q-15 0 -29.5 2.5t-28.5 5.5q21 0 43.5 6.5t41 19t30 31t11.5 42.5q0 31 -18 49.5t-39.5 33t-39.5 29t-18 36.5q0 19 8.5 32.5t18 27.5t18 32t8.5 46q0 18 -7 36t-19 32t-28.5 23t-35.5 9q-34 0 -56.5 -23t-22.5 -57v-349z" />
    <glyph glyph-name="agrave" unicode="&#xe0;" horiz-adv-x="326" 
d="M155 454l22 -61h-12l-51 61h41zM13 74q0 42 28 64t64 33t69.5 17t45.5 17v39q0 17 -3.5 34.5t-12 31.5t-22.5 23t-34 9q-9 0 -21 -2.5t-23.5 -7.5t-19 -13t-7.5 -19q0 -7 1 -11l2 -8q1 -4 1 -11q0 -26 -27 -26q-12 0 -18.5 8.5t-6.5 19.5q0 18 14 32.5t34 25t41.5 16
t36.5 5.5q55 0 79.5 -27.5t24.5 -81.5v-177q0 -16 6.5 -29.5t25.5 -13.5q16 0 28 9q-5 -14 -20.5 -23t-29.5 -9q-32 0 -40.5 20t-8.5 46v128q-23 -7 -50.5 -14t-51.5 -19t-40 -31.5t-16 -50.5q0 -29 18.5 -46t47.5 -17q21 0 41.5 5.5t37.5 17.5q-21 -22 -46.5 -30.5
t-56.5 -8.5q-35 0 -63 18.5t-28 56.5z" />
    <glyph glyph-name="aacute" unicode="&#xe1;" horiz-adv-x="326" 
d="M179 454h39l-47 -61h-12zM104 -1q-35 0 -63 18.5t-28 56.5q0 42 28 64t64 33t69.5 17t45.5 17v39q0 17 -3.5 34.5t-12 31.5t-22.5 23t-34 9q-9 0 -21 -2.5t-23.5 -7.5t-19 -13t-7.5 -19q0 -7 1 -11l2 -8q1 -4 1 -11q0 -26 -27 -26q-12 0 -18.5 8.5t-6.5 19.5
q0 18 14 32.5t34 25t41.5 16t36.5 5.5q55 0 79.5 -27.5t24.5 -81.5v-177q0 -16 6.5 -29.5t25.5 -13.5q16 0 28 9q-5 -14 -20.5 -23t-29.5 -9q-32 0 -40.5 20t-8.5 46v128q-23 -7 -50.5 -14t-51.5 -19t-40 -31.5t-16 -50.5q0 -29 18.5 -46t47.5 -17q21 0 41.5 5.5t37.5 17.5
q-21 -22 -46.5 -30.5t-56.5 -8.5z" />
    <glyph glyph-name="acircumflex" unicode="&#xe2;" horiz-adv-x="326" 
d="M155 449h24l44 -56h-9l-47 39l-45 -39h-11zM13 74q0 42 28 64t64 33t69.5 17t45.5 17v39q0 17 -3.5 34.5t-12 31.5t-22.5 23t-34 9q-9 0 -21 -2.5t-23.5 -7.5t-19 -13t-7.5 -19q0 -7 1 -11l2 -8q1 -4 1 -11q0 -26 -27 -26q-12 0 -18.5 8.5t-6.5 19.5q0 18 14 32.5t34 25
t41.5 16t36.5 5.5q55 0 79.5 -27.5t24.5 -81.5v-177q0 -16 6.5 -29.5t25.5 -13.5q16 0 28 9q-5 -14 -20.5 -23t-29.5 -9q-32 0 -40.5 20t-8.5 46v128q-23 -7 -50.5 -14t-51.5 -19t-40 -31.5t-16 -50.5q0 -29 18.5 -46t47.5 -17q21 0 41.5 5.5t37.5 17.5q-21 -22 -46.5 -30.5
t-56.5 -8.5q-35 0 -63 18.5t-28 56.5z" />
    <glyph glyph-name="atilde" unicode="&#xe3;" horiz-adv-x="326" 
d="M106 397q8 11 21.5 18.5t27.5 7.5q19 0 29.5 -4.5t24.5 -4.5q5 0 12.5 1t17.5 6q-13 -25 -47 -25q-18 0 -29.5 4.5t-25.5 4.5q-15 0 -31 -8zM13 74q0 42 28 64t64 33t69.5 17t45.5 17v39q0 17 -3.5 34.5t-12 31.5t-22.5 23t-34 9q-9 0 -21 -2.5t-23.5 -7.5t-19 -13
t-7.5 -19q0 -7 1 -11l2 -8q1 -4 1 -11q0 -26 -27 -26q-12 0 -18.5 8.5t-6.5 19.5q0 18 14 32.5t34 25t41.5 16t36.5 5.5q55 0 79.5 -27.5t24.5 -81.5v-177q0 -16 6.5 -29.5t25.5 -13.5q16 0 28 9q-5 -14 -20.5 -23t-29.5 -9q-32 0 -40.5 20t-8.5 46v128q-23 -7 -50.5 -14
t-51.5 -19t-40 -31.5t-16 -50.5q0 -29 18.5 -46t47.5 -17q21 0 41.5 5.5t37.5 17.5q-21 -22 -46.5 -30.5t-56.5 -8.5q-35 0 -63 18.5t-28 56.5z" />
    <glyph glyph-name="adieresis" unicode="&#xe4;" horiz-adv-x="326" 
d="M140 433q20 0 20 -20t-20 -20t-20 20t20 20zM185 413q0 20 19 20q20 0 20 -20t-20 -20q-19 0 -19 20zM13 74q0 42 28 64t64 33t69.5 17t45.5 17v39q0 17 -3.5 34.5t-12 31.5t-22.5 23t-34 9q-9 0 -21 -2.5t-23.5 -7.5t-19 -13t-7.5 -19q0 -7 1 -11l2 -8q1 -4 1 -11
q0 -26 -27 -26q-12 0 -18.5 8.5t-6.5 19.5q0 18 14 32.5t34 25t41.5 16t36.5 5.5q55 0 79.5 -27.5t24.5 -81.5v-177q0 -16 6.5 -29.5t25.5 -13.5q16 0 28 9q-5 -14 -20.5 -23t-29.5 -9q-32 0 -40.5 20t-8.5 46v128q-23 -7 -50.5 -14t-51.5 -19t-40 -31.5t-16 -50.5
q0 -29 18.5 -46t47.5 -17q21 0 41.5 5.5t37.5 17.5q-21 -22 -46.5 -30.5t-56.5 -8.5q-35 0 -63 18.5t-28 56.5z" />
    <glyph glyph-name="aring" unicode="&#xe5;" horiz-adv-x="326" 
d="M123 415q0 14 9 23.5t23 9.5t23.5 -9.5t9.5 -23.5t-9.5 -23.5t-23.5 -9.5t-23 9.5t-9 23.5zM140 415q0 -11 4.5 -19t10.5 -8t11 8t5 19q0 12 -5 19.5t-11 7.5q-15 0 -15 -27zM104 -1q-35 0 -63 18.5t-28 56.5q0 42 28 64t64 33t69.5 17t45.5 17v39q0 17 -3.5 34.5
t-12 31.5t-22.5 23t-34 9q-9 0 -21 -2.5t-23.5 -7.5t-19 -13t-7.5 -19q0 -7 1 -11l2 -8q1 -4 1 -11q0 -26 -27 -26q-12 0 -18.5 8.5t-6.5 19.5q0 18 14 32.5t34 25t41.5 16t36.5 5.5q55 0 79.5 -27.5t24.5 -81.5v-177q0 -16 6.5 -29.5t25.5 -13.5q16 0 28 9
q-5 -14 -20.5 -23t-29.5 -9q-32 0 -40.5 20t-8.5 46v128q-23 -7 -50.5 -14t-51.5 -19t-40 -31.5t-16 -50.5q0 -29 18.5 -46t47.5 -17q21 0 41.5 5.5t37.5 17.5q-21 -22 -46.5 -30.5t-56.5 -8.5z" />
    <glyph glyph-name="ae" unicode="&#xe6;" horiz-adv-x="545" 
d="M13 74q0 42 28 64t64 33t69.5 17t45.5 17v39q0 17 -3.5 34.5t-12 31.5t-22.5 23t-34 9q-9 0 -21 -2.5t-23.5 -7.5t-19 -13t-7.5 -19q0 -7 1 -11l2 -8q1 -4 1 -11q0 -26 -27 -26q-12 0 -18.5 8.5t-6.5 19.5q0 18 14 32.5t34 25t41.5 16t36.5 5.5q43 0 67 -17t32 -50
q23 31 58.5 48t83.5 17q32 0 56 -13t40 -35t24 -49.5t8 -56.5h-262q0 -31 7 -62t23 -55t41 -39t62 -15q16 0 35 3t37.5 9.5t33.5 17t23 25.5q-16 -40 -54.5 -62t-80.5 -22q-36 0 -67 13.5t-53.5 36.5t-35.5 54.5t-13 67.5q0 5 0.5 8.5t0.5 7.5v2l-1 6v2q-23 -7 -50.5 -14
t-51.5 -19t-40 -31.5t-16 -50.5q0 -29 18.5 -46t47.5 -17q21 0 41.5 5.5t37.5 17.5q-21 -22 -46.5 -30.5t-56.5 -8.5q-35 0 -63 18.5t-28 56.5zM387 343q-26 0 -48.5 -12.5t-39.5 -32t-26.5 -44t-9.5 -49.5h181q23 0 34 15t11 35q0 21 -9 37.5t-23 28t-32.5 17t-37.5 5.5z
" />
    <glyph glyph-name="ccedilla" unicode="&#xe7;" horiz-adv-x="500" 
d="M291 -56q0 -17 -12.5 -25.5t-27.5 -8.5t-29 8q15 0 32 8.5t17 26.5q0 8 -5 13.5t-11 9.5v24q-48 5 -88 26t-69.5 54t-46 75t-16.5 90q0 52 19.5 97t53.5 78.5t79 52.5t97 19q41 0 85 -10.5t76 -36.5v-70q-14 21 -32.5 40t-41 34t-47 24t-50.5 9q-45 0 -79.5 -20
t-58 -52.5t-35.5 -72.5t-12 -80q0 -44 14 -88.5t41 -80.5t65.5 -58.5t86.5 -22.5q24 0 47.5 10t44.5 26t38.5 35.5t29.5 38.5l9 -46q-38 -31 -86.5 -52t-99.5 -21h-4l-6 1h-4v-17q11 -5 18.5 -15t7.5 -23z" />
    <glyph glyph-name="egrave" unicode="&#xe8;" horiz-adv-x="360" 
d="M181 454l21 -61h-12l-51 61h42zM193 -5q-36 0 -67 13.5t-53.5 36.5t-35.5 54.5t-13 67.5q0 82 46 132t130 50q32 0 56 -13t40 -35t24 -49.5t8 -56.5h-262q0 -31 7 -62t23 -55t41 -39t62 -15q16 0 35 3t37.5 9.5t33.5 17t23 25.5q-16 -40 -54.5 -62t-80.5 -22zM248 205
q23 0 34 15t11 35q0 21 -9 37.5t-23 28t-32.5 17t-37.5 5.5q-26 0 -48.5 -12.5t-39.5 -32t-26.5 -44t-9.5 -49.5h181z" />
    <glyph glyph-name="eacute" unicode="&#xe9;" horiz-adv-x="360" 
d="M203 454h40l-48 -61h-12zM193 -5q-36 0 -67 13.5t-53.5 36.5t-35.5 54.5t-13 67.5q0 82 46 132t130 50q32 0 56 -13t40 -35t24 -49.5t8 -56.5h-262q0 -31 7 -62t23 -55t41 -39t62 -15q16 0 35 3t37.5 9.5t33.5 17t23 25.5q-16 -40 -54.5 -62t-80.5 -22zM248 205
q23 0 34 15t11 35q0 21 -9 37.5t-23 28t-32.5 17t-37.5 5.5q-26 0 -48.5 -12.5t-39.5 -32t-26.5 -44t-9.5 -49.5h181z" />
    <glyph glyph-name="ecircumflex" unicode="&#xea;" horiz-adv-x="360" 
d="M181 449h25q13 -16 22.5 -27t21.5 -29q2 -2 -2.5 -1t-7.5 1l-46 39l-45 -39h-11zM193 -5q-36 0 -67 13.5t-53.5 36.5t-35.5 54.5t-13 67.5q0 82 46 132t130 50q32 0 56 -13t40 -35t24 -49.5t8 -56.5h-262q0 -31 7 -62t23 -55t41 -39t62 -15q16 0 35 3t37.5 9.5t33.5 17
t23 25.5q-16 -40 -54.5 -62t-80.5 -22zM248 205q23 0 34 15t11 35q0 21 -9 37.5t-23 28t-32.5 17t-37.5 5.5q-26 0 -48.5 -12.5t-39.5 -32t-26.5 -44t-9.5 -49.5h181z" />
    <glyph glyph-name="edieresis" unicode="&#xeb;" horiz-adv-x="360" 
d="M161 433q20 0 20 -20t-20 -20t-20 20t20 20zM225 433q20 0 20 -20t-20 -20q-19 0 -19 20t19 20zM24 167q0 82 46 132t130 50q32 0 56 -13t40 -35t24 -49.5t8 -56.5h-262q0 -31 7 -62t23 -55t41 -39t62 -15q16 0 35 3t37.5 9.5t33.5 17t23 25.5q-16 -40 -54.5 -62
t-80.5 -22q-36 0 -67 13.5t-53.5 36.5t-35.5 54.5t-13 67.5zM191 343q-26 0 -48.5 -12.5t-39.5 -32t-26.5 -44t-9.5 -49.5h181q23 0 34 15t11 35q0 21 -9 37.5t-23 28t-32.5 17t-37.5 5.5z" />
    <glyph glyph-name="igrave" unicode="&#xec;" 
d="M29 454h42l21 -61h-12zM20 0q20 6 26.5 21.5t6.5 35.5v206q0 11 -4 27t-19 16l63 44v-293q0 -20 7 -35.5t27 -21.5h-107z" />
    <glyph glyph-name="iacute" unicode="&#xed;" 
d="M56 393l20 61h39l-47 -61h-12zM20 0q20 6 26.5 21.5t6.5 35.5v206q0 11 -4 27t-19 16l63 44v-293q0 -20 7 -35.5t27 -21.5h-107z" />
    <glyph glyph-name="icircumflex" unicode="&#xee;" 
d="M60 449h25q13 -16 22.5 -27t21.5 -29q2 -2 -3 -1t-7 1l-46 39l-45 -39h-11zM20 0q20 6 26.5 21.5t6.5 35.5v206q0 11 -4 27t-19 16l63 44v-293q0 -20 7 -35.5t27 -21.5h-107z" />
    <glyph glyph-name="idieresis" unicode="&#xef;" 
d="M21 413q0 20 20 20q19 0 19 -20t-19 -20q-20 0 -20 20zM85 413q0 20 20 20t20 -20t-20 -20t-20 20zM20 0q20 6 26.5 21.5t6.5 35.5v206q0 11 -4 27t-19 16l63 44v-293q0 -20 7 -35.5t27 -21.5h-107z" />
    <glyph glyph-name="eth" unicode="&#xf0;" horiz-adv-x="384" 
d="M365 462h-35v-374q0 -14 5 -25t21 -13l-65 -49v246q0 20 -9.5 37.5t-25 31t-35 21t-38.5 7.5q-30 0 -52.5 -15.5t-37 -39.5t-22 -52.5t-7.5 -54.5q0 -25 7 -54.5t21 -54t36.5 -41t52.5 -16.5t50 10.5t41 30.5q-17 -26 -45 -42t-59 -16q-34 0 -61.5 14t-46.5 37.5
t-29.5 54t-10.5 62.5q0 37 11.5 70.5t33.5 58.5t53 40t70 15q35 0 56.5 -10t46.5 -32v153h-35v14h35v43h39v-43h35v-14z" />
    <glyph glyph-name="ntilde" unicode="&#xf1;" horiz-adv-x="382" 
d="M132 397q8 11 21.5 18.5t27.5 7.5q19 0 29 -4.5t24 -4.5q6 0 13.5 1t17.5 6q-13 -25 -47 -25q-18 0 -30 4.5t-26 4.5t-30 -8zM115 296q21 25 50.5 40.5t61.5 15.5q53 0 76.5 -37t23.5 -85v-169q0 -21 7.5 -37.5t28.5 -23.5h-112q21 7 28.5 24t7.5 37v178q0 37 -17 66.5
t-59 29.5q-26 0 -51 -11.5t-45 -27.5zM18 0q21 8 28 24t7 37v196q0 12 -4 29t-21 17l64 47l1 -289q0 -21 7.5 -37t28.5 -24h-111z" />
    <glyph glyph-name="ograve" unicode="&#xf2;" horiz-adv-x="405" 
d="M200 393h-13l-50 61h41zM23 175q0 36 14 68t38 56t56 38t68 14t68 -14t56 -38t38 -56t14 -68t-13.5 -68t-37.5 -56t-56 -38t-68 -14q-37 0 -69 14t-56 38t-38 56t-14 68zM64 188q0 -30 9.5 -62t28.5 -58.5t46 -43t61 -16.5q30 0 53 14t38.5 35.5t23 49t7.5 54.5
q0 31 -9.5 63t-28 58t-45 42.5t-61.5 16.5q-30 0 -53 -14t-38.5 -35.5t-23.5 -49t-8 -54.5z" />
    <glyph glyph-name="oacute" unicode="&#xf3;" horiz-adv-x="405" 
d="M246 454l-48 -61h-12l20 61h40zM23 175q0 36 14 68t38 56t56 38t68 14t68 -14t56 -38t38 -56t14 -68t-13.5 -68t-37.5 -56t-56 -38t-68 -14q-37 0 -69 14t-56 38t-38 56t-14 68zM64 188q0 -30 9.5 -62t28.5 -58.5t46 -43t61 -16.5q30 0 53 14t38.5 35.5t23 49t7.5 54.5
q0 31 -9.5 63t-28 58t-45 42.5t-61.5 16.5q-30 0 -53 -14t-38.5 -35.5t-23.5 -49t-8 -54.5z" />
    <glyph glyph-name="ocircumflex" unicode="&#xf4;" horiz-adv-x="405" 
d="M190 449h24l44 -56h-10l-46 39l-44 -39h-12zM23 175q0 36 14 68t38 56t56 38t68 14t68 -14t56 -38t38 -56t14 -68t-13.5 -68t-37.5 -56t-56 -38t-68 -14q-37 0 -69 14t-56 38t-38 56t-14 68zM187 341q-30 0 -53 -14t-38.5 -35.5t-23.5 -49t-8 -54.5q0 -30 9.5 -62
t28.5 -58.5t46 -43t61 -16.5q30 0 53 14t38.5 35.5t23 49t7.5 54.5q0 31 -9.5 63t-28 58t-45 42.5t-61.5 16.5z" />
    <glyph glyph-name="otilde" unicode="&#xf5;" horiz-adv-x="405" 
d="M133 397q8 11 21 18.5t27 7.5q20 0 30 -4.5t24 -4.5q6 0 13.5 1t16.5 6q-5 -11 -18 -18t-29 -7q-17 0 -29 4.5t-26 4.5t-30 -8zM23 175q0 36 14 68t38 56t56 38t68 14t68 -14t56 -38t38 -56t14 -68t-13.5 -68t-37.5 -56t-56 -38t-68 -14q-37 0 -69 14t-56 38t-38 56
t-14 68zM187 341q-30 0 -53 -14t-38.5 -35.5t-23.5 -49t-8 -54.5q0 -30 9.5 -62t28.5 -58.5t46 -43t61 -16.5q30 0 53 14t38.5 35.5t23 49t7.5 54.5q0 31 -9.5 63t-28 58t-45 42.5t-61.5 16.5z" />
    <glyph glyph-name="odieresis" unicode="&#xf6;" horiz-adv-x="405" 
d="M174 433q19 0 19 -20t-19 -20q-20 0 -20 20t20 20zM238 433q20 0 20 -20t-20 -20t-20 20t20 20zM23 175q0 36 14 68t38 56t56 38t68 14t68 -14t56 -38t38 -56t14 -68t-13.5 -68t-37.5 -56t-56 -38t-68 -14q-37 0 -69 14t-56 38t-38 56t-14 68zM187 341q-30 0 -53 -14
t-38.5 -35.5t-23.5 -49t-8 -54.5q0 -30 9.5 -62t28.5 -58.5t46 -43t61 -16.5q30 0 53 14t38.5 35.5t23 49t7.5 54.5q0 31 -9.5 63t-28 58t-45 42.5t-61.5 16.5z" />
    <glyph glyph-name="oslash" unicode="&#xf8;" horiz-adv-x="405" 
d="M23 175q0 36 14 68t38 56t56 38t68 14q28 0 50 -7l25 72h27l-28 -81q45 -21 73.5 -63.5t28.5 -96.5q0 -36 -13.5 -68t-37.5 -56t-56 -38t-68 -14q-20 0 -43 5l-28 -78h-28l31 87q-48 20 -78.5 63.5t-30.5 98.5zM187 341q-30 0 -53 -14t-38.5 -35.5t-23.5 -49t-8 -54.5
q0 -43 19 -87t55 -70l105 296q-25 14 -56 14zM161 18q23 -10 48 -10q30 0 53 14t38.5 35.5t23 49t7.5 54.5q0 42 -17 84t-49 68z" />
    <glyph glyph-name="ugrave" unicode="&#xf9;" horiz-adv-x="355" 
d="M192 393h-13l-50 61h41zM39 264q0 13 -5 24t-20 12l64 50v-239q0 -37 17 -66.5t59 -29.5q26 0 51 11.5t45 27.5q-20 -25 -49.5 -40.5t-61.5 -15.5q-27 0 -46 10t-31 27t-17.5 39t-5.5 46v144zM276 264q0 13 -5 24t-20 12l64 50v-257q0 -12 4.5 -29t20.5 -17l-64 -47v264z
" />
    <glyph glyph-name="uacute" unicode="&#xfa;" horiz-adv-x="355" 
d="M188 454h40l-47 -61h-12zM39 264q0 13 -5 24t-20 12l64 50v-239q0 -37 17 -66.5t59 -29.5q26 0 51 11.5t45 27.5q-20 -25 -49.5 -40.5t-61.5 -15.5q-27 0 -46 10t-31 27t-17.5 39t-5.5 46v144zM276 264q0 13 -5 24t-20 12l64 50v-257q0 -12 4.5 -29t20.5 -17l-64 -47v264
z" />
    <glyph glyph-name="ucircumflex" unicode="&#xfb;" horiz-adv-x="355" 
d="M174 449h24l44 -56h-10l-46 39l-45 -39h-11zM78 350v-239q0 -37 17 -66.5t59 -29.5q26 0 51 11.5t45 27.5q-20 -25 -49.5 -40.5t-61.5 -15.5q-27 0 -46 10t-31 27t-17.5 39t-5.5 46v144q0 13 -5 24t-20 12zM315 350v-257q0 -12 4.5 -29t20.5 -17l-64 -47v264q0 13 -5 24
t-20 12z" />
    <glyph glyph-name="udieresis" unicode="&#xfc;" horiz-adv-x="355" 
d="M122 413q0 20 20 20t20 -20t-20 -20t-20 20zM187 413q0 20 20 20q19 0 19 -20t-19 -20q-20 0 -20 20zM78 350v-239q0 -37 17 -66.5t59 -29.5q26 0 51 11.5t45 27.5q-20 -25 -49.5 -40.5t-61.5 -15.5q-27 0 -46 10t-31 27t-17.5 39t-5.5 46v144q0 13 -5 24t-20 12z
M276 264q0 13 -5 24t-20 12l64 50v-257q0 -12 4.5 -29t20.5 -17l-64 -47v264z" />
    <glyph glyph-name="yacute" unicode="&#xfd;" horiz-adv-x="387" 
d="M186 393l20 61h40l-48 -61h-12zM115 350q-20 -8 -20 -32q0 -8 15 -44.5t34.5 -79t37.5 -81t24 -51.5q6 13 22.5 49.5t34 76.5t31.5 74t14 43q0 16 -8.5 29.5t-25.5 15.5h108q-20 -4 -36 -17.5t-24 -32.5q-48 -106 -94 -211t-94 -211q-8 -18 -22.5 -35.5t-36.5 -17.5
q-10 0 -18.5 7t-8.5 17q0 12 7.5 17.5t18.5 5.5q14 0 30 -0.5t24 15.5l55 124l-125 282q-8 20 -18.5 34.5t-31.5 22.5h107z" />
    <glyph glyph-name="ydieresis" unicode="&#xff;" horiz-adv-x="387" 
d="M174 393q-20 0 -20 20t20 20q19 0 19 -20t-19 -20zM238 393q-20 0 -20 20t20 20t20 -20t-20 -20zM58 293q-8 20 -18.5 34.5t-31.5 22.5h107q-20 -8 -20 -32q0 -8 15 -44.5t34.5 -79t37.5 -81t24 -51.5q6 13 22.5 49.5t34 76.5t31.5 74t14 43q0 16 -8.5 29.5t-25.5 15.5
h108q-20 -4 -36 -17.5t-24 -32.5q-48 -106 -94 -211t-94 -211q-8 -18 -22.5 -35.5t-36.5 -17.5q-10 0 -18.5 7t-8.5 17q0 12 7.5 17.5t18.5 5.5q14 0 30 -0.5t24 15.5l55 124z" />
    <glyph glyph-name="Amacron" unicode="&#x100;" horiz-adv-x="493" 
d="M311 534h-109v13h109v-13zM36 0q16 6 30.5 21.5t21.5 31.5l169 443l167 -441q7 -17 18 -33t30 -22h-123q12 5 20 16.5t8 24.5q0 8 -7 28.5t-16.5 44.5t-18.5 46.5l-13 32.5h-171l-46 -119l-4 -14t-2 -15q0 -19 11 -29.5t28 -15.5h-102zM318 200l-82 219l-83 -219h165z
" />
    <glyph glyph-name="amacron" unicode="&#x101;" horiz-adv-x="326" 
d="M211 397h-109v13h109v-13zM13 74q0 42 28 64t64 33t69.5 17t45.5 17v39q0 17 -3.5 34.5t-12 31.5t-22.5 23t-34 9q-9 0 -21 -2.5t-23.5 -7.5t-19 -13t-7.5 -19q0 -7 1 -11l2 -8q1 -4 1 -11q0 -26 -27 -26q-12 0 -18.5 8.5t-6.5 19.5q0 18 14 32.5t34 25t41.5 16t36.5 5.5
q55 0 79.5 -27.5t24.5 -81.5v-177q0 -16 6.5 -29.5t25.5 -13.5q16 0 28 9q-5 -14 -20.5 -23t-29.5 -9q-32 0 -40.5 20t-8.5 46v128q-23 -7 -50.5 -14t-51.5 -19t-40 -31.5t-16 -50.5q0 -29 18.5 -46t47.5 -17q21 0 41.5 5.5t37.5 17.5q-21 -22 -46.5 -30.5t-56.5 -8.5
q-35 0 -63 18.5t-28 56.5z" />
    <glyph glyph-name="Abreve" unicode="&#x102;" horiz-adv-x="493" 
d="M307 603q-2 -20 -15 -35.5t-35 -15.5q-23 0 -35.5 15.5t-15.5 35.5q7 -14 21 -21.5t30 -7.5q15 0 29.5 7.5t20.5 21.5zM36 0q16 6 30.5 21.5t21.5 31.5l169 443l167 -441q7 -17 18 -33t30 -22h-123q12 5 20 16.5t8 24.5q0 8 -7 28.5t-16.5 44.5t-18.5 46.5l-13 32.5h-171
l-46 -119l-4 -14t-2 -15q0 -19 11 -29.5t28 -15.5h-102zM318 200l-82 219l-83 -219h165z" />
    <glyph glyph-name="abreve" unicode="&#x103;" horiz-adv-x="326" 
d="M200 443q-3 -20 -15.5 -36t-34.5 -16q-23 0 -35.5 16t-15.5 36q7 -14 21 -21.5t30 -7.5q15 0 29.5 7t20.5 22zM13 74q0 42 28 64t64 33t69.5 17t45.5 17v39q0 17 -3.5 34.5t-12 31.5t-22.5 23t-34 9q-9 0 -21 -2.5t-23.5 -7.5t-19 -13t-7.5 -19q0 -7 1 -11l2 -8
q1 -4 1 -11q0 -26 -27 -26q-12 0 -18.5 8.5t-6.5 19.5q0 18 14 32.5t34 25t41.5 16t36.5 5.5q55 0 79.5 -27.5t24.5 -81.5v-177q0 -16 6.5 -29.5t25.5 -13.5q16 0 28 9q-5 -14 -20.5 -23t-29.5 -9q-32 0 -40.5 20t-8.5 46v128q-23 -7 -50.5 -14t-51.5 -19t-40 -31.5
t-16 -50.5q0 -29 18.5 -46t47.5 -17q21 0 41.5 5.5t37.5 17.5q-21 -22 -46.5 -30.5t-56.5 -8.5q-35 0 -63 18.5t-28 56.5z" />
    <glyph glyph-name="Aogonek" unicode="&#x104;" horiz-adv-x="493" 
d="M36 0q16 6 30.5 21.5t21.5 31.5l169 443l167 -441q7 -17 18 -33t30 -22q-18 -11 -18 -32q0 -16 10.5 -25t26.5 -9q-6 -3 -12.5 -5.5t-14.5 -2.5q-14 0 -25 9t-11 24t12 25t24 16h-115q12 5 20 16.5t8 24.5q0 8 -7 28.5t-16.5 44.5t-18.5 46.5l-13 32.5h-171l-46 -119
l-4 -14t-2 -15q0 -19 11 -29.5t28 -15.5h-102zM318 200l-82 219l-83 -219h165z" />
    <glyph glyph-name="aogonek" unicode="&#x105;" horiz-adv-x="326" 
d="M13 74q0 42 28 64t64 33t69.5 17t45.5 17v39q0 17 -3.5 34.5t-12 31.5t-22.5 23t-34 9q-9 0 -21 -2.5t-23.5 -7.5t-19 -13t-7.5 -19q0 -7 1 -11l2 -8q1 -4 1 -11q0 -26 -27 -26q-12 0 -18.5 8.5t-6.5 19.5q0 18 14 32.5t34 25t41.5 16t36.5 5.5q55 0 79.5 -27.5
t24.5 -81.5v-177q0 -16 6.5 -29.5t25.5 -13.5q16 0 28 9q-5 -13 -18.5 -21.5t-27.5 -10.5q-17 -11 -17 -31q0 -16 11 -25t26 -9q-5 -3 -12 -5.5t-14 -2.5q-14 0 -25.5 9t-11.5 24q1 15 13 25q3 2 3.5 8t2.5 10q-19 7 -24 24t-5 39v128q-23 -7 -50.5 -14t-51.5 -19t-40 -31.5
t-16 -50.5q0 -29 18.5 -46t47.5 -17q21 0 41.5 5.5t37.5 17.5q-21 -22 -46.5 -30.5t-56.5 -8.5q-35 0 -63 18.5t-28 56.5z" />
    <glyph glyph-name="Cacute" unicode="&#x106;" horiz-adv-x="488" 
d="M285 532h-13l11 43h32zM284 -2q-52 0 -97 19t-79 52.5t-53.5 78.5t-19.5 97t19.5 97t53.5 78.5t79 52.5t97 19q40 0 84.5 -10.5t76.5 -36.5v-70q-29 43 -75 75.5t-100 32.5q-45 0 -78 -19.5t-55.5 -50.5t-33.5 -70.5t-11 -79.5q0 -43 12 -88.5t37 -82.5t62 -61t86 -24
q54 0 96.5 33t70.5 77l9 -46q-35 -29 -85 -51t-96 -22z" />
    <glyph glyph-name="cacute" unicode="&#x107;" horiz-adv-x="336" 
d="M200 377h-13l11 42h32zM184 -5q-36 0 -65.5 14t-50.5 37.5t-32.5 55t-11.5 65.5q0 40 12.5 73.5t35.5 57.5t56 37.5t73 13.5q17 0 38 -4.5t39 -14t30.5 -24.5t12.5 -36q0 -11 -6 -19.5t-17 -8.5q-13 0 -19 9.5t-6 20.5q0 32 -26 51.5t-55 19.5t-52 -13.5t-39.5 -35
t-25.5 -48.5t-9 -53q0 -33 8 -63.5t24.5 -54.5t42.5 -38.5t63 -14.5q35 0 68.5 15.5t56.5 41.5q-23 -42 -60.5 -63t-84.5 -21z" />
    <glyph glyph-name="Ccircumflex" unicode="&#x108;" horiz-adv-x="488" 
d="M246 531h-8l31 40h17l30 -40h-6l-33 21zM284 -2q-52 0 -97 19t-79 52.5t-53.5 78.5t-19.5 97t19.5 97t53.5 78.5t79 52.5t97 19q40 0 84.5 -10.5t76.5 -36.5v-70q-29 43 -75 75.5t-100 32.5q-45 0 -78 -19.5t-55.5 -50.5t-33.5 -70.5t-11 -79.5q0 -43 12 -88.5t37 -82.5
t62 -61t86 -24q54 0 96.5 33t70.5 77l9 -46q-35 -29 -85 -51t-96 -22z" />
    <glyph glyph-name="ccircumflex" unicode="&#x109;" horiz-adv-x="336" 
d="M157 386h-9l31 40h17l31 -40h-6l-33 21zM184 -5q-36 0 -65.5 14t-50.5 37.5t-32.5 55t-11.5 65.5q0 40 12.5 73.5t35.5 57.5t56 37.5t73 13.5q17 0 38 -4.5t39 -14t30.5 -24.5t12.5 -36q0 -11 -6 -19.5t-17 -8.5q-13 0 -19 9.5t-6 20.5q0 32 -26 51.5t-55 19.5t-52 -13.5
t-39.5 -35t-25.5 -48.5t-9 -53q0 -33 8 -63.5t24.5 -54.5t42.5 -38.5t63 -14.5q35 0 68.5 15.5t56.5 41.5q-23 -42 -60.5 -63t-84.5 -21z" />
    <glyph glyph-name="Cdotaccent" unicode="&#x10a;" horiz-adv-x="488" 
d="M284 550q0 -8 -6 -14.5t-15 -6.5q-21 0 -21 21t21 21t21 -21zM284 -2q-52 0 -97 19t-79 52.5t-53.5 78.5t-19.5 97t19.5 97t53.5 78.5t79 52.5t97 19q40 0 84.5 -10.5t76.5 -36.5v-70q-29 43 -75 75.5t-100 32.5q-45 0 -78 -19.5t-55.5 -50.5t-33.5 -70.5t-11 -79.5
q0 -43 12 -88.5t37 -82.5t62 -61t86 -24q54 0 96.5 33t70.5 77l9 -46q-35 -29 -85 -51t-96 -22z" />
    <glyph glyph-name="cdotaccent" unicode="&#x10b;" horiz-adv-x="336" 
d="M205 409q0 -9 -6 -15.5t-15 -6.5t-15 6.5t-6 15.5q0 20 21 20q9 0 15 -6t6 -14zM184 -5q-36 0 -65.5 14t-50.5 37.5t-32.5 55t-11.5 65.5q0 40 12.5 73.5t35.5 57.5t56 37.5t73 13.5q17 0 38 -4.5t39 -14t30.5 -24.5t12.5 -36q0 -11 -6 -19.5t-17 -8.5q-13 0 -19 9.5
t-6 20.5q0 32 -26 51.5t-55 19.5t-52 -13.5t-39.5 -35t-25.5 -48.5t-9 -53q0 -33 8 -63.5t24.5 -54.5t42.5 -38.5t63 -14.5q35 0 68.5 15.5t56.5 41.5q-23 -42 -60.5 -63t-84.5 -21z" />
    <glyph glyph-name="Ccaron" unicode="&#x10c;" horiz-adv-x="488" 
d="M288 533h-18l-31 39h7l33 -21l31 21h8zM284 -2q-52 0 -97 19t-79 52.5t-53.5 78.5t-19.5 97t19.5 97t53.5 78.5t79 52.5t97 19q40 0 84.5 -10.5t76.5 -36.5v-70q-29 43 -75 75.5t-100 32.5q-45 0 -78 -19.5t-55.5 -50.5t-33.5 -70.5t-11 -79.5q0 -43 12 -88.5t37 -82.5
t62 -61t86 -24q54 0 96.5 33t70.5 77l9 -46q-35 -29 -85 -51t-96 -22z" />
    <glyph glyph-name="ccaron" unicode="&#x10d;" horiz-adv-x="336" 
d="M199 381h-18l-30 39h7l32 -21l31 21h8zM184 -5q-36 0 -65.5 14t-50.5 37.5t-32.5 55t-11.5 65.5q0 40 12.5 73.5t35.5 57.5t56 37.5t73 13.5q17 0 38 -4.5t39 -14t30.5 -24.5t12.5 -36q0 -11 -6 -19.5t-17 -8.5q-13 0 -19 9.5t-6 20.5q0 32 -26.5 51.5t-58.5 19.5
q-27 0 -49.5 -13.5t-38.5 -35t-25 -48.5t-9 -53q0 -33 8 -63.5t24.5 -54.5t42.5 -38.5t63 -14.5q35 0 68.5 15.5t56.5 41.5q-23 -42 -60.5 -63t-84.5 -21z" />
    <glyph glyph-name="Dcaron" unicode="&#x10e;" horiz-adv-x="495" 
d="M187 533h-18l-30 39h7l33 -21l30 21h8zM35 0q20 6 27 22t7 35v376q0 19 -7 35t-27 22h181q50 0 95 -19.5t79 -52.5t53.5 -77.5t19.5 -95.5q0 -50 -18 -94.5t-50.5 -78t-76 -53t-94.5 -19.5h-189zM116 482v-473h58q108 0 172 64t64 172q0 109 -63.5 173t-172.5 64h-58z
" />
    <glyph glyph-name="dcaron" unicode="&#x10f;" horiz-adv-x="384" 
d="M168 -1q-34 0 -61.5 14t-46.5 37.5t-29.5 54t-10.5 62.5q0 37 11.5 70.5t33.5 58.5t53 40t70 15q35 0 56.5 -10t46.5 -32v113q0 13 -4.5 30t-21.5 17l65 50v-431q0 -14 5 -25t21 -13l-65 -49v246q0 20 -9.5 37.5t-25 31t-35 21t-38.5 7.5q-30 0 -52.5 -15.5t-37 -39.5
t-22 -52.5t-7.5 -54.5q0 -25 7 -54.5t21 -54t36.5 -41t52.5 -16.5t50 10.5t41 30.5q-17 -26 -45 -42t-59 -16zM190 399h-17l-31 39h7l33 -21l31 21h8z" />
    <glyph glyph-name="Dcroat" unicode="&#x110;" horiz-adv-x="495" 
d="M35 0q20 6 27 22t7 35v175h-28v13h28v188q0 19 -7 35t-27 22h181q50 0 95 -19.5t79 -52.5t53.5 -77.5t19.5 -95.5q0 -50 -18 -94.5t-50.5 -78t-76 -53t-94.5 -19.5h-189zM174 9q108 0 172 64t64 172q0 109 -63.5 173t-172.5 64h-58v-237h35v-13h-35v-223h58z" />
    <glyph glyph-name="dcroat" unicode="&#x111;" horiz-adv-x="384" 
d="M357 410h-27v-322q0 -14 5 -25t21 -13l-65 -49v246q0 20 -9.5 37.5t-25 31t-35 21t-38.5 7.5q-30 0 -52.5 -15.5t-37 -39.5t-22 -52.5t-7.5 -54.5q0 -25 7 -54.5t21 -54t36.5 -41t52.5 -16.5t50 10.5t41 30.5q-17 -26 -45 -42t-59 -16q-34 0 -61.5 14t-46.5 37.5
t-29.5 54t-10.5 62.5q0 37 11.5 70.5t33.5 58.5t53 40t70 15q35 0 56.5 -10t46.5 -32v101h-43v14h43q0 13 -4.5 29t-21.5 16l65 50v-95h27v-14z" />
    <glyph glyph-name="Emacron" unicode="&#x112;" horiz-adv-x="389" 
d="M252 538h-109v14h109v-14zM35 0q20 6 27 22t7 35v377q0 19 -7 34.5t-27 21.5h305l19 -83q-40 75 -122 75h-121v-229h83q23 0 40.5 9.5t25.5 32.5v-91q-8 23 -25.5 32t-40.5 9h-83v-237h120q42 0 75 19t53 56l-20 -83h-309z" />
    <glyph glyph-name="emacron" unicode="&#x113;" horiz-adv-x="360" 
d="M249 392h-109v13h109v-13zM24 167q0 82 46 132t130 50q32 0 56 -13t40 -35t24 -49.5t8 -56.5h-262q0 -31 7 -62t23 -55t41 -39t62 -15q16 0 35 3t37.5 9.5t33.5 17t23 25.5q-16 -40 -54.5 -62t-80.5 -22q-36 0 -67 13.5t-53.5 36.5t-35.5 54.5t-13 67.5zM191 343
q-26 0 -48.5 -12.5t-39.5 -32t-26.5 -44t-9.5 -49.5h181q23 0 34 15t11 35q0 21 -9 37.5t-23 28t-32.5 17t-37.5 5.5z" />
    <glyph glyph-name="Ebreve" unicode="&#x114;" horiz-adv-x="389" 
d="M247 603q-3 -20 -16 -35.5t-34 -15.5q-23 0 -36 15.5t-15 35.5q7 -14 21 -21.5t30 -7.5q15 0 29.5 7.5t20.5 21.5zM35 0q20 6 27 22t7 35v377q0 19 -7 34.5t-27 21.5h305l19 -83q-40 75 -122 75h-121v-229h83q23 0 40.5 9.5t25.5 32.5v-91q-8 23 -25.5 32t-40.5 9h-83
v-237h120q42 0 75 19t53 56l-20 -83h-309z" />
    <glyph glyph-name="ebreve" unicode="&#x115;" horiz-adv-x="360" 
d="M250 436q-3 -20 -16 -36t-34 -16q-23 0 -36 16t-16 36q7 -14 21.5 -21.5t30.5 -7.5q15 0 29.5 7t20.5 22zM24 167q0 82 46 132t130 50q32 0 56 -13t40 -35t24 -49.5t8 -56.5h-262q0 -31 7 -62t23 -55t41 -39t62 -15q16 0 35 3t37.5 9.5t33.5 17t23 25.5
q-16 -40 -54.5 -62t-80.5 -22q-36 0 -67 13.5t-53.5 36.5t-35.5 54.5t-13 67.5zM191 343q-26 0 -48.5 -12.5t-39.5 -32t-26.5 -44t-9.5 -49.5h181q23 0 34 15t11 35q0 21 -9 37.5t-23 28t-32.5 17t-37.5 5.5z" />
    <glyph glyph-name="Edotaccent" unicode="&#x116;" horiz-adv-x="389" 
d="M208 554q0 -9 -6.5 -15.5t-14.5 -6.5q-9 0 -15 6.5t-6 15.5q0 20 21 20q8 0 14.5 -6t6.5 -14zM35 0q20 6 27 22t7 35v377q0 19 -7 34.5t-27 21.5h305l19 -83q-40 75 -122 75h-121v-229h83q23 0 40.5 9.5t25.5 32.5v-91q-8 23 -25.5 32t-40.5 9h-83v-237h120q42 0 75 19
t53 56l-20 -83h-309z" />
    <glyph glyph-name="edotaccent" unicode="&#x117;" horiz-adv-x="360" 
d="M217 417q0 -9 -6.5 -15.5t-14.5 -6.5q-21 0 -21 22q0 20 21 20q8 0 14.5 -6t6.5 -14zM24 167q0 82 46 132t130 50q32 0 56 -13t40 -35t24 -49.5t8 -56.5h-262q0 -31 7 -62t23 -55t41 -39t62 -15q16 0 35 3t37.5 9.5t33.5 17t23 25.5q-16 -40 -54.5 -62t-80.5 -22
q-36 0 -67 13.5t-53.5 36.5t-35.5 54.5t-13 67.5zM191 343q-26 0 -48.5 -12.5t-39.5 -32t-26.5 -44t-9.5 -49.5h181q23 0 34 15t11 35q0 21 -9 37.5t-23 28t-32.5 17t-37.5 5.5z" />
    <glyph glyph-name="Eogonek" unicode="&#x118;" horiz-adv-x="389" 
d="M344 0q-18 -11 -18 -32q0 -16 10.5 -25t26.5 -9q-6 -3 -12.5 -5.5t-14.5 -2.5q-14 0 -25 9t-11 24t12 25t24 16h-301q20 6 27 22t7 35v377q0 19 -7 34.5t-27 21.5h305l19 -83q-40 75 -122 75h-121v-229h83q23 0 40.5 9.5t25.5 32.5v-91q-8 23 -25.5 32t-40.5 9h-83v-237
h120q42 0 75 19t53 56z" />
    <glyph glyph-name="eogonek" unicode="&#x119;" horiz-adv-x="360" 
d="M24 167q0 82 46 132t130 50q32 0 56 -13t40 -35t24 -49.5t8 -56.5h-262q0 -31 7 -62t23 -55t41 -39t62 -15q16 0 35 3t37.5 9.5t33.5 17t23 25.5q-16 -40 -55 -62t-81 -22q4 4 7 5h-8q-2 -1 -2.5 -2t-5.5 -3h9q-11 -11 -11 -27t10.5 -25t26.5 -9q-6 -3 -12.5 -5.5
t-14.5 -2.5q-14 0 -25 9t-11 24q0 14 12 25q2 2 -5 13q-61 11 -99.5 58t-38.5 112zM191 343q-26 0 -48.5 -12.5t-39.5 -32t-26.5 -44t-9.5 -49.5h181q23 0 34 15t11 35q0 21 -9 37.5t-23 28t-32.5 17t-37.5 5.5z" />
    <glyph glyph-name="Ecaron" unicode="&#x11a;" horiz-adv-x="389" 
d="M188 528h-18l-31 39h7l33 -21l31 21h8zM35 0q20 6 27 22t7 35v377q0 19 -7 34.5t-27 21.5h305l19 -83q-40 75 -122 75h-121v-229h83q23 0 40.5 9.5t25.5 32.5v-91q-8 23 -25.5 32t-40.5 9h-83v-237h120q42 0 75 19t53 56l-20 -83h-309z" />
    <glyph glyph-name="ecaron" unicode="&#x11b;" horiz-adv-x="360" 
d="M204 378h-18l-31 39h7l33 -21l31 21h8zM24 167q0 82 46 132t130 50q32 0 56 -13t40 -35t24 -49.5t8 -56.5h-262q0 -31 7 -62t23 -55t41 -39t62 -15q16 0 35 3t37.5 9.5t33.5 17t23 25.5q-16 -40 -54.5 -62t-80.5 -22q-36 0 -67 13.5t-53.5 36.5t-35.5 54.5t-13 67.5z
M191 343q-26 0 -48.5 -12.5t-39.5 -32t-26.5 -44t-9.5 -49.5h181q23 0 34 15t11 35q0 21 -9 37.5t-23 28t-32.5 17t-37.5 5.5z" />
    <glyph glyph-name="Gcircumflex" unicode="&#x11c;" horiz-adv-x="510" 
d="M246 531h-8l31 40h17l30 -40h-6l-33 21zM274 -2q-52 0 -97 19t-79 52.5t-53.5 78.5t-19.5 97t19.5 97t53 78.5t79 52.5t97.5 19q39 0 84 -10.5t76 -36.5v-70q-29 43 -74.5 75.5t-99.5 32.5q-43 0 -77 -21t-57 -54t-35 -73.5t-12 -79.5q0 -42 14.5 -86t40.5 -79.5
t64 -58.5t84 -23q19 0 41.5 6.5t42 18.5t32.5 29.5t13 39.5q0 8 0.5 16t0.5 16q0 20 -5.5 39t-27.5 26h108q-17 -5 -24.5 -20t-7.5 -32v-151q-7 11 -18 26t-26 15q-6 0 -14 -4q-30 -15 -59.5 -25t-63.5 -10z" />
    <glyph glyph-name="gcircumflex" unicode="&#x11d;" horiz-adv-x="382" 
d="M148 392h-8l31 39h17l30 -39h-6l-33 21zM300 357q-9 0 -17 -3q9 15 24.5 26.5t33.5 11.5q11 0 21 -5.5t10 -18.5q0 -12 -8 -18.5t-19 -6.5q-12 0 -22.5 7t-22.5 7zM179 74q-30 0 -57.5 10.5t-48.5 29.5t-33.5 45t-12.5 57q0 30 13 56t34.5 45t49 29.5t56.5 10.5
q30 0 58 -10t49.5 -29t34.5 -44.5t13 -57.5q0 -31 -13.5 -57t-35 -45t-49.5 -29.5t-58 -10.5zM72 226q0 -25 8 -50.5t23 -46.5t36.5 -34t49.5 -13q24 0 42.5 11t31 29t19 40t6.5 43q0 25 -8.5 50.5t-24 46.5t-37.5 34t-49 13q-24 0 -42 -11.5t-30 -29t-18.5 -39.5t-6.5 -43z
M62 -32q-11 -22 -11 -46q0 -28 13 -51.5t34 -41t47 -27t52 -9.5q19 0 41.5 6.5t41.5 18.5t31.5 29.5t12.5 39.5q0 25 -20.5 36.5t-51.5 17t-66.5 7.5t-66.5 7.5t-51.5 18.5t-20.5 39q0 23 20.5 40t41.5 21q-10 -7 -21.5 -18.5t-11.5 -25.5q0 -18 19.5 -25t48.5 -10.5t63 -6
t63 -11t48.5 -27t19.5 -52.5q0 -32 -14.5 -54t-38 -36t-51.5 -20t-55 -6q-25 0 -52.5 5.5t-50 18t-37.5 33.5t-15 52q0 22 10.5 42.5t27.5 34.5z" />
    <glyph glyph-name="Gbreve" unicode="&#x11e;" horiz-adv-x="510" 
d="M333 578q-3 -20 -16 -36t-35 -16t-35 16t-16 36q7 -14 21.5 -21.5t29.5 -7.5q16 0 30 7.5t21 21.5zM274 -2q-52 0 -97 19t-79 52.5t-53.5 78.5t-19.5 97t19.5 97t53 78.5t79 52.5t97.5 19q39 0 84 -10.5t76 -36.5v-70q-29 43 -74.5 75.5t-99.5 32.5q-43 0 -77 -21
t-57 -54t-35 -73.5t-12 -79.5q0 -42 14.5 -86t40.5 -79.5t64 -58.5t84 -23q19 0 41.5 6.5t42 18.5t32.5 29.5t13 39.5q0 8 0.5 16t0.5 16q0 20 -5.5 39t-27.5 26h108q-17 -5 -24.5 -20t-7.5 -32v-151q-7 11 -18 26t-26 15q-6 0 -14 -4q-30 -15 -59.5 -25t-63.5 -10z" />
    <glyph glyph-name="gbreve" unicode="&#x11f;" horiz-adv-x="382" 
d="M230 444q-3 -20 -15.5 -36t-34.5 -16t-35 16t-16 36q7 -14 21.5 -22t29.5 -8t29.5 7.5t20.5 22.5zM300 357q-9 0 -17 -3q9 15 24.5 26.5t33.5 11.5q11 0 21 -5.5t10 -18.5q0 -12 -8 -18.5t-19 -6.5q-12 0 -22.5 7t-22.5 7zM179 74q-30 0 -57.5 10.5t-48.5 29.5t-33.5 45
t-12.5 57q0 30 13 56t34.5 45t49 29.5t56.5 10.5q30 0 58 -10t49.5 -29t34.5 -44.5t13 -57.5q0 -31 -13.5 -57t-35 -45t-49.5 -29.5t-58 -10.5zM72 226q0 -25 8 -50.5t23 -46.5t36.5 -34t49.5 -13q24 0 42.5 11t31 29t19 40t6.5 43q0 25 -8.5 50.5t-24 46.5t-37.5 34t-49 13
q-24 0 -42 -11.5t-30 -29t-18.5 -39.5t-6.5 -43zM62 -32q-11 -22 -11 -46q0 -28 13 -51.5t34 -41t47 -27t52 -9.5q19 0 41.5 6.5t41.5 18.5t31.5 29.5t12.5 39.5q0 25 -20.5 36.5t-51.5 17t-66.5 7.5t-66.5 7.5t-51.5 18.5t-20.5 39q0 23 20.5 40t41.5 21
q-10 -7 -21.5 -18.5t-11.5 -25.5q0 -18 19.5 -25t48.5 -10.5t63 -6t63 -11t48.5 -27t19.5 -52.5q0 -32 -14.5 -54t-38 -36t-51.5 -20t-55 -6q-25 0 -52.5 5.5t-50 18t-37.5 33.5t-15 52q0 22 10.5 42.5t27.5 34.5z" />
    <glyph glyph-name="Gdotaccent" unicode="&#x120;" horiz-adv-x="510" 
d="M295 559q0 -8 -6.5 -14.5t-14.5 -6.5q-21 0 -21 21t21 21q8 0 14.5 -6t6.5 -15zM274 -2q-52 0 -97 19t-79 52.5t-53.5 78.5t-19.5 97t19.5 97t53 78.5t79 52.5t97.5 19q39 0 84 -10.5t76 -36.5v-70q-29 43 -74.5 75.5t-99.5 32.5q-43 0 -77 -21t-57 -54t-35 -73.5
t-12 -79.5q0 -42 14.5 -86t40.5 -79.5t64 -58.5t84 -23q19 0 41.5 6.5t42 18.5t32.5 29.5t13 39.5q0 8 0.5 16t0.5 16q0 20 -5.5 39t-27.5 26h108q-17 -5 -24.5 -20t-7.5 -32v-151q-7 11 -18 26t-26 15q-6 0 -14 -4q-30 -15 -59.5 -25t-63.5 -10z" />
    <glyph glyph-name="gdotaccent" unicode="&#x121;" horiz-adv-x="382" 
d="M210 416q0 -9 -6.5 -15.5t-14.5 -6.5q-9 0 -15 6.5t-6 15.5q0 20 21 20q8 0 14.5 -6t6.5 -14zM300 357q-9 0 -17 -3q9 15 24.5 26.5t33.5 11.5q11 0 21 -5.5t10 -18.5q0 -12 -8 -18.5t-19 -6.5q-12 0 -22.5 7t-22.5 7zM179 74q-30 0 -57.5 10.5t-48.5 29.5t-33.5 45
t-12.5 57q0 30 13 56t34.5 45t49 29.5t56.5 10.5q30 0 58 -10t49.5 -29t34.5 -44.5t13 -57.5q0 -31 -13.5 -57t-35 -45t-49.5 -29.5t-58 -10.5zM72 226q0 -25 8 -50.5t23 -46.5t36.5 -34t49.5 -13q24 0 42.5 11t31 29t19 40t6.5 43q0 25 -8.5 50.5t-24 46.5t-37.5 34t-49 13
q-24 0 -42 -11.5t-30 -29t-18.5 -39.5t-6.5 -43zM62 -32q-11 -22 -11 -46q0 -28 13 -51.5t34 -41t47 -27t52 -9.5q19 0 41.5 6.5t41.5 18.5t31.5 29.5t12.5 39.5q0 25 -20.5 36.5t-51.5 17t-66.5 7.5t-66.5 7.5t-51.5 18.5t-20.5 39q0 23 20.5 40t41.5 21
q-10 -7 -21.5 -18.5t-11.5 -25.5q0 -18 19.5 -25t48.5 -10.5t63 -6t63 -11t48.5 -27t19.5 -52.5q0 -32 -14.5 -54t-38 -36t-51.5 -20t-55 -6q-25 0 -52.5 5.5t-50 18t-37.5 33.5t-15 52q0 22 10.5 42.5t27.5 34.5z" />
    <glyph glyph-name="uni0122" unicode="&#x122;" horiz-adv-x="510" 
d="M274 -2q-52 0 -97 19t-79 52.5t-53.5 78.5t-19.5 97t19.5 97t53 78.5t79 52.5t97.5 19q39 0 84 -10.5t76 -36.5v-70q-29 43 -74.5 75.5t-99.5 32.5q-43 0 -77 -21t-57 -54t-35 -73.5t-12 -79.5q0 -42 14.5 -86t40.5 -79.5t64 -58.5t84 -23q19 0 41.5 6.5t42 18.5
t32.5 29.5t13 39.5q0 8 0.5 16t0.5 16q0 20 -5.5 39t-27.5 26h108q-17 -5 -24.5 -20t-7.5 -32v-151q-7 11 -18 26t-26 15q-6 0 -14 -4q-30 -15 -59.5 -25t-63.5 -10zM290 -68q0 -10 -5 -21t-13 -18l-2 2q3 4 3 10t-4 7.5t-9 3t-9 5.5t-4 14q0 8 5.5 14.5t14.5 6.5
q23 0 23 -24z" />
    <glyph glyph-name="uni0123" unicode="&#x123;" horiz-adv-x="382" 
d="M300 357q-9 0 -17 -3q9 15 24.5 26.5t33.5 11.5q11 0 21 -5.5t10 -18.5q0 -12 -8 -18.5t-19 -6.5q-12 0 -22.5 7t-22.5 7zM179 74q-30 0 -57.5 10.5t-48.5 29.5t-33.5 45t-12.5 57q0 30 13 56t34.5 45t49 29.5t56.5 10.5q30 0 58 -10t49.5 -29t34.5 -44.5t13 -57.5
q0 -31 -13.5 -57t-35 -45t-49.5 -29.5t-58 -10.5zM72 226q0 -25 8 -50.5t23 -46.5t36.5 -34t49.5 -13q24 0 42.5 11t31 29t19 40t6.5 43q0 25 -8.5 50.5t-24 46.5t-37.5 34t-49 13q-24 0 -42 -11.5t-30 -29t-18.5 -39.5t-6.5 -43zM62 -32q-11 -22 -11 -46q0 -28 13 -51.5
t34 -41t47 -27t52 -9.5q19 0 41.5 6.5t41.5 18.5t31.5 29.5t12.5 39.5q0 25 -20.5 36.5t-51.5 17t-66.5 7.5t-66.5 7.5t-51.5 18.5t-20.5 39q0 23 20.5 40t41.5 21q-10 -7 -21.5 -18.5t-11.5 -25.5q0 -18 19.5 -25t48.5 -10.5t63 -6t63 -11t48.5 -27t19.5 -52.5
q0 -32 -14.5 -54t-38 -36t-51.5 -20t-55 -6q-25 0 -52.5 5.5t-50 18t-37.5 33.5t-15 52q0 22 10.5 42.5t27.5 34.5zM200 -116q0 -24 -18 -39l-3 2q4 4 4 10q2 5 -4 7l-9 3q-4 1 -8.5 5.5t-4.5 14.5q0 8 5.5 14.5t14.5 6.5q11 0 17 -7t6 -17z" />
    <glyph glyph-name="Hcircumflex" unicode="&#x124;" horiz-adv-x="485" 
d="M212 549h-8l30 39h17l31 -39h-8l-31 21zM35 0q20 6 27 21t7 35v378q0 19 -7 34.5t-27 21.5h115q-20 -6 -27 -21.5t-7 -34.5v-179h247v179q0 19 -6.5 34.5t-26.5 21.5h115q-20 -6 -27 -21.5t-7 -34.5v-377q0 -19 7 -35t27 -22h-115q20 6 26.5 22t6.5 35v190h-247v-191
q0 -19 7.5 -34.5t26.5 -21.5h-115z" />
    <glyph glyph-name="hcircumflex" unicode="&#x125;" horiz-adv-x="365" 
d="M18 0q21 8 28 24t7 37v367q0 13 -4 30t-21 17l64 47l1 -461q0 -21 7.5 -37t28.5 -24h-111zM183 414h-8l31 40h17l30 -40h-8l-31 21zM211 335q-26 0 -51 -11.5t-45 -27.5q21 25 50.5 40.5t61.5 15.5q53 0 76.5 -37t23.5 -85v-169q0 -21 7.5 -37.5t28.5 -23.5h-112
q21 7 28.5 24t7.5 37v178q0 37 -17 66.5t-59 29.5z" />
    <glyph glyph-name="Hbar" unicode="&#x126;" horiz-adv-x="485" 
d="M35 0q20 6 27 21t7 35v311h-33v13h33v54q0 19 -7 34.5t-27 21.5h115q-20 -6 -27 -21.5t-7 -34.5v-54h29v-13h-29v-112h247v179q0 19 -6.5 34.5t-26.5 21.5h115q-20 -6 -27 -21.5t-7 -34.5v-377q0 -19 7 -35t27 -22h-115q20 6 26.5 22t6.5 35v190h-247v-191
q0 -19 7.5 -34.5t26.5 -21.5h-115z" />
    <glyph glyph-name="hbar" unicode="&#x127;" horiz-adv-x="365" 
d="M130 408h-38l1 -347q0 -21 7.5 -37t28.5 -24h-111q21 8 28 24t7 37v347h-32v13h32v7q0 13 -4 30t-21 17l64 47v-101h38v-13zM211 335q-26 0 -51 -11.5t-45 -27.5q21 25 50.5 40.5t61.5 15.5q53 0 76.5 -37t23.5 -85v-169q0 -21 7.5 -37.5t28.5 -23.5h-112q21 7 28.5 24
t7.5 37v178q0 37 -17 66.5t-59 29.5z" />
    <glyph glyph-name="Itilde" unicode="&#x128;" horiz-adv-x="202" 
d="M27 547q8 11 21.5 18.5t27.5 7.5q19 0 29.5 -4.5t24.5 -4.5q5 0 12.5 1t17.5 6q-6 -11 -18.5 -18.5t-28.5 -7.5q-18 0 -30 5t-26 5t-30 -8zM35 0q20 6 27 22t7 35v377q0 19 -7 34.5t-27 21.5h115q-20 -6 -27 -21.5t-7 -34.5v-377q0 -19 7 -35t27 -22h-115z" />
    <glyph glyph-name="itilde" unicode="&#x129;" 
d="M8 414q8 11 21.5 18.5t27.5 7.5q19 0 29.5 -4.5t24.5 -4.5q5 0 12.5 1t17.5 6q-6 -11 -18.5 -18.5t-28.5 -7.5q-18 0 -29.5 5t-25.5 5q-15 0 -31 -8zM20 0q20 6 26.5 21.5t6.5 35.5v206q0 11 -4 27t-19 16l63 44v-293q0 -20 7 -35.5t27 -21.5h-107z" />
    <glyph glyph-name="Imacron" unicode="&#x12a;" horiz-adv-x="202" 
d="M146 534h-110v13h110v-13zM35 0q20 6 27 22t7 35v377q0 19 -7 34.5t-27 21.5h115q-20 -6 -27 -21.5t-7 -34.5v-377q0 -19 7 -35t27 -22h-115z" />
    <glyph glyph-name="imacron" unicode="&#x12b;" 
d="M130 403h-109v14h109v-14zM20 0q20 6 26.5 21.5t6.5 35.5v206q0 11 -4 27t-19 16l63 44v-293q0 -20 7 -35.5t27 -21.5h-107z" />
    <glyph glyph-name="Iogonek" unicode="&#x12e;" horiz-adv-x="202" 
d="M150 0q-18 -11 -18 -32q0 -16 10.5 -25t26.5 -9q-6 -3 -12.5 -5.5t-14.5 -2.5q-14 0 -25 9t-11 24t12 25t24 16h-107q20 6 27 22t7 35v377q0 19 -7 34.5t-27 21.5h115q-20 -6 -27 -21.5t-7 -34.5v-377q0 -19 7 -35t27 -22z" />
    <glyph glyph-name="iogonek" unicode="&#x12f;" 
d="M71 406q-13 0 -21 7.5t-8 20.5t8 20.5t21 7.5q28 0 28 -28t-28 -28zM127 0q-18 -11 -18 -32q0 -16 10.5 -25t26.5 -9q-6 -3 -12.5 -5.5t-14.5 -2.5q-14 0 -25 9t-11 24t12 25t24 16h-99q20 6 26.5 21.5t6.5 35.5v206q0 11 -4 27t-19 16l63 44v-293q0 -20 7 -35.5
t27 -21.5z" />
    <glyph glyph-name="Idotaccent" unicode="&#x130;" horiz-adv-x="202" 
d="M113 566q0 -9 -6 -15.5t-15 -6.5t-15 6.5t-6 15.5q0 20 21 20q9 0 15 -6t6 -14zM35 0q20 6 27 22t7 35v377q0 19 -7 34.5t-27 21.5h115q-20 -6 -27 -21.5t-7 -34.5v-377q0 -19 7 -35t27 -22h-115z" />
    <glyph glyph-name="dotlessi" unicode="&#x131;" 
d="M20 0q20 6 26.5 21.5t6.5 35.5v206q0 11 -4 27t-19 16l63 44v-293q0 -20 7 -35.5t27 -21.5h-107z" />
    <glyph glyph-name="uni0136" unicode="&#x136;" horiz-adv-x="433" 
d="M68 434q0 17 -8.5 34t-25.5 22h115q-20 -6 -27 -21.5t-7 -34.5v-218l205 219q9 9 9 21q0 11 -8.5 21t-19.5 13h102q-20 -6 -37.5 -22t-31.5 -31l-116 -124q-5 -5 -5 -12q0 -5 3 -10l168 -243q9 -13 27 -28t32 -20h-75q-8 0 -17 9l-162 237q-5 9 -17 9q-7 0 -15 -6
t-16 -14t-14.5 -16.5t-11.5 -13.5v-148q0 -20 7 -35t27 -22h-115q20 6 27 22t7 35v377zM264 -57q0 -25 -18 -40l-2 2q3 4 3 11q0 5 -4 7t-9 3.5t-9 5.5t-4 13q0 21 20 21q12 0 17.5 -6.5t5.5 -16.5z" />
    <glyph glyph-name="uni0137" unicode="&#x137;" horiz-adv-x="374" 
d="M18 0q21 8 28 24t7 37v367q0 13 -4 30t-21 17l64 47l1 -461q0 -21 7.5 -37t28.5 -24h-111zM224 293q5 5 10 15t5 17q0 10 -6.5 16t-14.5 9h89q-27 -10 -46 -27l-121 -112l153 -175q12 -14 26 -22t31 -14h-78l-164 189zM204 -57q0 -25 -18 -40l-3 2q4 4 4 11q0 5 -4 7
t-9 3.5t-9 5.5t-4 13q0 21 20 21q12 0 17.5 -6.5t5.5 -16.5z" />
    <glyph glyph-name="Lacute" unicode="&#x139;" horiz-adv-x="367" 
d="M100 523h-13l11 42h32zM35 0q20 6 27 22t7 35v377q0 19 -7 34.5t-27 21.5h115q-20 -6 -27 -21.5t-7 -34.5v-426h126q42 0 70.5 21.5t48.5 56.5l-19 -86h-307z" />
    <glyph glyph-name="lacute" unicode="&#x13a;" 
d="M75 561h-13l11 42h32zM18 0q21 8 28 24t7 37v367q0 13 -4 30t-21 17l64 47l1 -461q0 -21 7.5 -37t28.5 -24h-111z" />
    <glyph glyph-name="uni013B" unicode="&#x13b;" horiz-adv-x="367" 
d="M35 0q20 6 27 22t7 35v377q0 19 -7 34.5t-27 21.5h115q-20 -6 -27 -21.5t-7 -34.5v-426h126q42 0 70.5 21.5t48.5 56.5l-19 -86h-307zM183 -59q0 -25 -18 -40l-3 2q4 4 4 11q0 5 -4 6.5t-9 3t-9 5.5t-4 14q0 21 20 21q12 0 17.5 -6.5t5.5 -16.5z" />
    <glyph glyph-name="uni013C" unicode="&#x13c;" 
d="M18 0q21 8 28 24t7 37v367q0 13 -4 30t-21 17l64 47l1 -461q0 -21 7.5 -37t28.5 -24h-111zM95 -57q0 -11 -5 -22t-12 -18l-3 2q3 4 3 11q0 5 -4 7t-8.5 3.5t-8.5 5.5t-4 13q0 21 20 21q11 0 16.5 -6.5t5.5 -16.5z" />
    <glyph glyph-name="Lcaron" unicode="&#x13d;" horiz-adv-x="367" 
d="M102 534h-18l-31 39h7l33 -21l31 21h8zM35 0q20 6 27 22t7 35v377q0 19 -7 34.5t-27 21.5h115q-20 -6 -27 -21.5t-7 -34.5v-426h126q42 0 70.5 21.5t48.5 56.5l-19 -86h-307z" />
    <glyph glyph-name="lcaron" unicode="&#x13e;" 
d="M81 564h-18l-31 39h7l33 -21l31 21h8zM18 0q21 8 28 24t7 37v367q0 13 -4 30t-21 17l64 47l1 -461q0 -21 7.5 -37t28.5 -24h-111z" />
    <glyph glyph-name="Ldot" unicode="&#x13f;" horiz-adv-x="367" 
d="M35 0q20 6 27 22t7 35v377q0 19 -7 34.5t-27 21.5h115q-20 -6 -27 -21.5t-7 -34.5v-426h126q42 0 70.5 21.5t48.5 56.5l-19 -86h-307zM253 217q0 -13 -9.5 -22t-21.5 -9q-13 0 -22.5 9t-9.5 22t9.5 21.5t22.5 8.5q12 0 21.5 -9t9.5 -21z" />
    <glyph glyph-name="ldot" unicode="&#x140;" 
d="M18 0q21 8 28 24t7 37v367q0 13 -4 30t-21 17l64 47l1 -461q0 -21 7.5 -37t28.5 -24h-111zM195 238q0 -13 -9 -22.5t-21 -9.5q-14 0 -23 9.5t-9 22.5t9.5 21.5t22.5 8.5q11 0 20.5 -9t9.5 -21z" />
    <glyph glyph-name="Lslash" unicode="&#x141;" horiz-adv-x="367" 
d="M36 248l33 12v174q0 19 -7 34.5t-27 21.5h115q-20 -6 -27 -21.5t-7 -34.5v-156l34 13v-13l-34 -13v-257h126q42 0 70.5 21.5t48.5 56.5l-19 -86h-307q20 6 27 22t7 35v190l-33 -12v13z" />
    <glyph glyph-name="lslash" unicode="&#x142;" 
d="M15 248l38 14v166q0 13 -4 30t-21 17l64 47l1 -238v-7l36 14v-13l-36 -14v-203q0 -21 7.5 -37t28.5 -24h-111q21 8 28 24t7 37v188l-38 -14v13z" />
    <glyph glyph-name="Nacute" unicode="&#x143;" horiz-adv-x="480" 
d="M251 543h-14l11 42h33zM36 0q22 7 35.5 22.5t13.5 39.5v364q0 48 -49 64h89l281 -395v333q0 24 -13.5 39.5t-35.5 22.5h105q-22 -7 -35 -22.5t-13 -39.5v-428l-322 453v-391q0 -25 14 -40t36 -22h-106z" />
    <glyph glyph-name="nacute" unicode="&#x144;" horiz-adv-x="382" 
d="M212 382h-13l11 42h32zM211 335q-26 0 -51 -11.5t-45 -27.5q21 25 50.5 40.5t61.5 15.5q53 0 76.5 -37t23.5 -85v-169q0 -21 7.5 -37.5t28.5 -23.5h-112q21 7 28.5 24t7.5 37v178q0 37 -17 66.5t-59 29.5zM18 0q21 8 28 24t7 37v196q0 12 -4 29t-21 17l64 47l1 -289
q0 -21 7.5 -37t28.5 -24h-111z" />
    <glyph glyph-name="uni0145" unicode="&#x145;" horiz-adv-x="480" 
d="M36 0q22 7 35.5 22.5t13.5 39.5v364q0 48 -49 64h89l281 -395v333q0 24 -13.5 39.5t-35.5 22.5h105q-22 -7 -35 -22.5t-13 -39.5v-428l-322 453v-391q0 -25 14 -40t36 -22h-106zM283 -57q0 -25 -18 -40l-2 2q3 4 3 11q0 5 -4 7t-9 3.5t-9 5.5t-4 13q0 21 20 21
q12 0 17.5 -6.5t5.5 -16.5z" />
    <glyph glyph-name="uni0146" unicode="&#x146;" horiz-adv-x="382" 
d="M211 335q-26 0 -51 -11.5t-45 -27.5q21 25 50.5 40.5t61.5 15.5q53 0 76.5 -37t23.5 -85v-169q0 -21 7.5 -37.5t28.5 -23.5h-112q21 7 28.5 24t7.5 37v178q0 37 -17 66.5t-59 29.5zM18 0q21 8 28 24t7 37v196q0 12 -4 29t-21 17l64 47l1 -289q0 -21 7.5 -37t28.5 -24
h-111zM218 -57q0 -25 -18 -40l-3 2q4 4 4 11q0 5 -4 7t-9 3.5t-9 5.5t-4 13q0 21 20 21q12 0 17.5 -6.5t5.5 -16.5z" />
    <glyph glyph-name="Ncaron" unicode="&#x147;" horiz-adv-x="480" 
d="M271 529h-18l-30 39h7l33 -21l30 21h8zM36 0q22 7 35.5 22.5t13.5 39.5v364q0 48 -49 64h89l281 -395v333q0 24 -13.5 39.5t-35.5 22.5h105q-22 -7 -35 -22.5t-13 -39.5v-428l-322 453v-391q0 -25 14 -40t36 -22h-106z" />
    <glyph glyph-name="ncaron" unicode="&#x148;" horiz-adv-x="382" 
d="M211 405h-17l-31 40h7l33 -21l31 21h7zM211 335q-26 0 -51 -11.5t-45 -27.5q21 25 50.5 40.5t61.5 15.5q53 0 76.5 -37t23.5 -85v-169q0 -21 7.5 -37.5t28.5 -23.5h-112q21 7 28.5 24t7.5 37v178q0 37 -17 66.5t-59 29.5zM18 0q21 8 28 24t7 37v196q0 12 -4 29t-21 17
l64 47l1 -289q0 -21 7.5 -37t28.5 -24h-111z" />
    <glyph glyph-name="Omacron" unicode="&#x14c;" horiz-adv-x="547" 
d="M346 545h-109v14h109v-14zM36 245q0 51 19.5 96t53 78.5t78.5 53t96 19.5t96 -19.5t78.5 -53t53 -78.5t19.5 -96t-19.5 -96t-53 -78.5t-78.5 -53t-96 -19.5t-96 19.5t-78.5 53t-53 78.5t-19.5 96zM91 257q0 -42 14.5 -87t41 -81.5t64.5 -60t85 -23.5q44 0 77.5 21
t56.5 54t35 73.5t12 79.5q0 43 -14 87.5t-40.5 81t-64.5 59.5t-86 23q-43 0 -77 -21t-57 -54t-35 -73t-12 -79z" />
    <glyph glyph-name="omacron" unicode="&#x14d;" horiz-adv-x="405" 
d="M259 398h-109v14h109v-14zM23 175q0 36 14 68t38 56t56 38t68 14t68 -14t56 -38t38 -56t14 -68t-13.5 -68t-37.5 -56t-56 -38t-68 -14q-37 0 -69 14t-56 38t-38 56t-14 68zM187 341q-30 0 -53 -14t-38.5 -35.5t-23.5 -49t-8 -54.5q0 -30 9.5 -62t28.5 -58.5t46 -43
t61 -16.5q30 0 53 14t38.5 35.5t23 49t7.5 54.5q0 31 -9.5 63t-28 58t-45 42.5t-61.5 16.5z" />
    <glyph glyph-name="Obreve" unicode="&#x14e;" horiz-adv-x="547" 
d="M347 588q-3 -20 -16 -36t-35 -16t-35 16t-16 36q7 -14 21.5 -21.5t29.5 -7.5q16 0 30 7t21 22zM36 245q0 51 19.5 96t53 78.5t78.5 53t96 19.5t96 -19.5t78.5 -53t53 -78.5t19.5 -96t-19.5 -96t-53 -78.5t-78.5 -53t-96 -19.5t-96 19.5t-78.5 53t-53 78.5t-19.5 96z
M91 257q0 -42 14.5 -87t41 -81.5t64.5 -60t85 -23.5q44 0 77.5 21t56.5 54t35 73.5t12 79.5q0 43 -14 87.5t-40.5 81t-64.5 59.5t-86 23q-43 0 -77 -21t-57 -54t-35 -73t-12 -79z" />
    <glyph glyph-name="obreve" unicode="&#x14f;" horiz-adv-x="405" 
d="M249 431q-3 -20 -15.5 -36t-34.5 -16q-23 0 -35.5 16t-15.5 36q7 -14 21 -21.5t30 -7.5q15 0 29.5 7.5t20.5 21.5zM23 175q0 36 14 68t38 56t56 38t68 14t68 -14t56 -38t38 -56t14 -68t-13.5 -68t-37.5 -56t-56 -38t-68 -14q-37 0 -69 14t-56 38t-38 56t-14 68zM187 341
q-30 0 -53 -14t-38.5 -35.5t-23.5 -49t-8 -54.5q0 -30 9.5 -62t28.5 -58.5t46 -43t61 -16.5q30 0 53 14t38.5 35.5t23 49t7.5 54.5q0 31 -9.5 63t-28 58t-45 42.5t-61.5 16.5z" />
    <glyph glyph-name="Ohungarumlaut" unicode="&#x150;" horiz-adv-x="547" 
d="M309 608q0 -4 -6.5 -13t-15.5 -19t-17.5 -19t-11.5 -12l-10 5q3 5 9 16.5t13 23.5t13.5 21t11.5 9t9.5 -3.5t4.5 -8.5zM361 608q0 -4 -7 -13t-16 -19t-17.5 -19t-11.5 -12l-9 5l8 16q8 17 19.5 35.5t19.5 18.5q4 0 9 -3.5t5 -8.5zM36 245q0 51 19.5 96t53 78.5t78.5 53
t96 19.5t96 -19.5t78.5 -53t53 -78.5t19.5 -96t-19.5 -96t-53 -78.5t-78.5 -53t-96 -19.5t-96 19.5t-78.5 53t-53 78.5t-19.5 96zM91 257q0 -42 14.5 -87t41 -81.5t64.5 -60t85 -23.5q44 0 77.5 21t56.5 54t35 73.5t12 79.5q0 43 -14 87.5t-40.5 81t-64.5 59.5t-86 23
q-43 0 -77 -21t-57 -54t-35 -73t-12 -79z" />
    <glyph glyph-name="ohungarumlaut" unicode="&#x151;" horiz-adv-x="405" 
d="M221 451q0 -3 -6.5 -12t-15.5 -19t-17.5 -19t-12.5 -12l-9 5q3 4 9 15.5t13 23.5t14 21.5t11 9.5t9 -4t5 -9zM272 451q0 -3 -6.5 -12t-15.5 -19t-17.5 -19t-11.5 -12l-10 5q3 4 9 15.5t13 23.5t14 21.5t11 9.5q5 0 9.5 -4t4.5 -9zM23 175q0 36 14 68t38 56t56 38t68 14
t68 -14t56 -38t38 -56t14 -68t-13.5 -68t-37.5 -56t-56 -38t-68 -14q-37 0 -69 14t-56 38t-38 56t-14 68zM187 341q-30 0 -53 -14t-38.5 -35.5t-23.5 -49t-8 -54.5q0 -30 9.5 -62t28.5 -58.5t46 -43t61 -16.5q30 0 53 14t38.5 35.5t23 49t7.5 54.5q0 31 -9.5 63t-28 58
t-45 42.5t-61.5 16.5z" />
    <glyph glyph-name="OE" unicode="&#x152;" horiz-adv-x="583" 
d="M573 0q-73 0 -145.5 -1t-144.5 -1q-51 0 -96 19.5t-78.5 53t-53 78.5t-19.5 96t19.5 96t53 78.5t78.5 53t96 19.5q72 0 143 -1t143 -1l19 -83q-37 75 -122 75h-121v-229h83q23 0 41 9.5t25 32.5v-91q-7 23 -25 32t-41 9h-83v-237h120q42 0 75.5 19t52.5 56zM91 257
q0 -40 12.5 -82.5t36 -78.5t58 -61t77.5 -30q14 8 18.5 22.5t4.5 29.5v377q0 14 -4 27.5t-17 22.5q-45 0 -80 -20t-58.5 -52t-35.5 -73t-12 -82z" />
    <glyph glyph-name="oe" unicode="&#x153;" horiz-adv-x="657" 
d="M23 175q0 36 14 68t38 56t56 38t68 14q49 0 89.5 -24.5t63.5 -64.5q20 41 59.5 64t95.5 23q32 0 56 -13t40 -35t24 -49.5t8 -56.5h-261q1 -5 1 -10v-10v-11q3 -27 12 -52.5t24.5 -45t39 -31t55.5 -11.5q16 0 35 3t37.5 9.5t33.5 17t23 25.5q-16 -40 -54.5 -62t-80.5 -22
q-51 0 -90 24.5t-60 65.5q-23 -38 -62.5 -62t-87.5 -24q-37 0 -69 14t-56 38t-38 56t-14 68zM498 343q-26 0 -48.5 -12.5t-39.5 -32t-26.5 -44t-9.5 -49.5h181q23 0 34 15t11 35q0 21 -9 37.5t-23 28t-32.5 17t-37.5 5.5zM187 341q-30 0 -53 -14t-38.5 -35.5t-23.5 -49
t-8 -54.5q0 -30 9.5 -62t28.5 -58.5t46 -43t61 -16.5q30 0 53 14t38.5 35.5t23 49t7.5 54.5q0 31 -9.5 63t-28 58t-45 42.5t-61.5 16.5z" />
    <glyph glyph-name="Racute" unicode="&#x154;" horiz-adv-x="435" 
d="M190 529h-13l11 42h33zM202 490q35 0 69 -8t60.5 -26t43 -46t16.5 -69q0 -59 -37 -96.5t-92 -48.5l99 -155q9 -14 23 -24.5t29 -16.5h-78l-124 193h-94v-137q0 -19 7 -34.5t27 -21.5h-115q20 6 26.5 22t6.5 35v377q0 18 -6.5 34t-26.5 22h166zM117 482v-282h82
q64 0 102.5 38t38.5 103q0 66 -37.5 103.5t-103.5 37.5h-82z" />
    <glyph glyph-name="racute" unicode="&#x155;" horiz-adv-x="241" 
d="M118 398h-13l11 42h32zM98 298q19 19 40 36t50 17q11 0 19.5 -6t8.5 -17q0 -12 -7.5 -18t-18.5 -6q-9 0 -19 6t-24 6q-13 0 -25.5 -5.5t-23.5 -12.5zM7 0q20 6 27 21.5t7 35.5v206q0 11 -4 27t-19 16l63 44v-293q0 -20 6.5 -35.5t26.5 -21.5h-107z" />
    <glyph glyph-name="uni0156" unicode="&#x156;" horiz-adv-x="435" 
d="M202 490q35 0 69 -8t60.5 -26t43 -46t16.5 -69q0 -59 -37 -96.5t-92 -48.5l99 -155q9 -14 23 -24.5t29 -16.5h-78l-124 193h-94v-137q0 -19 7 -34.5t27 -21.5h-115q20 6 26.5 22t6.5 35v377q0 18 -6.5 34t-26.5 22h166zM117 482v-282h82q64 0 102.5 38t38.5 103
q0 66 -37.5 103.5t-103.5 37.5h-82zM218 -57q0 -25 -18 -40l-3 2q4 4 4 11q0 5 -4 7t-9 3.5t-9 5.5t-4 13q0 21 20 21q12 0 17.5 -6.5t5.5 -16.5z" />
    <glyph glyph-name="uni0157" unicode="&#x157;" horiz-adv-x="241" 
d="M98 298q19 19 40 36t50 17q11 0 19.5 -6t8.5 -17q0 -12 -7.5 -18t-18.5 -6q-9 0 -19 6t-24 6q-13 0 -25.5 -5.5t-23.5 -12.5zM7 0q20 6 27 21.5t7 35.5v206q0 11 -4 27t-19 16l63 44v-293q0 -20 6.5 -35.5t26.5 -21.5h-107zM81 -57q0 -25 -18 -40l-3 2q4 4 4 11q0 5 -4 7
t-9 3.5t-9 5.5t-4 13q0 21 20 21q11 0 17 -6.5t6 -16.5z" />
    <glyph glyph-name="Rcaron" unicode="&#x158;" horiz-adv-x="435" 
d="M188 526h-17l-31 40h7l33 -21l31 21h7zM202 490q35 0 69 -8t60.5 -26t43 -46t16.5 -69q0 -59 -37 -96.5t-92 -48.5l99 -155q9 -14 23 -24.5t29 -16.5h-78l-124 193h-94v-137q0 -19 7 -34.5t27 -21.5h-115q20 6 26.5 22t6.5 35v377q0 18 -6.5 34t-26.5 22h166zM117 482
v-282h82q64 0 102.5 38t38.5 103q0 66 -37.5 103.5t-103.5 37.5h-82z" />
    <glyph glyph-name="rcaron" unicode="&#x159;" horiz-adv-x="241" 
d="M122 393h-17l-31 40h7l33 -21l31 21h8zM98 298q19 19 40 36t50 17q11 0 19.5 -6t8.5 -17q0 -12 -7.5 -18t-18.5 -6q-9 0 -19 6t-24 6q-13 0 -25.5 -5.5t-23.5 -12.5zM7 0q20 6 27 21.5t7 35.5v206q0 11 -4 27t-19 16l63 44v-293q0 -20 6.5 -35.5t26.5 -21.5h-107z" />
    <glyph glyph-name="Sacute" unicode="&#x15a;" horiz-adv-x="384" 
d="M200 538h-14l11 42h33zM34 144q9 -27 24.5 -52t36.5 -44.5t47 -31.5t56 -12q22 0 45 4.5t41.5 15.5t30.5 29t12 44q0 32 -21 53.5t-52 39t-67.5 33t-67.5 36t-52 48t-21 68.5q0 31 12 54.5t32.5 39t47 23.5t55.5 8q20 0 38.5 -6t34.5 -12.5t28.5 -12.5t19.5 -6q12 0 20 9
t12 20q-1 -29 -2.5 -57.5t-1.5 -57.5q-14 50 -57 83t-95 33q-21 0 -41 -5.5t-35.5 -16.5t-25.5 -28t-10 -40q0 -32 21 -54.5t52 -40t68 -34t68 -37.5t52 -49.5t21 -70.5q0 -32 -14.5 -55t-37.5 -38t-51.5 -22.5t-56.5 -7.5q-18 0 -34.5 4.5t-33 10.5t-32 10.5t-31.5 4.5
q-11 0 -20.5 -6t-14.5 -14v140z" />
    <glyph glyph-name="sacute" unicode="&#x15b;" horiz-adv-x="303" 
d="M149 386h-13l11 42h32zM24 101q15 -40 47.5 -67t77.5 -27q15 0 33 2t34 9t26.5 19t10.5 32q0 22 -16.5 36.5t-41.5 25.5t-54 20.5t-54 23t-41.5 33t-16.5 48.5q0 24 9.5 42.5t25.5 31t37 18.5t43 6q10 0 26.5 -2t33.5 -5.5t33 -8t25 -8.5v-66q-12 38 -47.5 61t-73.5 23
q-13 0 -28.5 -4t-28.5 -11.5t-21.5 -19t-8.5 -27.5q0 -26 16.5 -42t41.5 -28t54.5 -22t54.5 -22.5t41.5 -30.5t16.5 -47q0 -27 -10.5 -45.5t-28 -30.5t-40 -17t-45.5 -5q-31 0 -66.5 6.5t-64.5 15.5v83z" />
    <glyph glyph-name="Scircumflex" unicode="&#x15c;" horiz-adv-x="384" 
d="M165 540h-9l31 40h17l30 -40h-8l-31 21zM34 144q9 -27 24.5 -52t36.5 -44.5t47 -31.5t56 -12q22 0 45 4.5t41.5 15.5t30.5 29t12 44q0 32 -21 53.5t-52 39t-67.5 33t-67.5 36t-52 48t-21 68.5q0 31 12 54.5t32.5 39t47 23.5t55.5 8q20 0 38.5 -6t34.5 -12.5t28.5 -12.5
t19.5 -6q12 0 20 9t12 20q-1 -29 -2.5 -57.5t-1.5 -57.5q-14 50 -57 83t-95 33q-21 0 -41 -5.5t-35.5 -16.5t-25.5 -28t-10 -40q0 -32 21 -54.5t52 -40t68 -34t68 -37.5t52 -49.5t21 -70.5q0 -32 -14.5 -55t-37.5 -38t-51.5 -22.5t-56.5 -7.5q-18 0 -34.5 4.5t-33 10.5
t-32 10.5t-31.5 4.5q-11 0 -20.5 -6t-14.5 -14v140z" />
    <glyph glyph-name="scircumflex" unicode="&#x15d;" horiz-adv-x="303" 
d="M112 395h-8l30 39h17l31 -39h-8l-31 21zM24 101q15 -40 47.5 -67t77.5 -27q15 0 33 2t34 9t26.5 19t10.5 32q0 22 -16.5 36.5t-41.5 25.5t-54 20.5t-54 23t-41.5 33t-16.5 48.5q0 24 9.5 42.5t25.5 31t37 18.5t43 6q10 0 26.5 -2t33.5 -5.5t33 -8t25 -8.5v-66
q-12 38 -47.5 61t-73.5 23q-13 0 -28.5 -4t-28.5 -11.5t-21.5 -19t-8.5 -27.5q0 -26 16.5 -42t41.5 -28t54.5 -22t54.5 -22.5t41.5 -30.5t16.5 -47q0 -27 -10.5 -45.5t-28 -30.5t-40 -17t-45.5 -5q-31 0 -66.5 6.5t-64.5 15.5v83z" />
    <glyph glyph-name="Scedilla" unicode="&#x15e;" horiz-adv-x="384" 
d="M34 144q9 -27 24.5 -52t36.5 -44.5t47 -31.5t56 -12q22 0 45 4.5t41.5 15.5t30.5 29t12 44q0 32 -21 53.5t-52 39t-67.5 33t-67.5 36t-52 48t-21 68.5q0 31 12 54.5t32.5 39t47 23.5t55.5 8q20 0 38.5 -6t34.5 -12.5t28.5 -12.5t19.5 -6q12 0 20 9t12 20
q-1 -29 -2.5 -57.5t-1.5 -57.5q-14 50 -57 83t-95 33q-21 0 -41 -5.5t-35.5 -16.5t-25.5 -28t-10 -40q0 -32 21 -54.5t52 -40t68 -34t68 -37.5t52 -49.5t21 -70.5q0 -31 -14 -54.5t-36.5 -38.5t-50.5 -22.5t-55 -7.5v-8q19 -9 19 -26q0 -11 -8 -19t-20 -8q-10 0 -21 9
q10 0 20 5.5t10 17.5t-9 17v12q-17 1 -33 5.5t-31.5 10t-31 10t-30.5 4.5q-11 0 -20.5 -6t-14.5 -14v140z" />
    <glyph glyph-name="scedilla" unicode="&#x15f;" horiz-adv-x="303" 
d="M24 101q15 -40 47.5 -67t77.5 -27q15 0 33 2t34 9t26.5 19t10.5 32q0 22 -16.5 36.5t-41.5 25.5t-54 20.5t-54 23t-41.5 33t-16.5 48.5q0 24 9.5 42.5t25.5 31t37 18.5t43 6q10 0 26.5 -2t33.5 -5.5t33 -8t25 -8.5v-66q-12 38 -47.5 61t-73.5 23q-13 0 -28.5 -4
t-28.5 -11.5t-21.5 -19t-8.5 -27.5q0 -26 16.5 -42t41.5 -28t54.5 -22t54.5 -22.5t41.5 -30.5t16.5 -47q0 -26 -10 -44.5t-27 -30.5t-38.5 -17.5t-44.5 -5.5v-6q19 -7 19 -26q0 -11 -8.5 -18.5t-19.5 -7.5t-22 8q11 0 20.5 5.5t9.5 17.5t-9 17v10q-30 1 -63.5 7.5
t-61.5 14.5v83z" />
    <glyph glyph-name="Scaron" unicode="&#x160;" horiz-adv-x="384" 
d="M144 595l47 -38l44 38h11l-43 -56h-24l-45 56h10zM69 24q-11 0 -20.5 -6t-14.5 -14v140q9 -27 24.5 -52t36.5 -44.5t47 -31.5t56 -12q22 0 45 4.5t41.5 15.5t30.5 29t12 44q0 32 -21 53.5t-52 39t-67.5 33t-67.5 36t-52 48t-21 68.5q0 31 12 54.5t32.5 39t47 23.5t55.5 8
q20 0 38.5 -6t34.5 -12.5t28.5 -12.5t19.5 -6q12 0 20 9t12 20q-1 -29 -2.5 -57.5t-1.5 -57.5q-14 50 -57 83t-95 33q-21 0 -41 -5.5t-35.5 -16.5t-25.5 -28t-10 -40q0 -32 21 -54.5t52 -40t68 -34t68 -37.5t52 -49.5t21 -70.5q0 -32 -14.5 -55t-37.5 -38t-51.5 -22.5
t-56.5 -7.5q-18 0 -34.5 4.5t-33 10.5t-32 10.5t-31.5 4.5z" />
    <glyph glyph-name="scaron" unicode="&#x161;" horiz-adv-x="303" 
d="M153 409l45 38h11l-43 -56h-25l-44 56h10zM24 101q15 -40 47.5 -67t77.5 -27q15 0 33 2t34 9t26.5 19t10.5 32q0 22 -16.5 36.5t-41.5 25.5t-54 20.5t-54 23t-41.5 33t-16.5 48.5q0 24 9.5 42.5t25.5 31t37 18.5t43 6q10 0 26.5 -2t33.5 -5.5t33 -8t25 -8.5v-66
q-12 38 -47.5 61t-73.5 23q-13 0 -28.5 -4t-28.5 -11.5t-21.5 -19t-8.5 -27.5q0 -26 16.5 -42t41.5 -28t54.5 -22t54.5 -22.5t41.5 -30.5t16.5 -47q0 -27 -10.5 -45.5t-28 -30.5t-40 -17t-45.5 -5q-31 0 -66.5 6.5t-64.5 15.5v83z" />
    <glyph glyph-name="Tcaron" unicode="&#x164;" horiz-adv-x="451" 
d="M239 534h-17l-31 39h7l33 -21l31 21h8zM53 490h354l19 -80q-17 32 -46 51t-66 19h-61v-423q0 -18 7 -34.5t27 -22.5h-115q20 6 27 22t7 35l1 423h-60q-38 0 -66 -19t-45 -51z" />
    <glyph glyph-name="tcaron" unicode="&#x165;" horiz-adv-x="240" 
d="M97 527h-17l-31 39h7l33 -21l31 21h7zM29 350h28v76q0 21 9.5 38.5t30.5 25.5v-140h63v-9h-63v-251q0 -29 17.5 -51t48.5 -22q17 0 35.5 8.5t29.5 22.5q-11 -24 -36 -36t-49 -12q-46 0 -66 31.5t-20 72.5v237h-28v9z" />
    <glyph glyph-name="Utilde" unicode="&#x168;" horiz-adv-x="476" 
d="M302 577q-4 -11 -15 -17t-22 -6q-14 0 -26 3.5t-25 3.5q-11 0 -19 -3q14 22 39 22q12 0 24 -3.5t25 -3.5q12 0 19 4zM144 490q-20 -6 -27 -22t-7 -34v-261q0 -32 8 -61.5t25 -51.5t43 -35t61 -13q75 0 107 43.5t32 112.5v260q0 25 -13.5 40t-35.5 22h107
q-23 -7 -36.5 -22.5t-13.5 -39.5v-261q0 -79 -37 -125.5t-120 -46.5q-85 0 -130 44.5t-45 129.5v265q0 18 -6.5 34t-26.5 22h115z" />
    <glyph glyph-name="utilde" unicode="&#x169;" horiz-adv-x="355" 
d="M243 402q-5 -11 -16 -17t-22 -6q-5 0 -9.5 0.5t-9.5 1.5l-13 3q-5 1 -9.5 1.5t-9.5 0.5q-11 0 -19 -3q14 22 39 22q13 0 25 -3.5t24 -3.5q13 0 20 4zM78 350v-239q0 -37 17 -66.5t59 -29.5q26 0 51 11.5t45 27.5q-20 -25 -49.5 -40.5t-61.5 -15.5q-27 0 -46 10t-31 27
t-17.5 39t-5.5 46v144q0 13 -5 24t-20 12zM315 350v-257q0 -12 4.5 -29t20.5 -17l-64 -47v264q0 13 -5 24t-20 12z" />
    <glyph glyph-name="Umacron" unicode="&#x16a;" horiz-adv-x="476" 
d="M302 554h-109v14h109v-14zM144 490q-20 -6 -27 -22t-7 -34v-261q0 -32 8 -61.5t25 -51.5t43 -35t61 -13q75 0 107 43.5t32 112.5v260q0 25 -13.5 40t-35.5 22h107q-23 -7 -36.5 -22.5t-13.5 -39.5v-261q0 -79 -37 -125.5t-120 -46.5q-85 0 -130 44.5t-45 129.5v265
q0 18 -6.5 34t-26.5 22h115z" />
    <glyph glyph-name="umacron" unicode="&#x16b;" horiz-adv-x="355" 
d="M237 410h-110v13h110v-13zM78 350v-239q0 -37 17 -66.5t59 -29.5q26 0 51 11.5t45 27.5q-20 -25 -49.5 -40.5t-61.5 -15.5q-27 0 -46 10t-31 27t-17.5 39t-5.5 46v144q0 13 -5 24t-20 12zM315 350v-257q0 -12 4.5 -29t20.5 -17l-64 -47v264q0 13 -5 24t-20 12z" />
    <glyph glyph-name="Ubreve" unicode="&#x16c;" horiz-adv-x="476" 
d="M294 599q-3 -21 -16 -36.5t-34 -15.5q-23 0 -36 15.5t-15 36.5q7 -14 21 -22t30 -8q15 0 29.5 7.5t20.5 22.5zM144 490q-20 -6 -27 -22t-7 -34v-261q0 -32 8 -61.5t25 -51.5t43 -35t61 -13q75 0 107 43.5t32 112.5v260q0 25 -13.5 40t-35.5 22h107q-23 -7 -36.5 -22.5
t-13.5 -39.5v-261q0 -79 -37 -125.5t-120 -46.5q-85 0 -130 44.5t-45 129.5v265q0 18 -6.5 34t-26.5 22h115z" />
    <glyph glyph-name="ubreve" unicode="&#x16d;" horiz-adv-x="355" 
d="M239 426q-3 -21 -16 -36.5t-35 -15.5t-35 15.5t-16 36.5q7 -14 21.5 -22t29.5 -8q16 0 30 7.5t21 22.5zM78 350v-239q0 -37 17 -66.5t59 -29.5q26 0 51 11.5t45 27.5q-20 -25 -49.5 -40.5t-61.5 -15.5q-27 0 -46 10t-31 27t-17.5 39t-5.5 46v144q0 13 -5 24t-20 12z
M315 350v-257q0 -12 4.5 -29t20.5 -17l-64 -47v264q0 13 -5 24t-20 12z" />
    <glyph glyph-name="Uring" unicode="&#x16e;" horiz-adv-x="476" 
d="M260 566q0 -12 -8 -20t-20 -8q-11 0 -19.5 8t-8.5 20t8.5 21t19.5 9q12 0 20 -9t8 -21zM221 566q0 -5 2.5 -13t8.5 -8t8.5 8.5t2.5 12.5q0 5 -2.5 14t-8.5 9q-7 0 -9 -8.5t-2 -14.5zM144 490q-20 -6 -27 -22t-7 -34v-261q0 -32 8 -61.5t25 -51.5t43 -35t61 -13
q75 0 107 43.5t32 112.5v260q0 25 -13.5 40t-35.5 22h107q-23 -7 -36.5 -22.5t-13.5 -39.5v-261q0 -79 -37 -125.5t-120 -46.5q-85 0 -130 44.5t-45 129.5v265q0 18 -6.5 34t-26.5 22h115z" />
    <glyph glyph-name="uring" unicode="&#x16f;" horiz-adv-x="355" 
d="M209 398q0 -12 -8 -20t-20 -8t-20.5 8t-8.5 20t8.5 21t20.5 9t20 -9t8 -21zM169 398q0 -5 2.5 -13t9.5 -8q5 0 7.5 8.5t2.5 12.5q0 5 -2.5 14t-7.5 9q-7 0 -9.5 -8.5t-2.5 -14.5zM78 350v-239q0 -37 17 -66.5t59 -29.5q26 0 51 11.5t45 27.5q-20 -25 -49.5 -40.5
t-61.5 -15.5q-27 0 -46 10t-31 27t-17.5 39t-5.5 46v144q0 13 -5 24t-20 12zM315 350v-257q0 -12 4.5 -29t20.5 -17l-64 -47v264q0 13 -5 24t-20 12z" />
    <glyph glyph-name="Uhungarumlaut" unicode="&#x170;" horiz-adv-x="476" 
d="M260 608q0 -3 -7 -12t-16 -19t-17.5 -19t-11.5 -13l-9 6q3 4 9 15.5t12.5 23.5t13.5 21.5t12 9.5q4 0 9 -4t5 -9zM311 608q0 -3 -6.5 -12t-15.5 -19t-17.5 -19t-12.5 -13l-9 6q3 4 9 15.5t13 23.5t14 21.5t11 9.5t9 -4t5 -9zM144 490q-20 -6 -27 -22t-7 -34v-261
q0 -32 8 -61.5t25 -51.5t43 -35t61 -13q75 0 107 43.5t32 112.5v260q0 25 -13.5 40t-35.5 22h107q-23 -7 -36.5 -22.5t-13.5 -39.5v-261q0 -79 -37 -125.5t-120 -46.5q-85 0 -130 44.5t-45 129.5v265q0 18 -6.5 34t-26.5 22h115z" />
    <glyph glyph-name="uhungarumlaut" unicode="&#x171;" horiz-adv-x="355" 
d="M209 463q0 -4 -6.5 -13t-15.5 -19t-17.5 -19t-11.5 -12l-10 5q3 5 9 16.5t13 23.5t14 21t11 9q5 0 9.5 -3.5t4.5 -8.5zM260 463q0 -4 -6.5 -13t-15.5 -19t-17.5 -19t-11.5 -12l-9 5q2 5 8 16.5t13 23.5t14 21t11 9q5 0 9.5 -3.5t4.5 -8.5zM78 350v-239q0 -37 17 -66.5
t59 -29.5q26 0 51 11.5t45 27.5q-20 -25 -49.5 -40.5t-61.5 -15.5q-27 0 -46 10t-31 27t-17.5 39t-5.5 46v144q0 13 -5 24t-20 12zM315 350v-257q0 -12 4.5 -29t20.5 -17l-64 -47v264q0 13 -5 24t-20 12z" />
    <glyph glyph-name="Uogonek" unicode="&#x172;" horiz-adv-x="476" 
d="M144 490q-20 -6 -27 -22t-7 -34v-261q0 -32 8 -61.5t25 -51.5t43 -35t61 -13q75 0 107 43.5t32 112.5v260q0 25 -13.5 40t-35.5 22h107q-23 -7 -36.5 -22.5t-13.5 -39.5v-261q0 -79 -37 -125.5t-120 -46.5q-85 0 -130 44.5t-45 129.5v265q0 18 -6.5 34t-26.5 22h115z
M263 -71q-6 -3 -12.5 -5.5t-14.5 -2.5q-14 0 -25 9t-11 24t12 25t24 16h8q-19 -10 -19 -32q0 -16 11 -25t27 -9z" />
    <glyph glyph-name="uogonek" unicode="&#x173;" horiz-adv-x="355" 
d="M78 350v-239q0 -37 17 -66.5t59 -29.5q26 0 51 11.5t45 27.5q-17 -21 -40.5 -35t-49.5 -19q-19 -10 -19 -32q0 -16 11 -25t27 -9q-6 -3 -12.5 -5.5t-14.5 -2.5q-14 0 -25.5 9t-11.5 24q1 15 13 25q5 5 12 8.5t9 6.5q7 0 11 1h-8q-3 0 -3 -1h-2l-6 -1q-54 0 -78 36.5
t-24 85.5v144q0 13 -5 24t-20 12zM315 350v-257q0 -12 4.5 -29t20.5 -17l-64 -47v264q0 13 -5 24t-20 12z" />
    <glyph glyph-name="Ydieresis" unicode="&#x178;" horiz-adv-x="418" 
d="M246 552q0 7 5.5 13t13.5 6q9 0 15 -6t6 -13q0 -9 -6 -14.5t-14 -5.5t-14 5.5t-6 14.5zM165 552q0 8 6 13.5t15 5.5q7 0 12.5 -5.5t5.5 -13.5t-5.5 -14t-12.5 -6q-9 0 -15 6t-6 14zM69 435q-8 15 -22 32.5t-31 22.5h116q-9 -4 -13 -12.5t-4 -17.5q0 -11 7 -27l105 -201
l96 185q4 7 7 15t3 16q0 14 -8 25.5t-22 16.5h100q-19 -6 -37.5 -26t-26.5 -37l-105 -202v-169q0 -19 7 -34.5t27 -21.5h-115q20 6 27 22t7 35v157z" />
    <glyph glyph-name="Zacute" unicode="&#x179;" horiz-adv-x="400" 
d="M223 540h-14l12 42h32zM19 0l297 482h-146q-41 0 -73 -21.5t-51 -56.5l21 86h308l-297 -482h154q38 0 73 22t53 55l-22 -85h-317z" />
    <glyph glyph-name="zacute" unicode="&#x17a;" horiz-adv-x="326" 
d="M185 391h-13l11 42h32zM246 343h-132q-26 0 -52 -18t-42 -38l26 63h251l-234 -344h158q28 0 53 23.5t38 45.5l-22 -75h-277z" />
    <glyph glyph-name="Zdotaccent" unicode="&#x17b;" horiz-adv-x="400" 
d="M235 558q0 -8 -6 -15t-15 -7t-15 6.5t-6 15.5q0 20 21 20q9 0 15 -6t6 -14zM19 0l297 482h-146q-41 0 -73 -21.5t-51 -56.5l21 86h308l-297 -482h154q38 0 73 22t53 55l-22 -85h-317z" />
    <glyph glyph-name="zdotaccent" unicode="&#x17c;" horiz-adv-x="326" 
d="M200 404q0 -9 -6 -15.5t-15 -6.5t-15 6.5t-6 15.5q0 20 21 20q9 0 15 -6t6 -14zM246 343h-132q-26 0 -52 -18t-42 -38l26 63h251l-234 -344h158q28 0 53 23.5t38 45.5l-22 -75h-277z" />
    <glyph glyph-name="Zcaron" unicode="&#x17d;" horiz-adv-x="400" 
d="M192 595h10l46 -38l45 38h11l-44 -56h-24zM19 0l297 482h-146q-41 0 -73 -21.5t-51 -56.5l21 86h308l-297 -482h154q38 0 73 22t53 55l-22 -85h-317z" />
    <glyph glyph-name="zcaron" unicode="&#x17e;" horiz-adv-x="326" 
d="M137 447l46 -38l45 38h11l-43 -56h-24l-45 56h10zM246 343h-132q-26 0 -52 -18t-42 -38l26 63h251l-234 -344h158q28 0 53 23.5t38 45.5l-22 -75h-277z" />
    <glyph glyph-name="uni0218" unicode="&#x218;" horiz-adv-x="384" 
d="M34 144q9 -27 24.5 -52t36.5 -44.5t47 -31.5t56 -12q22 0 45 4.5t41.5 15.5t30.5 29t12 44q0 32 -21 53.5t-52 39t-67.5 33t-67.5 36t-52 48t-21 68.5q0 31 12 54.5t32.5 39t47 23.5t55.5 8q20 0 38.5 -6t34.5 -12.5t28.5 -12.5t19.5 -6q12 0 20 9t12 20
q-1 -29 -2.5 -57.5t-1.5 -57.5q-14 50 -57 83t-95 33q-21 0 -41 -5.5t-35.5 -16.5t-25.5 -28t-10 -40q0 -32 21 -54.5t52 -40t68 -34t68 -37.5t52 -49.5t21 -70.5q0 -32 -14.5 -55t-37.5 -38t-51.5 -22.5t-56.5 -7.5q-18 0 -34.5 4.5t-33 10.5t-32 10.5t-31.5 4.5
q-11 0 -20.5 -6t-14.5 -14v140zM218 -67q0 -17 -14 -31l-2 1q2 8 2 9q0 4 -3.5 5.5l-7 3t-7 4.5t-3.5 11q0 7 5 11.5t12 4.5q18 0 18 -19z" />
    <glyph glyph-name="uni021A" unicode="&#x21a;" horiz-adv-x="451" 
d="M53 490h354l19 -80q-17 32 -46 51t-66 19h-61v-423q0 -18 7 -34.5t27 -22.5h-115q20 6 27 22t7 35l1 423h-60q-38 0 -66 -19t-45 -51zM245 -60q0 -18 -14 -32l-2 2q3 4 3 8t-3.5 5.5t-7 3.5t-7 5t-3.5 10t4.5 12t11.5 5q18 0 18 -19z" />
    <glyph glyph-name="uni021B" unicode="&#x21b;" horiz-adv-x="240" 
d="M29 350h28v76q0 21 9.5 38.5t30.5 25.5v-140h63v-9h-63v-251q0 -29 17.5 -51t48.5 -22q17 0 35.5 8.5t29.5 22.5q-11 -24 -36 -36t-49 -12q-46 0 -66 31.5t-20 72.5v237h-28v9zM147 -63q0 -18 -14 -32l-2 2q3 4 3 8t-3.5 5.5t-7 3.5t-7 5t-3.5 10t4.5 12t11.5 5
q18 0 18 -19z" />
    <glyph glyph-name="circumflex" unicode="&#x2c6;" horiz-adv-x="239" 
d="M119 590l-44 -39h-11l43 56h25l44 -56h-10z" />
    <glyph glyph-name="caron" unicode="&#x2c7;" horiz-adv-x="239" 
d="M176 607l-44 -56h-25l-43 56h11l44 -39l47 39h10z" />
    <glyph glyph-name="breve" unicode="&#x2d8;" horiz-adv-x="209" 
d="M181 607q-4 -29 -22 -49t-49 -20t-50.5 19.5t-23.5 49.5q10 -20 30.5 -31t42.5 -11t42.5 10.5t29.5 31.5z" />
    <glyph glyph-name="dotaccent" unicode="&#x2d9;" horiz-adv-x="171" 
d="M113 560q0 -10 -7 -17t-17 -7t-17 7t-7 17t7 16.5t17 6.5t17 -6.5t7 -16.5z" />
    <glyph glyph-name="ring" unicode="&#x2da;" horiz-adv-x="209" 
d="M140 551q0 -14 -9 -23.5t-23 -9.5t-23 9.5t-9 23.5t9 23.5t23 9.5t23 -9.5t9 -23.5zM93 551q0 -6 3.5 -16.5t11.5 -10.5t11.5 10.5t3.5 16.5t-3.5 16.5t-11.5 10.5t-11.5 -10.5t-3.5 -16.5z" />
    <glyph glyph-name="ogonek" unicode="&#x2db;" horiz-adv-x="209" 
d="M158 -94q-8 -5 -17.5 -8.5t-20.5 -3.5q-20 0 -34 13.5t-14 33.5q0 22 16.5 36t33.5 23h9q-14 -9 -25.5 -21.5t-11.5 -30.5q0 -26 21.5 -34t42.5 -8z" />
    <glyph glyph-name="tilde" unicode="&#x2dc;" horiz-adv-x="209" 
d="M175 550q-6 -14 -19.5 -20t-27.5 -6q-13 0 -24 4l-7 2q-11 4 -25 4q-8 0 -15 -2.5t-14 -5.5q8 11 21 18.5t27 7.5t27.5 -4.5t27.5 -4.5t29 7z" />
    <glyph glyph-name="hungarumlaut" unicode="&#x2dd;" horiz-adv-x="209" 
d="M113 655q0 -6 -9.5 -18.5t-22.5 -27t-25 -27t-17 -17.5l-9 6q4 6 12.5 22.5t18.5 34t20 30.5t16 13t11 -5t5 -11zM190 655q0 -6 -9.5 -18.5t-22.5 -27t-25 -27t-17 -17.5l-9 6q4 6 12.5 22.5t18.5 34t20 30.5t16 13t11 -5t5 -11z" />
    <glyph glyph-name="uni0326" unicode="&#x326;" horiz-adv-x="167" 
d="M108 -45q0 -13 -6.5 -26.5t-16.5 -21.5l-3 4q2 4 4.5 8.5t2.5 9.5t-4.5 6.5t-10 3t-10 5.5t-4.5 15q0 10 6.5 17t16.5 7q12 0 18.5 -8.5t6.5 -19.5z" />
    <glyph glyph-name="endash" unicode="&#x2013;" horiz-adv-x="358" 
d="M294 248v-25h-232v25h232z" />
    <glyph glyph-name="emdash" unicode="&#x2014;" horiz-adv-x="358" 
d="M308 206v-25h-246v25h246z" />
    <glyph glyph-name="quoteleft" unicode="&#x2018;" horiz-adv-x="158" 
d="M72 420q0 -7 3 -13t7 -11l-5 -5q-13 11 -21.5 29.5t-8.5 35.5q0 16 8.5 26.5t25.5 10.5q13 0 22 -9.5t9 -22.5t-6 -19t-13.5 -8.5t-14 -4.5t-6.5 -9z" />
    <glyph glyph-name="quoteright" unicode="&#x2019;" horiz-adv-x="158" 
d="M112 456q0 -17 -8.5 -35.5t-21.5 -29.5l-5 5q4 5 7 11t3 13q0 8 -6 9l-13 5q-7 3 -14 8.5t-7 18.5t9 22.5t22 9.5q17 0 25.5 -10.5t8.5 -26.5z" />
    <glyph glyph-name="quotesinglbase" unicode="&#x201a;" 
d="M108 27q0 -40 -30 -67l-5 5q4 5 7 11t3 13q0 6 -6 8t-13.5 5t-14 9t-6.5 20q0 13 9 22.5t22 9.5q17 0 25.5 -10t8.5 -26z" />
    <glyph glyph-name="quotedblleft" unicode="&#x201c;" horiz-adv-x="245" 
d="M160 420q0 -7 3 -13t7 -11l-5 -5q-13 11 -21.5 29.5t-8.5 35.5q0 16 8.5 26.5t25.5 10.5q13 0 22 -9.5t9 -22.5t-6 -19t-13.5 -8.5t-14 -4.5t-6.5 -9zM72 420q0 -7 3 -13t7 -11l-5 -5q-30 26 -30 65q0 16 8.5 26.5t25.5 10.5q13 0 22 -9.5t9 -22.5q0 -14 -6 -20
t-13.5 -8.5t-14 -4.5t-6.5 -8z" />
    <glyph glyph-name="quotedblright" unicode="&#x201d;" horiz-adv-x="245" 
d="M112 456q0 -17 -8.5 -35.5t-21.5 -29.5l-5 5q4 5 7 11t3 13q0 8 -6 9l-13 5q-7 3 -14 8.5t-7 18.5t9 22.5t22 9.5q17 0 25.5 -10.5t8.5 -26.5zM200 456q0 -39 -30 -65l-5 5q4 5 7 11t3 13t-6 8l-13 5q-7 3 -14 8.5t-7 19.5q0 13 9 22.5t22 9.5q17 0 25.5 -10.5t8.5 -26.5
z" />
    <glyph glyph-name="quotedblbase" unicode="&#x201e;" horiz-adv-x="245" 
d="M112 33q0 -17 -8.5 -35.5t-21.5 -29.5l-5 5q4 5 7 11t3 13q0 8 -6 9l-13 5q-7 3 -14 8.5t-7 18.5t9 22.5t22 9.5q17 0 25.5 -10.5t8.5 -26.5zM200 33q0 -40 -30 -65l-5 5q4 5 7 11t3 13t-6 8l-13 5q-7 3 -14 8.5t-7 19.5q0 13 9 22.5t22 9.5q17 0 25.5 -10.5t8.5 -26.5z
" />
    <glyph glyph-name="bullet" unicode="&#x2022;" horiz-adv-x="152" 
d="M107 175q0 -13 -9.5 -22.5t-22.5 -9.5t-22.5 9.5t-9.5 22.5q0 14 9 22.5t23 8.5q13 0 22.5 -8.5t9.5 -22.5z" />
    <glyph glyph-name="guilsinglleft" unicode="&#x2039;" horiz-adv-x="179" 
d="M144 141l-9 -39l-99 140l99 133l9 -35l-72 -98z" />
    <glyph glyph-name="guilsinglright" unicode="&#x203a;" horiz-adv-x="179" 
d="M144 242l-99 -140l-9 39l72 101l-72 98l9 35z" />
    <glyph glyph-name="Euro" unicode="&#x20ac;" horiz-adv-x="500" 
d="M465 71q-18 -15 -39.5 -28t-45.5 -23t-48.5 -16t-47.5 -6q-48 0 -90.5 16.5t-76 46t-55 69.5t-26.5 88h-36v12h35v20q0 13 1 19h-28v12h30q6 47 28 85.5t55 66.5t75 43.5t88 15.5q41 0 85 -10.5t76 -36.5v-70q-30 42 -75.5 75t-99.5 33q-42 0 -74 -17.5t-54.5 -46
t-34.5 -64.5t-14 -74h182v-12h-183l2 -39h173v-12h-172q6 -38 20.5 -76t38.5 -68t57.5 -48.5t77.5 -18.5q55 0 96.5 33.5t70.5 76.5z" />
    <glyph glyph-name="trademark" unicode="&#x2122;" horiz-adv-x="627" 
d="M160 243q0 -11 4 -20t15 -13h-65q11 4 15 13t4 20l1 241h-35q-21 0 -37 -11t-26 -29l10 46h202l11 -46q-11 17 -27 28.5t-37 11.5h-35v-241zM295 245q0 -14 9 -22t21 -13h-63q12 5 20.5 13t8.5 22v211q0 14 -9 21.5t-20 12.5h54l118 -241l102 241h44q-20 -8 -20 -32v-215
q0 -11 4 -20t16 -13h-66q11 4 15.5 13t4.5 20v230l-112 -262l-127 260v-226z" />
    <glyph glyph-name="uniE000" unicode="&#xe000;" horiz-adv-x="492" 
d="M36 0q16 6 31 21.5t21 31.5l169 443l167 -441q6 -18 17.5 -33.5t29.5 -21.5h-123q28 13 28 41q0 8 -6 26t-14 38t-15.5 38.5t-11.5 28.5q-22 -16 -49.5 -19t-56 -4.5t-56 -7.5t-48.5 -29q-6 -17 -13 -33t-7 -34q0 -17 12.5 -28.5t26.5 -16.5h-102zM126 130q23 17 49.5 21
t53.5 6t52 5.5t45 18.5l-90 237zM257 -45q5 -13 16.5 -23.5t22.5 -16.5q-11 -4 -22.5 -16t-16.5 -24q-5 13 -17 24t-23 16q28 15 40 40z" />
    <glyph glyph-name="uniE001" unicode="&#xe001;" horiz-adv-x="398" 
d="M169 490q28 0 55.5 -6.5t49 -20.5t35 -36.5t13.5 -54.5q0 -42 -24.5 -69t-63.5 -38q28 -2 53 -11t44 -25.5t30 -40.5t11 -54q0 -36 -14.5 -61t-38 -41.5t-53.5 -24t-62 -7.5h-193q20 6 26.5 22t6.5 35v377q0 20 -6.5 35t-26.5 21h158zM91 482v-283q16 18 34.5 31.5
t38.5 24.5q20 12 39.5 21t34.5 21t24.5 29.5t9.5 45.5q0 52 -27.5 81t-79.5 29h-74zM195 8q59 0 91 33.5t32 92.5q0 23 -7.5 45.5t-21 40t-33.5 28t-46 10.5q-16 0 -33 -6.5t-33 -17t-30 -23.5t-23 -25v-178h104z" />
    <glyph glyph-name="uniE002" unicode="&#xe002;" horiz-adv-x="485" 
d="M69 434q0 19 -7 34.5t-27 21.5h115q-20 -6 -26.5 -21.5t-6.5 -34.5v-274q17 31 37.5 48t43 28t45 18.5t44 18.5t41 29.5t35.5 50.5v81q0 20 -6.5 35t-26.5 21h115q-20 -6 -27 -21.5t-7 -34.5v-377q0 -19 7 -34.5t27 -22.5h-115q21 6 27 21.5t6 35.5v278q-17 -29 -38 -46
t-43.5 -27.5t-46 -18.5t-45 -20t-40.5 -30.5t-33 -50.5v-86q0 -19 6.5 -34t26.5 -22h-115q20 11 27 22t7 34v378z" />
    <glyph glyph-name="uniE003" unicode="&#xe003;" horiz-adv-x="433" 
d="M68 434q0 17 -8.5 33.5t-25.5 22.5h115q-20 -6 -27 -21t-7 -35v-272q13 26 29 50t37 45q16 16 41 39.5t49 50t41 54t17 50.5q0 30 -28 39h102q-23 -6 -41 -22.5t-29 -37.5q-17 -32 -32.5 -53.5t-31.5 -39.5t-34 -36t-42 -44h47l144 -209q9 -14 26.5 -28.5t32.5 -19.5h-75
q-10 0 -17 9l-165 242q-45 -48 -71 -112v-82q0 -20 7 -34.5t27 -22.5h-115q22 6 28 21.5t6 35.5v377z" />
    <glyph glyph-name="uniE004" unicode="&#xe004;" horiz-adv-x="632" 
d="M36 0q22 7 36 22t14 40v369q0 23 -15 38t-35 21h94l198 -405q19 56 45.5 102.5t53.5 93t49 96.5t32 113h81q-21 -8 -27.5 -22t-6.5 -34v-377q0 -20 6.5 -35.5t27.5 -21.5h-115q20 6 27 21.5t7 35.5v389q-14 -60 -40.5 -111.5t-55.5 -101.5t-55 -103.5t-38 -117.5h-1
l-2 -11l-222 456v-395q0 -24 14 -39.5t37 -22.5h-109zM315 -46q5 -12 16.5 -23t22.5 -16q-11 -5 -22.5 -17t-16.5 -23q-5 12 -16.5 23t-23.5 17q28 13 40 39z" />
    <glyph glyph-name="uniE005" unicode="&#xe005;" horiz-adv-x="423" 
d="M35 0q20 6 27 22t7 35v376q0 18 -7.5 34.5t-26.5 22.5h171q36 0 69 -8t58.5 -25.5t40.5 -46t15 -69.5q0 -42 -15 -68t-39.5 -42t-54.5 -26.5t-60.5 -22t-58 -27.5t-45.5 -43v-56q0 -19 6.5 -34t26.5 -22h-114zM116 127q27 35 65 50.5t73 31.5t59.5 44t24.5 88
q0 66 -37.5 103.5t-103.5 37.5h-81v-355z" />
    <glyph glyph-name="uniE006" unicode="&#xe006;" horiz-adv-x="435" 
d="M202 490q35 0 69 -8t60.5 -26t43 -46t16.5 -69q0 -58 -37 -96t-92 -49l99 -155q9 -14 23 -25t29 -16h-78l-117 183q-31 -12 -56.5 -26.5t-44.5 -43.5v-58q0 -18 7.5 -33.5t26.5 -21.5h-115q20 6 26.5 22.5t6.5 34.5v377q0 19 -6.5 34.5t-26.5 21.5h166zM117 482v-355
q18 23 41.5 36.5t48.5 24t49 21t42.5 27t30 41.5t11.5 64q0 66 -37.5 103.5t-103.5 37.5h-82z" />
    <glyph glyph-name="uniE007" unicode="&#xe007;" horiz-adv-x="505" 
d="M144 490q-13 -4 -19.5 -16t-6.5 -24q0 -6 9.5 -32t23.5 -62t31.5 -78t33.5 -80.5t29 -68.5t18 -43q15 44 35.5 84t41.5 80q9 17 22 43t25.5 53.5t21 54t8.5 44.5q0 36 -33 45h100q-25 -8 -37.5 -22t-20.5 -38q-17 -48 -36 -93.5t-43 -90.5q-31 -60 -58 -120t-42 -126
l-177 433q-7 17 -16.5 33t-28.5 24h119zM213 -85q28 13 40 39q4 -12 16 -23t23 -16q-11 -5 -23 -17t-16 -23q-5 12 -17 23t-23 17z" />
    <glyph glyph-name="uniE008" unicode="&#xe008;" horiz-adv-x="663" 
d="M65 433q-6 18 -16.5 33.5t-28.5 23.5h118q-14 -5 -19.5 -17t-5.5 -25q0 -5 7.5 -31.5t19 -64t25 -80.5t26 -81.5t22.5 -67t14 -37.5q11 37 26.5 72.5t30.5 71.5t27.5 72t17.5 75q-4 14 -9.5 31t-13 33t-18 29.5t-25.5 19.5h119q-13 -5 -19 -17t-6 -24q0 -10 7 -36
t18 -61.5t24 -75t25.5 -76.5t23 -66.5t15.5 -44.5q12 43 29 85t33 84.5t29 86t17 88.5h-1q0 20 -6.5 36t-29.5 21h99q-26 -5 -37 -17.5t-16 -37.5q-7 -29 -12.5 -57t-13.5 -57q-24 -81 -55.5 -159t-47.5 -162h-7l-116 359q-7 -37 -20 -71.5t-29 -69.5q-23 -53 -41.5 -107
t-29.5 -111h-8zM337 -46q5 -13 16.5 -23.5t23.5 -15.5q-12 -5 -23.5 -16.5t-16.5 -23.5q-5 12 -16 23t-23 17q12 6 23 16t16 23z" />
    <glyph glyph-name="uniE009" unicode="&#xe009;" horiz-adv-x="441" 
d="M81 430q-10 15 -25.5 34t-33.5 26h123q-10 -3 -14 -11.5t-4 -17.5q0 -15 10 -30l102 -158q31 37 60.5 81.5t40.5 92.5q0 1 0.5 1.5t0.5 2.5q0 14 -9 24t-23 15h101q-29 -10 -46 -34.5t-28 -50.5h-1q-16 -38 -40 -72.5t-51 -66.5l139 -214q10 -14 22.5 -30t29.5 -22h-124
q9 3 14 11.5t5 17.5q0 17 -11 33l-108 165q-12 -15 -31.5 -39t-38 -50.5t-31.5 -53t-13 -45.5q0 -29 30 -39h-101q19 8 39 30t29 40q23 46 51.5 86t61.5 79z" />
    <glyph glyph-name="uniE00A" unicode="&#xe00a;" horiz-adv-x="419" 
d="M69 435q-9 17 -21.5 32.5t-31.5 22.5h116q-9 -4 -13 -12.5t-4 -17.5q0 -11 7 -27q3 -4 11.5 -20.5t20 -39t24.5 -47.5t24.5 -46.5t19 -35.5t8.5 -15q6 29 23.5 57.5t36 56t33 53.5t14.5 50q0 15 -9.5 27t-23.5 17h99q-45 -14 -59 -57q-9 -32 -20 -52.5t-31 -46.5t-39 -60
t-19 -68v-150q0 -20 6.5 -34.5t26.5 -21.5h-115q20 6 27.5 22t7.5 35v157z" />
    <glyph glyph-name="uniE00B" unicode="&#xe00b;" horiz-adv-x="389" 
d="M58 293q-8 19 -19 34t-31 23h108q-21 -7 -21 -29q0 -4 7.5 -23.5t19.5 -47t26 -59.5t27 -61.5t23.5 -52t14.5 -31.5q16 45 30.5 89t32.5 87q6 14 13 28.5t13 29.5q2 7 4.5 14t2.5 15q0 15 -9.5 27t-24.5 14h108q-28 -6 -50.5 -36t-40.5 -69t-30.5 -79t-20.5 -64
q-22 -65 -49 -129.5t-76 -114.5v1q-8 -9 -21 -16t-26 -7q-11 0 -20.5 8t-9.5 20q0 9 6.5 15.5t15.5 6.5q11 0 21.5 -5.5t21.5 -5.5q13 0 26.5 14t25.5 33t21.5 38.5t13.5 30.5z" />
    <glyph glyph-name="uniE00C" unicode="&#xe00c;" horiz-adv-x="321" 
d="M13 83q0 39 25.5 58t58.5 32.5t65.5 28.5t46.5 44q1 2 3.5 8.5t2.5 8.5q0 29 -18.5 54t-50.5 25q-9 0 -21.5 -2.5t-24 -7.5t-19 -13t-7.5 -19q0 -7 1 -11l2 -8q1 -4 1 -11q0 -26 -27 -26q-11 0 -17.5 8.5t-6.5 19.5q0 18 14 32t34 24.5t41 16t36 5.5q55 0 79 -27t24 -81
v-175q0 -16 6.5 -30t25.5 -14q15 0 27 10q-4 -14 -19.5 -23.5t-29.5 -9.5q-32 0 -40.5 20t-8.5 47v175q-13 -27 -39 -41t-51.5 -27t-45 -31.5t-19.5 -54.5q0 -32 19.5 -52t51.5 -20q21 0 40 7.5t35 19.5q-18 -23 -43 -33t-54 -10q-38 0 -67.5 21t-29.5 62z" />
    <glyph glyph-name="uniE00D" unicode="&#xe00d;" horiz-adv-x="361" 
d="M24 167q0 82 46.5 132t130.5 50q24 0 47 -10t40 -27t27.5 -39.5t10.5 -47.5t-29 -36t-68.5 -21.5t-79.5 -26.5t-61 -50q37 -67 112 -67q16 0 35 2.5t37 9t33.5 17t23.5 26.5q-15 -40 -54.5 -62t-81.5 -22q-36 0 -67 13.5t-53.5 36.5t-35.5 54.5t-13 67.5zM192 344
q-29 0 -52 -13.5t-39.5 -35t-25 -48t-8.5 -52.5q0 -52 17 -96q23 33 57 47t66 25t54.5 28.5t22.5 58.5q0 40 -27 63t-65 23z" />
    <glyph glyph-name="uniE00E" unicode="&#xe00e;" horiz-adv-x="380" 
d="M281 354q9 15 24.5 26.5t33.5 11.5q11 0 21 -5.5t10 -18.5q0 -12 -8 -18.5t-19 -6.5q-12 0 -22.5 7t-22.5 7q-9 0 -17 -3zM176 74q-29 0 -56.5 10.5t-48.5 29.5t-33.5 45t-12.5 57q0 30 13 56t34.5 45t49 29.5t56.5 10.5q30 0 58 -10t49.5 -29t34.5 -44.5t13 -57.5
q0 -31 -13.5 -57t-35 -45t-50 -29.5t-58.5 -10.5zM167 349q-24 0 -42 -11.5t-30 -29t-18.5 -39.5t-6.5 -43q0 -25 8 -50.5t23 -46.5t36.5 -34t49.5 -13q24 0 42.5 11t31 29t19 40t6.5 43q0 25 -8.5 50.5t-24 46.5t-37.5 34t-49 13zM24 15q0 21 12 38t29 28
q-11 -10 -18.5 -25.5t-7.5 -30.5q0 -18 10.5 -25.5t27.5 -7.5q48 0 94.5 13t94.5 13q43 0 70.5 -18.5t27.5 -66.5q0 -29 -13.5 -52t-35 -39.5t-48 -25.5t-53.5 -9q-14 0 -29 2.5t-27 9t-20 18t-8 28.5q0 15 8 31t22 21q-5 -8 -5 -17q0 -35 27.5 -51t57.5 -16q20 0 39.5 5.5
t35.5 17t25.5 28t9.5 39.5q0 32 -17 44.5t-47 12.5q-23 0 -45.5 -5t-45 -10.5t-45 -10.5t-45.5 -5q-30 0 -55.5 16.5t-25.5 49.5z" />
    <glyph glyph-name="uniE00F" unicode="&#xe00f;" horiz-adv-x="374" 
d="M18 0q21 6 28 23.5t7 37.5v367q0 13 -4 29.5t-21 16.5l65 47v-460q0 -19 8 -37t28 -24h-111zM108 188q13 25 29 39.5t39 29.5q8 6 19 13.5t21 17t17 20t7 20.5q0 7 -8.5 13t-13.5 8h89q-26 -8 -46 -26q-20 -19 -38.5 -38t-41.5 -35q-20 -14 -35 -27.5t-28 -34.5l42 1
l133 -153q13 -14 25.5 -22.5t31.5 -13.5h-78z" />
    <glyph glyph-name="uniE010" unicode="&#xe010;" horiz-adv-x="389" 
d="M58 294q-8 18 -19.5 33t-30.5 23h107q-10 -2 -15 -11.5t-5 -19.5t14.5 -44.5t33 -75t36 -77.5t23.5 -52q9 19 26.5 51.5t35 67.5t31 66.5t13.5 48.5t-8.5 30.5t-25.5 15.5h107q-21 -3 -36 -16.5t-24 -33.5q-14 -33 -28.5 -66t-32.5 -65q-20 -37 -39 -75t-29 -79l-4 -15z
" />
    <glyph glyph-name="uniE011" unicode="&#xe011;" horiz-adv-x="568" 
d="M66 293q-8 19 -18.5 34t-30.5 23h107q-9 -2 -15 -10t-6 -17q0 -3 7 -21.5t18 -44t24 -55.5t25 -57t21.5 -47.5t12.5 -28.5q16 37 35 72.5t34 73.5l-35 78q-9 21 -18 34t-30 23h107q-8 -2 -15.5 -8.5t-7.5 -16.5q0 -3 7 -21t18 -44t24.5 -56t25.5 -57.5t21.5 -48.5
t13.5 -29q9 21 24.5 52.5t30.5 65.5t26.5 65t11.5 51q0 16 -7.5 30.5t-25.5 16.5h108q-31 -7 -47 -27.5t-25 -49.5q-11 -35 -26.5 -69t-31.5 -67.5t-30.5 -67.5t-23.5 -70l-90 205q-23 -51 -49 -100.5t-40 -104.5z" />
    <glyph glyph-name="uniE012" unicode="&#xe012;" horiz-adv-x="373" 
d="M13 0q25 3 46 23t33 40q17 28 35.5 53.5t41.5 48.5l-103 135q-11 14 -23.5 28t-29.5 22h111q-8 -2 -13.5 -10t-5.5 -16q0 -9 12 -27t27.5 -38.5t30.5 -38.5t21 -27q11 11 25 26t27 32t22 35t9 33q0 14 -8 21.5t-20 9.5h107q-17 -6 -28.5 -11t-20 -12t-15.5 -17t-15 -26
q-14 -29 -34 -52t-43 -46q15 -20 34 -46.5t39 -53t41.5 -49.5t41.5 -37h-112q20 7 20 26q0 8 -12 26.5t-27.5 39.5t-31 39.5t-21.5 26.5q-11 -12 -25 -27t-26 -32t-20.5 -35t-8.5 -35q0 -26 26 -29h-107z" />
    <glyph glyph-name="uniE013" unicode="&#xe013;" 
d="M71 474q4 -13 16 -23.5t24 -16.5q-12 -5 -24 -16.5t-16 -23.5q-5 13 -17 23.5t-23 16.5q28 13 40 40zM20 0q20 6 26.5 21.5t6.5 35.5v206q0 11 -4 27t-19 16l63 44v-293q0 -20 7 -35.5t27 -21.5h-107z" />
    <glyph glyph-name="uniE014" unicode="&#xe014;" horiz-adv-x="405" 
d="M23 175q0 36 14 68t38 55.5t56 37.5t68 14t68 -13.5t55.5 -37.5t37.5 -56t14 -68t-13.5 -68t-37.5 -56t-55.5 -38t-67.5 -14q-37 0 -69 14t-56 38t-38 56t-14 68zM187 340q-30 0 -53 -13.5t-38.5 -35.5t-23.5 -49t-8 -54q0 -31 9.5 -62.5t28.5 -57.5t46 -42.5t61 -16.5
q30 0 53 14t38 35.5t23 48.5t8 54q0 30 -10 62t-28.5 58t-45 42.5t-60.5 16.5zM200 132q-5 13 -16.5 23t-23.5 17q13 6 24 16t16 23q5 -13 17 -23.5t23 -15.5q-12 -5 -23.5 -16.5t-16.5 -23.5z" />
    <glyph glyph-name="uniE027" unicode="&#xe027;" horiz-adv-x="883" 
d="M267 -1q-35 0 -63 19t-28 57q0 26 11 44t28.5 30t38.5 20t41 14q23 6 44.5 11t43.5 8v44q0 60 -28 80t-69 20q19 8 37 8q33 0 52.5 -11t30 -30t13.5 -45t3 -57q34 8 67 19t63 28q0 12 -4 29.5t-21 17.5l65 46v-68q18 12 32.5 25t29 23t32 16.5t42.5 6.5q27 0 45.5 -10.5
t30.5 -27.5t17.5 -39t5.5 -46v-169q0 -20 7.5 -37t30.5 -25h-113q21 8 28.5 25t7.5 37v178q0 36 -17.5 66.5t-59.5 30.5q-26 0 -43.5 -8t-37.5 -24q-31 -26 -60 -43.5t-59 -29.5t-63 -20.5t-71 -16.5q-24 -5 -51 -12t-49.5 -19.5t-37 -33t-14.5 -51.5q0 -30 18.5 -47
t47.5 -17q44 0 80 24q-22 -22 -48 -31t-56 -9zM7 0q20 6 27 22t7 36v207q0 11 -3.5 27t-20.5 16l64 45v-295q0 -19 7 -34.5t26 -23.5h-107zM111 305q7 8 20.5 15t29.5 12.5t31.5 9t25.5 3.5q16 0 34 -7.5t18 -27.5q0 -10 -6 -19.5t-18 -9.5t-17.5 7t-10.5 15.5t-14 15.5
t-28 7q-16 0 -34.5 -6.5t-30.5 -14.5zM517 0q21 8 28 25t7 37v174q10 4 21 10t19 13v-197q0 -20 7.5 -37t29.5 -25h-112zM432 -1q-32 0 -40.5 20.5t-8.5 46.5v115l20 4t19 6v-125q0 -15 6.5 -29.5t25.5 -14.5q16 0 28 10q-5 -14 -20.5 -23.5t-29.5 -9.5z" />
    <glyph glyph-name="H_K" horiz-adv-x="918" 
d="M35 0q20 6 27 21t7 35v378q0 19 -7 34.5t-27 21.5h115q-20 -6 -27 -21.5t-7 -34.5v-161h247v161q0 19 -6.5 34.5t-26.5 21.5h115q-20 -6 -27 -21.5t-7 -34.5v-161q38 0 73.5 -1t68.5 -5v167q0 17 -8.5 34t-25.5 22h115q-20 -6 -27 -21.5t-7 -34.5v-173q9 -2 17.5 -4
t16.5 -4l171 182q9 9 9 21q0 11 -8.5 21t-19.5 13h102q-20 -6 -37.5 -22t-31.5 -31l-176 -186q46 -14 85.5 -38t71.5 -66l69 -99q9 -13 27 -28t32 -20h-75q-8 0 -17 9l-97 142q-26 42 -58 65t-74.5 34t-98 13t-129.5 2h-263v-209q0 -19 7.5 -34.5t26.5 -21.5h-115zM363 245
h48v-188q0 -19 7 -35t27 -22h-115q20 6 26.5 22t6.5 35v188zM553 240q13 -2 24 -3.5t23 -4.5v-175q0 -20 7 -35t27 -22h-115q20 6 27 22t7 35v183z" />
    </font>
</defs>
</svg>
